<?xml version="1.0" encoding="UTF-8" standalone="no"?>
<!-- Created with Inkscape (http://www.inkscape.org/) -->

<svg
   xmlns:dc="http://purl.org/dc/elements/1.1/"
   xmlns:cc="http://creativecommons.org/ns#"
   xmlns:rdf="http://www.w3.org/1999/02/22-rdf-syntax-ns#"
   xmlns:svg="http://www.w3.org/2000/svg"
   xmlns="http://www.w3.org/2000/svg"
   xmlns:sodipodi="http://sodipodi.sourceforge.net/DTD/sodipodi-0.dtd"
   xmlns:inkscape="http://www.inkscape.org/namespaces/inkscape"
   width="50mm"
   height="50mm"
   viewBox="0 0 50 50"
   version="1.1"
   id="svg937"
   inkscape:version="0.92.4 (5da689c313, 2019-01-14)"
   sodipodi:docname="initial_2.svg">
  <defs
     id="defs931">
    <inkscape:path-effect
       effect="spiro"
       id="path-effect1840"
       is_visible="true" />
    <inkscape:path-effect
       effect="spiro"
       id="path-effect1831"
       is_visible="true" />
    <inkscape:path-effect
       effect="bspline"
       id="path-effect1827"
       is_visible="true"
       weight="33.333333"
       steps="2"
       helper_size="0"
       apply_no_weight="true"
       apply_with_weight="true"
       only_selected="false" />
    <inkscape:path-effect
       effect="spiro"
       id="path-effect1823"
       is_visible="true" />
    <inkscape:perspective
       sodipodi:type="inkscape:persp3d"
       inkscape:vp_x="0 : 25 : 1"
       inkscape:vp_y="0 : 1000 : 0"
       inkscape:vp_z="50 : 25 : 1"
       inkscape:persp3d-origin="25 : 16.666667 : 1"
       id="perspective1801" />
    <inkscape:path-effect
       effect="skeletal"
       id="path-effect967"
       is_visible="true"
       pattern="M 0,5 C 0,2.24 2.24,0 5,0 7.76,0 10,2.24 10,5 10,7.76 7.76,10 5,10 2.24,10 0,7.76 0,5 Z"
       copytype="single_stretched"
       prop_scale="0.26458333"
       scale_y_rel="false"
       spacing="0"
       normal_offset="0"
       tang_offset="0"
       prop_units="false"
       vertical_pattern="false"
       fuse_tolerance="0" />
    <inkscape:path-effect
       effect="bspline"
       id="path-effect965"
       is_visible="true"
       weight="33.333333"
       steps="2"
       helper_size="0"
       apply_no_weight="true"
       apply_with_weight="true"
       only_selected="false" />
  </defs>
  <sodipodi:namedview
     id="base"
     pagecolor="#ffffff"
     bordercolor="#666666"
     borderopacity="1.0"
     inkscape:pageopacity="0.0"
     inkscape:pageshadow="2"
     inkscape:zoom="2"
     inkscape:cx="61.803761"
     inkscape:cy="141.08016"
     inkscape:document-units="mm"
     inkscape:current-layer="layer1"
     showgrid="false"
     inkscape:window-width="1366"
     inkscape:window-height="705"
     inkscape:window-x="-8"
     inkscape:window-y="-8"
     inkscape:window-maximized="1"
     showguides="false" />
  <metadata
     id="metadata934">
    <rdf:RDF>
      <cc:Work
         rdf:about="">
        <dc:format>image/svg+xml</dc:format>
        <dc:type
           rdf:resource="http://purl.org/dc/dcmitype/StillImage" />
        <dc:title></dc:title>
      </cc:Work>
    </rdf:RDF>
  </metadata>
  <g
     inkscape:label="Layer 1"
     inkscape:groupmode="layer"
     id="layer1"
     transform="translate(0,-247)">
    <g
       id="g840"
       transform="translate(18.656278,-8.3002462)">
      <path
         sodipodi:nodetypes="cccccccsscccsscccscssccccccccccccccscssc"
         inkscape:connector-curvature="0"
         d="m 44.859982,282.33018 c -0.139174,0.24637 -0.383363,0.60355 -0.779475,0.45938 -0.722933,-0.24799 -0.6525,-1.39157 -0.168458,-1.92273 0.856566,-0.93996 2.401233,-0.72398 3.235492,0.11509 1.215231,1.22214 0.86489,3.18749 -0.417821,4.23463 -1.700015,1.3878 -4.291478,0.93981 -5.643607,-0.66206 -1.693826,-2.00662 -1.092255,-4.98594 0.991879,-6.51884 2.514596,-1.84953 6.175145,-1.16215 8.029952,1.20142 2.1787,2.77631 1.323094,6.77646 -1.55996,8.78635 -3.31908,2.31386 -8.050505,1.38625 -10.401581,-1.73628 -2.664665,-3.53899 -1.554905,-8.55947 2.124061,-11.04178 4.117813,-2.7784 9.918511,-1.61077 12.762114,2.26795 3.150349,4.29714 1.786895,10.33598 -2.685254,13.28775 -4.912495,3.24241 -11.780175,1.83527 -15.113679,-2.79717 -3.635375,-5.05193 -2.018759,-12.10688 3.244123,-15.52595 1.182688,-0.76835 2.500126,-1.32729 3.877503,-1.66237 0.138774,-0.0313 0.275998,-0.0606 0.411938,-0.088 0.135939,-0.0274 0.270594,-0.0527 0.404229,-0.0761 0.133635,-0.0234 0.266249,-0.0448 0.39811,-0.0643 0.13186,-0.0194 0.262965,-0.0369 0.39358,-0.0523 0.130615,-0.0154 0.260741,-0.0289 0.390642,-0.0404 0.1299,-0.0115 0.259576,-0.0209 0.389292,-0.0284 0.129716,-0.007 0.259471,-0.0129 0.389533,-0.0163 0.130061,-0.003 0.05335,-5.1e-4 0.184291,6.4e-4 m -0.456905,11.88016 c 0.199985,-0.3886 0.669123,-0.40597 0.896236,-0.18067 0.53981,0.58177 0.1183,1.52088 -0.525723,1.86453 -1.139697,0.60816 -2.514998,-0.0943 -3.000787,-1.15363 -0.707612,-1.54321 0.321017,-3.28024 1.899474,-3.85164 2.091941,-0.75725 4.368801,0.50177 5.070036,2.44666 0.878411,2.43636 -0.747154,5.04683 -3.251869,5.81661 -3.022039,0.92876 -6.218782,-0.90103 -7.12154,-3.72546 -1.060409,-3.31762 1.167197,-6.80707 4.592691,-7.76776 3.943549,-1.106 8.061521,1.29598 9.160806,4.99524 1.245915,4.19264 -1.583653,8.56053 -5.925475,9.70884 -4.859708,1.28526 -9.897534,-1.68814 -11.190788,-6.25842 -1.432763,-5.06331 1.997628,-10.30796 7.252166,-11.64197 5.771895,-1.46534 11.727585,2.07825 13.213212,7.51641 1.620162,5.93062 -2.409718,12.05006 -8.573891,13.56851 -0.692612,0.17062 -1.362448,0.26508 -2.071714,0.31668"
         style="fill:none;fill-opacity:1;stroke:#000000;stroke-width:0.034;stroke-linecap:butt;stroke-linejoin:miter;stroke-miterlimit:4;stroke-dasharray:none;stroke-opacity:1"
         id="path874" />
      <g
         transform="translate(25.256969,5.0513938)"
         id="g1414">
        <rect
           style="opacity:1;fill:#000000;fill-opacity:1;stroke:none;stroke-width:0.01278919;stroke-miterlimit:4;stroke-dasharray:none;stroke-dashoffset:0;stroke-opacity:1"
           id="rect1497"
           width="0.034000002"
           height="1.3308742"
           x="20.025917"
           y="264.06815" />
        <circle
           style="opacity:1;fill:#000000;fill-opacity:1;stroke:none;stroke-width:0.01580463;stroke-miterlimit:4;stroke-dasharray:none;stroke-dashoffset:0;stroke-opacity:1"
           id="path1499"
           cx="20.021576"
           cy="261.72159"
           r="0.26199999" />
        <rect
           style="opacity:1;fill:#000000;fill-opacity:1;stroke:none;stroke-width:1.08149254;stroke-miterlimit:4;stroke-dasharray:none;stroke-dashoffset:0;stroke-opacity:1"
           id="rect1518-9"
           width="0.034000002"
           height="2.39446"
           x="-20.060019"
           y="-264.13885"
           transform="scale(-1)" />
        <rect
           style="opacity:1;fill:#000000;fill-opacity:1;stroke:none;stroke-width:1.06798029;stroke-miterlimit:4;stroke-dasharray:none;stroke-dashoffset:0;stroke-opacity:1"
           id="rect1518-2"
           width="0.034000002"
           height="2.3350003"
           x="162.39647"
           y="-206.25267"
           transform="rotate(137.40037)" />
        <rect
           style="opacity:1;fill:#000000;fill-opacity:1;stroke:none;stroke-width:1.06798029;stroke-miterlimit:4;stroke-dasharray:none;stroke-dashoffset:0;stroke-opacity:1"
           id="rect1518-2-6"
           width="0.034000002"
           height="2.3350003"
           x="-191.94241"
           y="176.7804"
           transform="matrix(-0.73610147,-0.6768712,-0.6768712,0.73610147,0,0)" />
        <circle
           style="opacity:1;fill:#000000;fill-opacity:1;stroke:none;stroke-width:0.02787647;stroke-miterlimit:4;stroke-dasharray:none;stroke-dashoffset:0;stroke-opacity:1"
           id="path1499-5"
           cx="18.279308"
           cy="259.65958"
           r="0.46212009" />
        <circle
           style="opacity:1;fill:#000000;fill-opacity:1;stroke:none;stroke-width:0.02787647;stroke-miterlimit:4;stroke-dasharray:none;stroke-dashoffset:0;stroke-opacity:1"
           id="path1499-5-9"
           cx="21.860216"
           cy="259.6593"
           r="0.46212009" />
      </g>
      <g
         transform="translate(25.256969,5.0513938)"
         id="g2014">
        <rect
           style="opacity:1;fill:#000000;fill-opacity:1;stroke:none;stroke-width:1.11548352;stroke-miterlimit:4;stroke-dasharray:none;stroke-dashoffset:0;stroke-opacity:1"
           id="rect1518-9-1"
           width="0.034000002"
           height="2.5473397"
           x="-20.059847"
           y="-291.48044"
           transform="scale(-1)" />
        <circle
           style="opacity:1;fill:#000000;fill-opacity:1;stroke:none;stroke-width:0.04524225;stroke-miterlimit:4;stroke-dasharray:none;stroke-dashoffset:0;stroke-opacity:1"
           id="path1499-4"
           cx="20.038933"
           cy="292.1214"
           r="0.75" />
        <circle
           style="opacity:1;fill:#000000;fill-opacity:1;stroke:none;stroke-width:0.02787647;stroke-miterlimit:4;stroke-dasharray:none;stroke-dashoffset:0;stroke-opacity:1"
           id="path1499-4-9"
           cx="20.049341"
           cy="294.98767"
           r="0.46212009" />
        <rect
           style="opacity:1;fill:#000000;fill-opacity:1;stroke:none;stroke-width:0.98880887;stroke-miterlimit:4;stroke-dasharray:none;stroke-dashoffset:0;stroke-opacity:1"
           id="rect1518-9-1-1"
           width="0.034000002"
           height="2.0016365"
           x="-20.059187"
           y="-294.6687"
           transform="scale(-1)" />
      </g>
    </g>
    <path
       inkscape:connector-curvature="0"
       id="path1005-8-6"
       style="fill:none;fill-rule:evenodd;stroke:#000000;stroke-width:0.28795809"
       d="m 93.116969,277.5981 c 0.0086,0.56744 0.801788,0.26888 0.983395,-0.0137 0.492151,-0.76564 -0.246446,-1.65057 -1.01187,-1.87258 -1.369165,-0.39713 -2.664754,0.67703 -2.921713,1.92721 -0.377102,1.83466 1.167685,3.47687 3.007141,3.73151 2.451701,0.33939 4.592512,-1.56294 4.86003,-3.84075 0.336648,-2.86639 -2.091712,-5.33507 -5.002412,-5.59045 -3.525245,-0.3093 -6.53516,2.44911 -6.798347,5.7543 -0.310152,3.89507 3.015667,7.20106 6.997682,7.44938 4.597394,0.2867 8.482765,-3.33518 8.736655,-7.66786 0.28849,-4.92305 -3.939562,-9.07016 -8.992942,-9.3083 -5.669133,-0.26717 -10.432638,4.22123 -10.674977,9.5814 -0.269043,5.95081 4.863448,10.94084 10.988218,11.16724 6.740701,0.24917 12.383721,-5.10728 12.613291,-11.49496 0.2508,-6.97845 -5.78732,-12.8124 -12.983486,-13.02616 -7.812209,-0.23207 -14.335538,5.9933 -14.551607,13.40851 -0.23329,8.00603 6.711193,14.68453 14.978755,14.8851 8.883658,0.21551 16.287828,-6.87936 16.489918,-15.32206 0.21625,-9.03362 -7.63506,-16.55704 -16.974019,-16.74404 -9.955101,-0.19929 -18.240439,7.76543 -18.428241,17.23565 -0.199518,10.06115 8.55894,18.42979 18.969294,18.60297 m -0.284767,-18.86242 c -0.0095,-0.56751 -0.816484,-0.26991 -1.000954,0.0124 -0.499906,0.7651 0.253097,1.65103 1.032505,1.87403 1.394175,0.39887 2.711462,-0.67377 2.971314,-1.92374 0.381347,-1.83437 -1.193286,-3.47867 -3.065964,-3.73563 -2.495982,-0.34249 -4.672546,1.55714 -4.941675,3.83504 -0.338768,2.86624 2.136353,5.33819 5.099423,5.59723 3.588675,0.31373 6.648637,-2.44116 6.912034,-5.74634 0.3104,-3.89505 -3.079357,-7.20552 -7.132883,-7.45884 -4.679953,-0.29247 -8.629853,3.32489 -8.88239,7.65766 -0.286952,4.92316 4.022313,9.07596 9.16634,9.32044 5.770823,0.27428 10.613363,-4.20859 10.852753,-9.56897 0.26576,-5.95104 -4.965253,-10.94797 -11.199801,-11.18204 -6.861527,-0.25762 -12.598119,5.09228 -12.823107,11.48028 -0.245802,6.97879 5.908174,12.82085 13.233253,13.04363 7.952155,0.24187 14.583615,-5.97595 14.793465,-13.39158 0.22658,-8.00651 -6.8511,-14.69432 -15.266712,-14.90525 -9.042739,-0.22663 -16.569595,6.85964 -16.76383,15.3029 -0.207823,9.0342 7.794046,16.56816 17.300178,16.76685 10.133304,0.21181 18.555904,-7.74331 18.734194,-17.2142 0.1894,-10.06186 -8.73698,-18.44225 -19.33364,-18.62845" />
    <path
       id="path1005-8-3"
       style="fill:none;fill-rule:evenodd;stroke:#000000;stroke-width:0.035;stroke-miterlimit:4;stroke-dasharray:none"
       d="m 136.21288,274.64025 c -1.36917,-0.39713 -2.61199,0.70341 -2.86895,1.95359 -0.3771,1.83466 1.16769,3.47687 3.00714,3.73151 2.4517,0.33939 4.59252,-1.56294 4.86003,-3.84075 0.33665,-2.86639 -2.09171,-5.33507 -5.00241,-5.59045 -3.52524,-0.3093 -6.53516,2.4491 -6.79835,5.7543 -0.31015,3.89507 3.01567,7.20106 6.99769,7.44938 4.59739,0.2867 8.48277,-3.33519 8.73666,-7.66786 0.28849,-4.92305 -3.93957,-9.07016 -8.99295,-9.3083 -5.66913,-0.26717 -10.43264,4.22123 -10.67498,9.5814 -0.26904,5.95081 4.86345,10.94084 10.98822,11.16724 6.74071,0.24917 12.38372,-5.10728 12.61329,-11.49496 0.25081,-6.97845 -5.78732,-12.8124 -12.98348,-13.02616 -7.81221,-0.23207 -14.33554,5.9933 -14.55161,13.40851 -0.23329,8.00603 6.71119,14.68453 14.97875,14.88509 8.88367,0.21552 16.28783,-6.87935 16.48993,-15.32205 0.21624,-9.03362 -7.63507,-16.55704 -16.97403,-16.74404 -9.9551,-0.19933 -18.24044,7.76539 -18.42824,17.23561 -0.19952,10.06115 8.55894,18.42979 18.9693,18.60297 m -0.60027,-37.72697 c 10.59666,0.1862 19.52304,8.56659 19.33364,18.62845 -0.17829,9.47088 -8.60088,17.42601 -18.73419,17.2142 -9.50614,-0.19869 -17.508,-7.73265 -17.30018,-16.76685 0.19423,-8.44326 7.72109,-15.52953 16.76383,-15.3029 8.41561,0.21093 15.49329,6.89874 15.26671,14.90524 -0.20984,7.41564 -6.84131,13.63346 -14.79346,13.39159 -7.32508,-0.22278 -13.47906,-6.06484 -13.23326,-13.04363 0.22499,-6.388 5.96158,-11.73791 12.82311,-11.48028 6.23455,0.23407 11.46556,5.231 11.1998,11.18204 -0.23939,5.36037 -5.08193,9.84325 -10.85275,9.56897 -5.14403,-0.24449 -9.45329,-4.39728 -9.16634,-9.32044 0.25254,-4.33277 4.20244,-7.95014 8.88239,-7.65767 4.05352,0.25333 7.44328,3.5638 7.13288,7.45885 -0.2634,3.30517 -3.32336,6.06007 -6.91203,5.74634 -2.96307,-0.25904 -5.43819,-2.73099 -5.09943,-5.59723 0.26913,-2.27791 2.4457,-4.17753 4.94168,-3.83504 1.87268,0.25696 3.44731,1.90126 3.06596,3.73563 -0.25985,1.24997 -1.64105,2.7097 -2.89216,1.97651 -2.25422,-1.32104 1.75245,-2.36654 -0.21157,-3.86424"
       inkscape:connector-curvature="0"
       sodipodi:nodetypes="ccccscsscsssssssssccssscssscsssccccccsc" />
    <circle
       style="opacity:1;fill:#000000;fill-opacity:1;stroke:none;stroke-width:0.03357043;stroke-miterlimit:4;stroke-dasharray:none;stroke-dashoffset:0;stroke-opacity:1"
       id="path877"
       cx="-290.7388"
       cy="41.704266"
       r="2.4000001"
       transform="rotate(-90)" />
    <rect
       style="opacity:1;fill:#000000;fill-opacity:1;stroke:none;stroke-width:0.03462438;stroke-miterlimit:4;stroke-dasharray:none;stroke-dashoffset:0;stroke-opacity:1"
       id="rect1209-0"
       width="21.372179"
       height="0.035"
       x="24.766762"
       y="290.68399" />
    <path
       id="path1005-8-6-0-5"
       style="fill:none;fill-rule:evenodd;stroke:#000000;stroke-width:0.035;stroke-miterlimit:4;stroke-dasharray:none"
       d="m 105.86863,239.76092 c 0.49213,-0.76565 0.59392,-1.48615 -0.17151,-1.70816 -1.36916,-0.39713 -2.66475,0.67703 -2.92171,1.92721 -0.3771,1.83466 1.16768,3.47687 3.00714,3.73151 2.4517,0.33939 4.59251,-1.56294 4.86003,-3.84075 0.33665,-2.86639 -2.09171,-5.33507 -5.00241,-5.59045 -3.52525,-0.3093 -6.535163,2.44911 -6.79835,5.7543 -0.310152,3.89507 3.01567,7.20106 6.99768,7.44938 4.5974,0.2867 8.48277,-3.33518 8.73666,-7.66786 0.28849,-4.92305 -3.93956,-9.07016 -8.99294,-9.3083 -5.669138,-0.26717 -10.432643,4.22123 -10.674982,9.5814 -0.269043,5.95081 4.863448,10.94084 10.988222,11.16724 6.7407,0.24917 12.38372,-5.10728 12.61329,-11.49496 0.2508,-6.97845 -5.78732,-12.8124 -12.98349,-13.02616 -7.812208,-0.23207 -14.335538,5.9933 -14.551607,13.40851 -0.23329,8.00603 6.711194,14.68453 14.978757,14.8851 8.88366,0.21551 16.28783,-6.87936 16.48992,-15.32206 0.21625,-9.03362 -7.63506,-16.55704 -16.97402,-16.74404 -9.955103,-0.19929 -18.240442,7.76543 -18.428244,17.23565 -0.199518,10.06115 8.558941,18.42979 18.969294,18.60297 m -0.60031,-37.72699 c 10.59666,0.1862 19.52304,8.56659 19.33364,18.62845 -0.17829,9.47089 -8.60089,17.42601 -18.73419,17.2142 -9.506134,-0.19869 -17.508004,-7.73265 -17.300181,-16.76685 0.194235,-8.44326 7.721092,-15.52953 16.763831,-15.3029 8.41561,0.21093 15.49329,6.89874 15.26671,14.90525 -0.20985,7.41563 -6.84131,13.63345 -14.79346,13.39158 -7.325082,-0.22278 -13.479058,-6.06484 -13.233256,-13.04363 0.224988,-6.388 5.96158,-11.7379 12.823106,-11.48028 6.23455,0.23407 11.46556,5.231 11.1998,11.18204 -0.23939,5.36038 -5.08193,9.84325 -10.85275,9.56897 -5.14403,-0.24448 -9.453293,-4.39728 -9.166341,-9.32044 0.252537,-4.33277 4.202441,-7.95013 8.882391,-7.65766 4.05353,0.25332 7.44328,3.56379 7.13288,7.45884 -0.26339,3.30518 -3.32336,6.06007 -6.91203,5.74634 -2.96307,-0.25904 -5.43819,-2.73099 -5.09942,-5.59723 0.26912,-2.2779 2.44569,-4.17753 4.94167,-3.83504 1.87268,0.25696 3.44731,1.90126 3.06596,3.73563 -0.25985,1.24997 -1.57714,2.32262 -2.97131,1.92374 -0.77936,-0.22299 -0.43476,-1.33184 0.11153,-2.06455"
       inkscape:connector-curvature="0"
       sodipodi:nodetypes="cscccsccccssscssccsccscccscsscccscccsccc" />
    <path
       id="path1008"
       style="fill:none;fill-rule:evenodd;stroke:#000000;stroke-width:0.0356498;stroke-linejoin:round;stroke-miterlimit:4;stroke-dasharray:none"
       d="m 24.778954,290.70271 c -4.062935,-0.13657 -8.041206,-1.52043 -11.244546,-3.93588 -7.9930292,-6.02706 -9.6779008,-17.52744 -3.362642,-25.27928 5.950242,-7.30378 17.282499,-8.83794 24.908883,-3.04116 7.158895,5.44146 8.656613,15.78281 2.945808,22.72971 -5.338178,6.49363 -15.459208,7.84595 -22.243891,2.63575 -6.311494,-4.84683 -7.6189504,-14.01166 -2.521086,-20.14039 4.716017,-5.66967 13.606354,-6.83693 19.534449,-2.22202 5.448595,4.24163 6.562159,12.20974 2.08688,17.50464 -4.081872,4.82944 -11.718857,5.80782 -16.772477,1.79815 -4.56715,-3.6237 -5.482491,-10.37136 -1.640863,-14.81327 3.432993,-3.96942 9.789735,-4.75432 13.946537,-1.36135 3.662777,2.98973 4.374612,8.4885 1.179391,12.05282 -2.765022,3.08444 -7.809019,3.67021 -11.039279,0.90705 -2.728726,-2.33415 -3.230561,-6.54952 -0.696031,-9.20192 2.069856,-2.16612 5.762121,-2.54597 8.021305,-0.42644 1.753549,1.64515 2.038344,4.53822 0.17695,6.22122 -1.326475,1.19934 -3.634701,1.36884 -4.831826,-0.10284 -0.714158,-0.87795 -0.788563,-2.47983 0.424506,-3.01239 0.876431,-0.34588 1.602683,0.089 1.32259,0.74556 -0.280094,0.65659 0.239646,1.28664 1.116042,0.9622 1.210283,-0.54384 1.121037,-2.14786 0.397576,-3.02124 -1.212721,-1.46403 -3.523396,-1.27453 -4.841158,-0.0618 -1.849166,1.7018 -1.537306,4.59746 0.234399,6.23051 2.28257,2.10393 5.977756,1.69191 8.031309,-0.49563 2.514567,-2.67864 1.973144,-6.89704 -0.781756,-9.21195 -3.261245,-2.74039 -8.308615,-2.11056 -11.050109,1.00282 -3.168028,3.59777 -2.404454,9.10001 1.292141,12.06367 4.19518,3.36339 10.555745,2.52288 13.958239,-1.48272 3.807497,-4.48239 2.828593,-11.23396 -1.779767,-14.82497 -5.099219,-3.97351 -12.740472,-2.92826 -16.785071,1.94439 -4.434414,5.34227 -3.245733,13.31472 2.251276,17.51722 5.980769,4.57233 14.875818,3.32718 19.547946,-2.39257 5.050422,-6.18287 3.656518,-15.35246 -2.710446,-20.15384 -6.844313,-5.16135 -16.970489,-3.72031 -22.258289,2.83013 -5.6569099,7.00769 -4.0616109,17.35422 3.159686,22.74403 7.692862,5.74177 19.030698,4.10825 24.924183,-3.25899 6.255021,-7.81919 4.461598,-19.32515 -3.600662,-25.29446 -3.231084,-2.39231 -7.228972,-3.74462 -11.300212,-3.84676"
       inkscape:connector-curvature="0"
       sodipodi:nodetypes="ccscsssssssscsscccczcccccsssssssssssscc" />
    <rect
       style="opacity:1;fill:#000000;fill-opacity:1;stroke:none;stroke-width:0.0507512;stroke-miterlimit:4;stroke-dasharray:none;stroke-dashoffset:0;stroke-opacity:1"
       id="rect1209-0-4"
       width="45.917408"
       height="0.035"
       x="0.32530648"
       y="295.48389" />
    <path
       style="fill:none;stroke:#000000;stroke-width:0.03499763;stroke-linecap:butt;stroke-linejoin:miter;stroke-miterlimit:4;stroke-dasharray:none;stroke-opacity:1"
       d="m 46.046944,290.70351 c 4.497135,-0.0146 4.451492,4.82076 -0.0039,4.79927"
       id="path1842"
       inkscape:connector-curvature="0"
       sodipodi:nodetypes="cc" />
    <g
       transform="translate(-7.8489116,-0.95792926)"
       id="g1851">
      <path
         d="m 3.8151975,251.92636 c 0.013252,0.0229 -0.024318,0.0292 -0.038046,0.022 -0.037201,-0.0193 -0.030052,-0.0717 -0.00601,-0.0981 0.04301,-0.0473 0.1184122,-0.0341 0.1581892,0.01 0.058374,0.0647 0.038427,0.16586 -0.026032,0.21826 -0.085914,0.0699 -0.2135555,0.0429 -0.2783327,-0.0421 -0.081516,-0.10691 -0.047459,-0.26138 0.058071,-0.3384 0.1278104,-0.0933 0.3092761,-0.0521 0.3984763,0.0741 0.1051194,0.14866 0.05668,0.35721 -0.090109,0.45855 -0.1694741,0.11699 -0.4051851,0.0613 -0.51862,-0.10613 -0.1288918,-0.19027 -0.065978,-0.45318 0.1221481,-0.57869 0.2110488,-0.14082 0.5011799,-0.0707 0.6387635,0.13816 0.152744,0.23182 0.075314,0.5492 -0.1541867,0.69884 -0.2525804,0.16469 -0.5972211,0.08 -0.7589072,-0.17021 -0.1766396,-0.27333 -0.084672,-0.64525 0.1862255,-0.81898 0.2940879,-0.1886 0.6932903,-0.0893 0.8790508,0.20225 0.2005619,0.31483 0.094043,0.74133 -0.2182642,0.93912 -0.3355804,0.21253 -0.7893776,0.0987 -0.9991944,-0.23428 -0.2245015,-0.35633 -0.103423,-0.83743 0.2503029,-1.05927 0.3770631,-0.23648 0.8854774,-0.10811 1.119338,0.26632 0.2484529,0.3978 0.1128093,0.93353 -0.2823417,1.17941 -0.3269315,0.20343 -0.7584229,0.16689 -1.0515655,-0.0807"
         sodipodi:t0="0"
         sodipodi:argument="-30.369923"
         sodipodi:radius="0.91440082"
         sodipodi:revolution="5.1999998"
         sodipodi:expansion="1"
         sodipodi:cy="251.92636"
         sodipodi:cx="3.8151975"
         id="path1677"
         style="fill:none;fill-rule:evenodd;stroke:#000000;stroke-width:0.035;stroke-miterlimit:4;stroke-dasharray:none"
         sodipodi:type="spiral" />
      <path
         d="m 3.9485681,254.89413 c 0.013252,0.0229 -0.024318,0.0292 -0.038046,0.022 -0.037202,-0.0193 -0.030052,-0.0717 -0.00601,-0.0981 0.04301,-0.0473 0.1184121,-0.0341 0.1581891,0.01 0.058374,0.0647 0.038427,0.16585 -0.026032,0.21826 -0.085914,0.0699 -0.2135556,0.0429 -0.2783328,-0.0421 -0.081516,-0.10691 -0.047459,-0.26138 0.058071,-0.33841 0.1278104,-0.0933 0.3092762,-0.0521 0.3984764,0.0741 0.1051193,0.14866 0.05668,0.35722 -0.090109,0.45855 -0.1694741,0.11699 -0.4051852,0.0613 -0.51862,-0.10613 -0.1288919,-0.19027 -0.065978,-0.45317 0.122148,-0.57869 0.2110489,-0.14081 0.5011799,-0.0706 0.6387636,0.13817 0.1527439,0.23181 0.075314,0.54919 -0.1541868,0.69883 -0.2525804,0.16469 -0.5972211,0.08 -0.7589071,-0.1702 -0.1766397,-0.27334 -0.084672,-0.64526 0.1862254,-0.81898 0.2940879,-0.1886 0.6932903,-0.0894 0.8790508,0.20224 0.2005619,0.31484 0.094043,0.74133 -0.2182642,0.93912 -0.3355804,0.21253 -0.7893776,0.0987 -0.9991944,-0.23428 -0.2245014,-0.35632 -0.1034229,-0.83743 0.250303,-1.05927 0.3770631,-0.23647 0.8854773,-0.10811 1.1193379,0.26633 0.248453,0.3978 0.1128093,0.93353 -0.2823416,1.17941 -0.3269316,0.20343 -0.758423,0.16688 -1.0515656,-0.0806"
         sodipodi:t0="0"
         sodipodi:argument="-30.369923"
         sodipodi:radius="0.91440082"
         sodipodi:revolution="5.1999998"
         sodipodi:expansion="1"
         sodipodi:cy="254.89413"
         sodipodi:cx="3.9485681"
         id="path1677-3"
         style="fill:none;fill-rule:evenodd;stroke:#000000;stroke-width:0.035;stroke-miterlimit:4;stroke-dasharray:none"
         sodipodi:type="spiral" />
      <path
         d="m 3.7241445,248.85834 c 0.013252,0.0229 -0.024318,0.0292 -0.038046,0.022 -0.037202,-0.0193 -0.030052,-0.0717 -0.00601,-0.0981 0.04301,-0.0473 0.1184122,-0.0341 0.1581892,0.01 0.058374,0.0647 0.038427,0.16585 -0.026032,0.21826 -0.085913,0.0698 -0.2135555,0.0429 -0.2783327,-0.0421 -0.081516,-0.10691 -0.047459,-0.26138 0.05807,-0.33841 0.1278105,-0.0933 0.3092762,-0.052 0.3984764,0.0741 0.1051193,0.14866 0.05668,0.35722 -0.090109,0.45855 -0.1694741,0.11699 -0.4051851,0.0613 -0.51862,-0.10613 -0.1288918,-0.19027 -0.065978,-0.45317 0.1221481,-0.57869 0.2110488,-0.14081 0.5011799,-0.0706 0.6387635,0.13817 0.152744,0.23182 0.075314,0.5492 -0.1541867,0.69883 -0.2525805,0.16469 -0.5972211,0.08 -0.7589072,-0.1702 -0.1766396,-0.27334 -0.084672,-0.64525 0.1862255,-0.81898 0.2940879,-0.1886 0.6932903,-0.0894 0.8790508,0.20224 0.2005619,0.31484 0.094043,0.74134 -0.2182642,0.93913 -0.3355804,0.21253 -0.7893776,0.0987 -0.9991944,-0.23429 -0.2245015,-0.35632 -0.103423,-0.83742 0.2503029,-1.05926 0.3770631,-0.23648 0.8854774,-0.10812 1.119338,0.26632 0.2484529,0.3978 0.1128092,0.93353 -0.2823417,1.17941 -0.3269315,0.20343 -0.7584229,0.16689 -1.0515655,-0.0806"
         sodipodi:t0="0"
         sodipodi:argument="-30.369923"
         sodipodi:radius="0.91440082"
         sodipodi:revolution="5.1999998"
         sodipodi:expansion="1"
         sodipodi:cy="248.85834"
         sodipodi:cx="3.7241445"
         id="path1677-4"
         style="fill:none;fill-rule:evenodd;stroke:#000000;stroke-width:0.035;stroke-miterlimit:4;stroke-dasharray:none"
         sodipodi:type="spiral" />
    </g>
    <circle
       style="opacity:1;fill:#000000;fill-opacity:1;stroke:none;stroke-width:0.0139877;stroke-miterlimit:4;stroke-dasharray:none;stroke-dashoffset:0;stroke-opacity:1"
       id="path877-6-2-4-5"
       cx="-248.36923"
       cy="0.73844433"
       r="1"
       transform="rotate(-91.36644)" />
    <circle
       style="opacity:1;fill:#000000;fill-opacity:1;stroke:none;stroke-width:0.0139877;stroke-miterlimit:4;stroke-dasharray:none;stroke-dashoffset:0;stroke-opacity:1"
       id="path877-6-2-4-0-8"
       cx="-253.14522"
       cy="0.62497944"
       r="1"
       transform="rotate(-91.36644)" />
    <circle
       style="opacity:1;fill:#000000;fill-opacity:1;stroke:none;stroke-width:0.0139877;stroke-miterlimit:4;stroke-dasharray:none;stroke-dashoffset:0;stroke-opacity:1"
       id="path877-6-2-4-00-0"
       cx="-257.83154"
       cy="0.51319516"
       r="1"
       transform="rotate(-91.36644)" />
    <path
       id="rect1209-5"
       style="opacity:1;fill:#000000;fill-opacity:1;stroke:none;stroke-width:0.02510584;stroke-miterlimit:4;stroke-dasharray:none;stroke-dashoffset:0;stroke-opacity:1"
       d="m 13.559835,252.99433 h 11.236584 v 0.035 H 13.559835 Z m -5.9017204,0 h 5.9017204 v 0.035 H 7.6581146 Z"
       inkscape:connector-curvature="0" />
    <g
       id="g3127">
      <path
         sodipodi:nodetypes="cc"
         inkscape:connector-curvature="0"
         id="path894-8-9"
         d="m 6.9076925,258.02891 c 0,0 6.4385995,-1.99959 6.4385995,-4.99958"
         style="fill:none;stroke:#000000;stroke-width:0.035;stroke-linecap:butt;stroke-linejoin:miter;stroke-miterlimit:4;stroke-dasharray:none;stroke-opacity:1" />
      <path
         sodipodi:nodetypes="cc"
         inkscape:connector-curvature="0"
         id="path894-8-9-7"
         d="m 6.9076928,247.99475 c 0,0 6.4385992,1.99959 6.4385992,4.99958"
         style="fill:none;stroke:#000000;stroke-width:0.035;stroke-linecap:butt;stroke-linejoin:miter;stroke-miterlimit:4;stroke-dasharray:none;stroke-opacity:1" />
    </g>
  </g>
</svg>
