<?xml version="1.0" encoding="UTF-8" standalone="no"?>
<!-- Created with Inkscape (http://www.inkscape.org/) -->

<svg
   xmlns:dc="http://purl.org/dc/elements/1.1/"
   xmlns:cc="http://creativecommons.org/ns#"
   xmlns:rdf="http://www.w3.org/1999/02/22-rdf-syntax-ns#"
   xmlns:svg="http://www.w3.org/2000/svg"
   xmlns="http://www.w3.org/2000/svg"
   xmlns:sodipodi="http://sodipodi.sourceforge.net/DTD/sodipodi-0.dtd"
   xmlns:inkscape="http://www.inkscape.org/namespaces/inkscape"
   width="110mm"
   height="75mm"
   viewBox="0 0 110 75"
   version="1.1"
   id="svg1468"
   inkscape:version="0.92.4 (5da689c313, 2019-01-14)"
   sodipodi:docname="Combine.svg">
  <defs
     id="defs1462">
    <inkscape:path-effect
       effect="spiro"
       id="path-effect1065"
       is_visible="true" />
    <inkscape:path-effect
       effect="bspline"
       id="path-effect1061"
       is_visible="true"
       weight="33.333333"
       steps="2"
       helper_size="0"
       apply_no_weight="true"
       apply_with_weight="true"
       only_selected="false" />
    <inkscape:path-effect
       effect="spiro"
       id="path-effect1053"
       is_visible="true" />
    <inkscape:path-effect
       effect="spiro"
       id="path-effect1049"
       is_visible="true" />
    <inkscape:path-effect
       effect="spiro"
       id="path-effect1045"
       is_visible="true" />
    <inkscape:path-effect
       effect="bspline"
       id="path-effect1041"
       is_visible="true"
       weight="33.333333"
       steps="2"
       helper_size="0"
       apply_no_weight="true"
       apply_with_weight="true"
       only_selected="false" />
  </defs>
  <sodipodi:namedview
     id="base"
     pagecolor="#ffffff"
     bordercolor="#666666"
     borderopacity="1.0"
     inkscape:pageopacity="0.0"
     inkscape:pageshadow="2"
     inkscape:zoom="5.6568543"
     inkscape:cx="63.482403"
     inkscape:cy="223.67382"
     inkscape:document-units="mm"
     inkscape:current-layer="layer1"
     showgrid="false"
     inkscape:window-width="1366"
     inkscape:window-height="705"
     inkscape:window-x="-8"
     inkscape:window-y="-8"
     inkscape:window-maximized="1" />
  <metadata
     id="metadata1465">
    <rdf:RDF>
      <cc:Work
         rdf:about="">
        <dc:format>image/svg+xml</dc:format>
        <dc:type
           rdf:resource="http://purl.org/dc/dcmitype/StillImage" />
        <dc:title></dc:title>
      </cc:Work>
    </rdf:RDF>
  </metadata>
  <g
     inkscape:label="Layer 1"
     inkscape:groupmode="layer"
     id="layer1"
     transform="translate(0,-222)">
    <path
       style="fill:none;stroke:#000000;stroke-width:0.035;stroke-linecap:butt;stroke-linejoin:miter;stroke-miterlimit:4;stroke-dasharray:none;stroke-opacity:1"
       d="m 94.526548,288.46412 c 0.64462,-0.003 0.95468,5.2e-4 1.33315,-0.011 0.403521,-0.0123 0.907603,-0.0829 1.204348,-0.29699 0.296746,-0.21411 0.606967,-0.52212 0.766359,-1.16851 0.159391,-0.6464 0.156259,-1.59025 0.14783,-2.89495 -0.03384,-5.23838 0.0071,-19.04606 0.0071,-19.04606 0,0 0.0457,-0.78722 -0.306725,-1.40805 -0.352426,-0.62083 -1.085439,-1.15857 -2.314144,-1.15443 -2.457405,0.008 -16.974318,-0.002 -16.974318,-0.002 0,0 -1.79125,-0.0719 -1.784297,2.86392"
       id="path836"
       inkscape:connector-curvature="0"
       sodipodi:nodetypes="csssscsccc" />
    <path
       style="fill:none;stroke:#000000;stroke-width:0.035;stroke-linecap:butt;stroke-linejoin:miter;stroke-opacity:1;stroke-miterlimit:4;stroke-dasharray:none"
       d="m 57.531196,283.30227 c 6.513411,-0.35175 12.762098,-4.14934 16.207839,-9.85019 1.486333,-2.45907 2.469431,-5.23882 2.86682,-8.10602"
       id="path834" />
    <path
       style="fill:none;stroke:#000000;stroke-width:0.035;stroke-linecap:butt;stroke-linejoin:miter;stroke-opacity:1;stroke-miterlimit:4;stroke-dasharray:none"
       d="m 55.463793,262.75317 c -0.123365,-0.41791 -0.69042,-0.69821 -1.235104,-0.29314 -0.760607,0.59624 -0.373993,1.7501 0.284668,2.24579 1.17814,0.88667 2.831064,0.26533 3.543803,-0.90258 1.045962,-1.71388 0.159861,-3.91705 -1.526451,-4.82738 -2.247594,-1.21332 -5.026153,-0.0582 -6.130482,2.14096 -1.389684,2.76743 0.04509,6.11712 2.768235,7.40897 3.29808,1.56461 7.235741,-0.14383 8.717161,-3.37934 1.7458,-3.81295 -0.247087,-8.32501 -4.010009,-9.99056 -4.344442,-1.92294 -9.450123,0.34401 -11.303851,4.61773 -2.106328,4.85605 0.44788,10.53602 5.251793,12.57214 5.389264,2.28423 11.666663,-0.54336 13.89053,-5.8561 2.46893,-5.89815 -0.648072,-12.7486 -6.493576,-15.15374 -6.433361,-2.647 -13.884372,0.74227 -16.47721,7.09449 -2.832643,6.93969 0.847913,14.96208 7.735361,17.73533 7.477056,3.01064 16.102795,-0.94092 19.063888,-8.33287 3.197045,-7.98094 -1.047551,-17.17613 -8.977136,-20.31692 -8.520501,-3.37484 -18.321674,1.1394 -21.650575,9.57124 -3.561897,9.02198 1.24706,19.39057 10.218919,22.89851 9.563782,3.73939 20.540871,-1.33776 24.237255,-10.80963 3.92705,-10.06289 -1.44646,-21.60523 -11.460703,-25.48009 -1.998203,-0.77318 -4.028668,-1.22387 -6.168356,-1.34057"
       id="path832" />
    <path
       style="fill:none;stroke:#000000;stroke-width:0.035;stroke-linecap:butt;stroke-linejoin:miter;stroke-opacity:1;stroke-miterlimit:4;stroke-dasharray:none"
       d="m 55.449296,262.71005 c 0.140254,0.48811 1.018206,0.34317 1.063332,-0.41556 0.04064,-0.68325 -0.821131,-1.50857 -1.957912,-1.48288 -1.511782,0.0851 -2.484045,1.53129 -2.345274,2.93087 0.203654,2.05394 2.293305,3.31603 4.238531,3.02184 2.592681,-0.39211 4.154592,-3.0576 3.698423,-5.54619 -0.574037,-3.13163 -3.822892,-4.99642 -6.853852,-4.37499 -3.670895,0.75263 -5.84016,4.58873 -5.051573,8.16151 0.92932,4.2104 5.354906,6.68507 9.469174,5.72815 4.750094,-1.10481 7.530771,-6.1213 6.404723,-10.77685 -1.279481,-5.2899 -6.887848,-8.37702 -12.084492,-7.08129 -5.829852,1.4536 -9.223687,7.65453 -7.757885,13.39216 1.627328,6.36986 8.42129,10.07065 14.699825,8.43445 6.909937,-1.80073 10.91784,-9.18812 9.111032,-16.00748 -1.97391,-7.45006 -9.955006,-11.76521 -17.315143,-9.78761 -7.990237,2.14691 -12.61273,10.72193 -10.464186,18.62281 2.319742,8.53043 11.488893,13.46036 19.930475,11.14077 9.070655,-2.49248 14.308098,-12.25589 11.817328,-21.23814 -2.665089,-9.61091 -13.022893,-15.15593 -22.545799,-12.49392 -10.151171,2.83764 -16.003792,13.78994 -13.170477,23.85347 0.752526,2.67286 2.040994,5.05977 3.716089,7.08969 1.675096,2.02992 3.736819,3.70286 6.035856,4.9478 2.299036,1.24493 4.835385,2.06187 7.459736,2.37977 1.312175,0.15895 2.646349,0.19315 3.983859,0.0937"
       id="path830" />
    <path
       style="fill:none;stroke:#000000;stroke-width:0.035;stroke-linecap:butt;stroke-linejoin:miter;stroke-miterlimit:4;stroke-dasharray:none;stroke-opacity:1"
       d="m 9,288.411 85.526548,0.0531"
       id="path828"
       inkscape:connector-curvature="0"
       sodipodi:nodetypes="cc" />
    <path
       style="fill:none;stroke:#000000;stroke-width:0.035;stroke-linecap:butt;stroke-linejoin:miter;stroke-miterlimit:4;stroke-dasharray:none;stroke-opacity:1"
       d="m 9,242.35941 46.741953,-0.004"
       id="path826"
       inkscape:connector-curvature="0"
       sodipodi:nodetypes="cc" />
    <path
       inkscape:connector-curvature="0"
       style="fill:none;stroke:#000000;stroke-width:0.03801592;stroke-linecap:butt;stroke-linejoin:miter;stroke-miterlimit:4;stroke-dasharray:none;stroke-opacity:1"
       d="M 9.1672524,253.55409 20.316233,242.35318"
       id="path1067-8" />
    <path
       inkscape:connector-curvature="0"
       style="fill:none;stroke:#000000;stroke-width:0.03801592;stroke-linecap:butt;stroke-linejoin:miter;stroke-miterlimit:4;stroke-dasharray:none;stroke-opacity:1"
       d="m 9.173,231.17292 11.14947,11.20091"
       id="path1067-8-0"
       sodipodi:nodetypes="cc" />
  </g>
</svg>
