<?xml version="1.0" encoding="UTF-8" standalone="no"?>
<!-- Created with Inkscape (http://www.inkscape.org/) -->

<svg
   xmlns:dc="http://purl.org/dc/elements/1.1/"
   xmlns:cc="http://creativecommons.org/ns#"
   xmlns:rdf="http://www.w3.org/1999/02/22-rdf-syntax-ns#"
   xmlns:svg="http://www.w3.org/2000/svg"
   xmlns="http://www.w3.org/2000/svg"
   xmlns:sodipodi="http://sodipodi.sourceforge.net/DTD/sodipodi-0.dtd"
   xmlns:inkscape="http://www.inkscape.org/namespaces/inkscape"
   width="100mm"
   height="60mm"
   viewBox="0 0 100 60"
   version="1.1"
   id="svg8"
   inkscape:version="0.92.4 (5da689c313, 2019-01-14)"
   sodipodi:docname="Main_Combine.svg">
  <defs
     id="defs2" />
  <sodipodi:namedview
     id="base"
     pagecolor="#ffffff"
     bordercolor="#666666"
     borderopacity="1.0"
     inkscape:pageopacity="0.0"
     inkscape:pageshadow="2"
     inkscape:zoom="2"
     inkscape:cx="282.3954"
     inkscape:cy="149.19907"
     inkscape:document-units="mm"
     inkscape:current-layer="layer1"
     showgrid="false"
     inkscape:window-width="1366"
     inkscape:window-height="705"
     inkscape:window-x="-8"
     inkscape:window-y="-8"
     inkscape:window-maximized="1">
    <inkscape:grid
       type="xygrid"
       id="grid861" />
  </sodipodi:namedview>
  <metadata
     id="metadata5">
    <rdf:RDF>
      <cc:Work
         rdf:about="">
        <dc:format>image/svg+xml</dc:format>
        <dc:type
           rdf:resource="http://purl.org/dc/dcmitype/StillImage" />
        <dc:title />
      </cc:Work>
    </rdf:RDF>
  </metadata>
  <g
     inkscape:label="Layer 1"
     inkscape:groupmode="layer"
     id="layer1"
     transform="translate(0,-237)">
    <rect
       style="opacity:1;fill:#000000;fill-opacity:1;stroke:#000000;stroke-width:0.00731438;stroke-miterlimit:4;stroke-dasharray:none;stroke-dashoffset:0;stroke-opacity:1"
       id="rect815"
       width="39.992683"
       height="0.37318888"
       x="0.10636096"
       y="237.05255" />
    <path
       id="path1008"
       style="fill:none;fill-rule:evenodd;stroke:#000000;stroke-width:0.0356498;stroke-linejoin:round;stroke-miterlimit:4;stroke-dasharray:none"
       d="m 71.761469,285.68023 c -4.062935,-0.13657 -8.041206,-1.52043 -11.244546,-3.93588 -7.993029,-6.02706 -9.677901,-17.52744 -3.362642,-25.27928 5.950242,-7.30378 17.282499,-8.83794 24.908883,-3.04116 7.1589,5.44146 8.65661,15.78281 2.94581,22.72971 -5.33818,6.49363 -15.45921,7.84595 -22.243893,2.63575 -6.311494,-4.84683 -7.61895,-14.01166 -2.521086,-20.14039 4.716017,-5.66967 13.606354,-6.83693 19.534449,-2.22202 5.44859,4.24163 6.56216,12.20974 2.08688,17.50464 -4.081872,4.82944 -11.718857,5.80782 -16.772477,1.79815 -4.56715,-3.6237 -5.482491,-10.37136 -1.640863,-14.81327 3.432993,-3.96942 9.789735,-4.75432 13.946537,-1.36135 3.662773,2.98973 4.374613,8.4885 1.179391,12.05282 -2.765022,3.08444 -7.809019,3.67021 -11.039279,0.90705 -2.728726,-2.33415 -3.230561,-6.54952 -0.696031,-9.20192 2.069856,-2.16612 5.762121,-2.54597 8.021305,-0.42644 1.753549,1.64515 2.038344,4.53822 0.17695,6.22122 -1.326475,1.19934 -3.634701,1.36884 -4.831826,-0.10284 -0.714158,-0.87795 -0.522902,-2.47983 0.424506,-3.01239 1.05935,-0.54711 1.825941,-0.17384 1.32259,0.74556 -0.503351,0.9194 0.181289,1.37163 1.116042,0.9622 1.210283,-0.54384 1.121037,-2.14786 0.397576,-3.02124 -1.212721,-1.46403 -3.523396,-1.27453 -4.841158,-0.0618 -1.849166,1.7018 -1.537306,4.59746 0.234399,6.23051 2.28257,2.10393 5.977756,1.69191 8.031309,-0.49563 2.514567,-2.67864 1.973144,-6.89704 -0.781756,-9.21195 -3.261245,-2.74039 -8.308615,-2.11056 -11.050109,1.00282 -3.168028,3.59777 -2.404454,9.10001 1.292141,12.06367 4.19518,3.36339 10.555745,2.52288 13.958239,-1.48272 3.807494,-4.48239 2.828594,-11.23396 -1.779767,-14.82497 -5.099219,-3.97351 -12.740472,-2.92826 -16.785071,1.94439 -4.434414,5.34227 -3.245733,13.31472 2.251276,17.51722 5.980769,4.57233 14.875818,3.32718 19.547946,-2.39257 5.05042,-6.18287 3.65652,-15.35246 -2.71044,-20.15384 -6.844319,-5.16135 -16.970495,-3.72031 -22.258295,2.83013 -5.65691,7.00769 -4.061611,17.35422 3.159686,22.74403 7.692862,5.74177 19.030699,4.10825 24.924189,-3.25899 6.25501,-7.81919 4.46159,-19.32515 -3.60067,-25.29446 -3.231081,-2.39231 -7.22897,-3.74462 -11.30021,-3.84676"
       inkscape:connector-curvature="0"
       sodipodi:nodetypes="ccscsssssssscsscccczcccccsssssssssssscc" />
    <rect
       style="opacity:1;fill:#000000;fill-opacity:1;stroke:#000000;stroke-width:0.00936527;stroke-miterlimit:4;stroke-dasharray:none;stroke-dashoffset:0;stroke-opacity:1"
       id="rect815-7"
       width="59.760094"
       height="0.40943322"
       x="237.05255"
       y="-40.099045"
       transform="rotate(90)" />
    <path
       id="rect1209-5"
       style="opacity:1;fill:#000000;fill-opacity:1;stroke:none;stroke-width:0.0506437;stroke-miterlimit:4;stroke-dasharray:none;stroke-dashoffset:0;stroke-opacity:1"
       d="m 26.063451,247.97242 h 45.723103 v 0.035 H 26.063451 Z m -24.0148614,0 H 26.063451 v 0.035 H 2.0485896 Z"
       inkscape:connector-curvature="0" />
    <rect
       style="opacity:1;fill:#000000;fill-opacity:1;stroke:#000000;stroke-width:0.02609291;stroke-miterlimit:4;stroke-dasharray:none;stroke-dashoffset:0;stroke-opacity:1"
       id="rect844"
       width="7.4344072"
       height="0.015645251"
       x="167.92023"
       y="171.65172"
       transform="matrix(0.71300233,0.70116166,-0.68517138,0.72838189,0,0)" />
    <rect
       style="opacity:1;fill:#000000;fill-opacity:1;stroke:#000000;stroke-width:0.02609291;stroke-miterlimit:4;stroke-dasharray:none;stroke-dashoffset:0;stroke-opacity:1"
       id="rect844-1"
       width="7.4344072"
       height="0.015645251"
       x="-171.99698"
       y="-182.07298"
       transform="matrix(0.71300234,-0.70116165,-0.68517138,-0.72838189,0,0)" />
    <path
       style="fill:none;stroke:#000000;stroke-width:0.035;stroke-linecap:butt;stroke-linejoin:miter;stroke-miterlimit:4;stroke-dasharray:none;stroke-opacity:1"
       d="m 88.607207,278.55707 c 2.609151,-3.66289 6.511773,-0.80766 3.897624,2.80028"
       id="path899"
       inkscape:connector-curvature="0" />
    <path
       style="fill:none;stroke:#000000;stroke-width:0.03068232;stroke-linecap:butt;stroke-linejoin:miter;stroke-miterlimit:4;stroke-dasharray:none;stroke-opacity:1"
       d="m 0.02789301,290.74829 75.90752299,9.2e-4 z"
       id="path1842"
       inkscape:connector-curvature="0" />
    <path
       style="fill:none;stroke:#000000;stroke-width:0.26458332px;stroke-linecap:butt;stroke-linejoin:miter;stroke-opacity:1"
       d="m 92.50483,281.35735 c -4.975368,5.6888 -11.205725,9.10292 -16.569414,9.39186"
       id="path1445"
       inkscape:connector-curvature="0"
       sodipodi:nodetypes="cc" />
    <path
       sodipodi:type="spiral"
       style="fill:none;fill-rule:evenodd;stroke:#000000;stroke-width:0.26458332"
       id="path1481"
       sodipodi:cx="123.47852"
       sodipodi:cy="-272.89536"
       sodipodi:expansion="1"
       sodipodi:revolution="5.0249848"
       sodipodi:radius="18.990614"
       sodipodi:argument="-29.840179"
       sodipodi:t0="0"
       d="m 123.47852,-272.89536 c -0.003,0.56845 -0.76764,0.27666 -0.94479,-0.005 -0.48008,-0.76241 0.22099,-1.65554 0.95415,-1.88492 1.31145,-0.41031 2.56627,0.65376 2.82504,1.90363 0.37975,1.83423 -1.08853,3.49327 -2.85311,3.76516 -2.3519,0.36238 -4.42655,-1.52349 -4.70528,-3.80258 -0.35074,-2.86801 1.95843,-5.36297 4.75206,-5.6454 3.38346,-0.34207 6.30116,2.39331 6.58552,5.70153 0.33511,3.89861 -2.82818,7.24047 -6.65101,7.52564 -4.4136,0.32924 -8.18052,-3.26303 -8.46576,-7.60048 -0.3241,-4.92849 3.69786,-9.1211 8.54996,-9.40588 5.44332,-0.31949 10.06205,4.13268 10.346,9.49943 0.31524,5.9581 -4.56751,11.00329 -10.44891,11.28612 -6.47286,0.31127 -11.94475,-5.00232 -12.22624,-11.39838 -0.30752,-6.98761 5.43714,-12.88639 12.34786,-13.16637 7.50233,-0.30394 13.82816,5.87195 14.10648,13.29734 0.3005,8.01704 -6.30676,14.77004 -14.24681,15.0466 -8.53174,0.29717 -15.71202,-6.74157 -15.98672,-15.19628 -0.29393,-9.04645 7.17638,-16.65407 16.14576,-16.92685 9.56114,-0.29077 17.59619,7.61119 17.86696,17.09524 0.28768,10.07583 -8.04599,18.53836 -18.04471,18.80708 -0.99143,0.0267 -1.98489,-0.025 -2.96827,-0.15379"
       transform="matrix(0.98543289,0,0,-1.0000537,1.8634312,-0.01461689)" />
    <path
       sodipodi:type="spiral"
       style="fill:none;fill-rule:evenodd;stroke:#000000;stroke-width:0.26458332"
       id="path1481-0"
       sodipodi:cx="165.76056"
       sodipodi:cy="272.11722"
       sodipodi:expansion="1"
       sodipodi:revolution="5.0543447"
       sodipodi:radius="19.101583"
       sodipodi:argument="-29.840179"
       sodipodi:t0="0"
       d="m 165.76056,272.11722 c -0.003,0.56845 -0.76765,0.27666 -0.9448,-0.005 -0.48007,-0.7624 0.22099,-1.65554 0.95415,-1.88492 1.31146,-0.41031 2.56627,0.65376 2.82504,1.90363 0.37976,1.83423 -1.08852,3.49327 -2.8531,3.76516 -2.35191,0.36239 -4.42656,-1.52349 -4.70528,-3.80258 -0.35075,-2.86801 1.95842,-5.36297 4.75205,-5.6454 3.38347,-0.34207 6.30117,2.39332 6.58553,5.70153 0.33511,3.89862 -2.82819,7.24047 -6.65101,7.52565 -4.4136,0.32924 -8.18053,-3.26303 -8.46577,-7.60049 -0.3241,-4.92849 3.69787,-9.1211 8.54996,-9.40589 5.44332,-0.31948 10.06207,4.13269 10.34601,9.49944 0.31524,5.95811 -4.56751,11.0033 -10.44891,11.28613 -6.47287,0.31127 -11.94477,-5.00232 -12.22625,-11.39839 -0.30752,-6.98761 5.43714,-12.8864 12.34786,-13.16637 7.50234,-0.30394 13.82817,5.87195 14.1065,13.29734 0.3005,8.01705 -6.30677,14.77005 -14.24682,15.04661 -8.53175,0.29717 -15.71203,-6.74157 -15.98674,-15.19629 -0.29393,-9.04645 7.17639,-16.65408 16.14577,-16.92686 9.56115,-0.29077 17.5962,7.6112 17.86698,17.09525 0.28767,10.07584 -8.046,18.53837 -18.04472,18.8071 -2.16358,0.0582 -4.33408,-0.25869 -6.39185,-0.92906"
       transform="matrix(-0.83736451,0.54869871,0.54661775,0.84055232,113.53641,-46.856382)" />
    <ellipse
       style="opacity:1;fill:#000000;fill-opacity:1;stroke:#000000;stroke-width:0.035;stroke-miterlimit:4;stroke-dasharray:none;stroke-dashoffset:0;stroke-opacity:1"
       id="path1498"
       cx="88.773567"
       cy="285.07309"
       rx="2.6192415"
       ry="2.5724692" />
  </g>
</svg>
