  0
SECTION
  2
HEADER
  9
$ACADVER
  1
AC1014
  9
$HANDSEED
  5
FFFF
  9
$MEASUREMENT
 70
     1
  0
ENDSEC
  0
SECTION
  2
TABLES
  0
TABLE
  2
VPORT
  5
8
330
0
100
AcDbSymbolTable
 70
     4
  0
VPORT
  5
2E
330
8
100
AcDbSymbolTableRecord
100
AcDbViewportTableRecord
  2
*ACTIVE
 70
     0
 10
0.0
 20
0.0
 11
1.0
 21
1.0
 12
210.0
 22
148.5
 13
0.0
 23
0.0
 14
10.0
 24
10.0
 15
10.0
 25
10.0
 16
0.0
 26
0.0
 36
1.0
 17
0.0
 27
0.0
 37
0.0
 40
341.0
 41
1.24
 42
50.0
 43
0.0
 44
0.0
 50
0.0
 51
0.0
 71
     0
 72
   100
 73
     1
 74
     3
 75
     0
 76
     0
 77
     0
 78
     0
  0
ENDTAB
  0
TABLE
  2
LTYPE
  5
5
330
0
100
AcDbSymbolTable
 70
     1
  0
LTYPE
  5
14
330
5
100
AcDbSymbolTableRecord
100
AcDbLinetypeTableRecord
  2
BYBLOCK
 70
     0
  3

 72
    65
 73
     0
 40
0.0
  0
LTYPE
  5
15
330
5
100
AcDbSymbolTableRecord
100
AcDbLinetypeTableRecord
  2
BYLAYER
 70
     0
  3

 72
    65
 73
     0
 40
0.0
  0
LTYPE
  5
16
330
5
100
AcDbSymbolTableRecord
100
AcDbLinetypeTableRecord
  2
CONTINUOUS
 70
     0
  3
Solid line
 72
    65
 73
     0
 40
0.0
  0
ENDTAB
  0
TABLE
  2
LAYER
  5
2
100
AcDbSymbolTable
 70
2
  0
LAYER
  5
50
100
AcDbSymbolTableRecord
100
AcDbLayerTableRecord
  2
0
 70
0
  6
CONTINUOUS
  0
LAYER
  5
51
100
AcDbSymbolTableRecord
100
AcDbLayerTableRecord
  2
Layer_1
 70
0
  6
CONTINUOUS
  0
ENDTAB
  0
TABLE
  2
STYLE
  5
3
330
0
100
AcDbSymbolTable
 70
     1
  0
STYLE
  5
11
330
3
100
AcDbSymbolTableRecord
100
AcDbTextStyleTableRecord
  2
STANDARD
 70
     0
 40
0.0
 41
1.0
 50
0.0
 71
     0
 42
2.5
  3
txt
  4

  0
ENDTAB
  0
TABLE
  2
VIEW
  5
6
330
0
100
AcDbSymbolTable
 70
     0
  0
ENDTAB
  0
TABLE
  2
UCS
  5
7
330
0
100
AcDbSymbolTable
 70
     0
  0
ENDTAB
  0
TABLE
  2
APPID
  5
9
330
0
100
AcDbSymbolTable
 70
     2
  0
APPID
  5
12
330
9
100
AcDbSymbolTableRecord
100
AcDbRegAppTableRecord
  2
ACAD
 70
     0
  0
ENDTAB
  0
TABLE
  2
DIMSTYLE
  5
A
330
0
100
AcDbSymbolTable
 70
     1
  0
DIMSTYLE
105
27
330
A
100
AcDbSymbolTableRecord
100
AcDbDimStyleTableRecord
  2
ISO-25
 70
     0
  3

  4

  5

  6

  7

 40
1.0
 41
2.5
 42
0.625
 43
3.75
 44
1.25
 45
0.0
 46
0.0
 47
0.0
 48
0.0
140
2.5
141
2.5
142
0.0
143
0.03937007874016
144
1.0
145
0.0
146
1.0
147
0.625
 71
     0
 72
     0
 73
     0
 74
     0
 75
     0
 76
     0
 77
     1
 78
     8
170
     0
171
     3
172
     1
173
     0
174
     0
175
     0
176
     0
177
     0
178
     0
270
     2
271
     2
272
     2
273
     2
274
     3
340
11
275
     0
280
     0
281
     0
282
     0
283
     0
284
     8
285
     0
286
     0
287
     3
288
     0
  0
ENDTAB
  0
TABLE
  2
BLOCK_RECORD
  5
1
330
0
100
AcDbSymbolTable
 70
     1
  0
BLOCK_RECORD
  5
1F
330
1
100
AcDbSymbolTableRecord
100
AcDbBlockTableRecord
  2
*MODEL_SPACE
  0
BLOCK_RECORD
  5
1B
330
1
100
AcDbSymbolTableRecord
100
AcDbBlockTableRecord
  2
*PAPER_SPACE
  0
ENDTAB
  0
ENDSEC
  0
SECTION
  2
BLOCKS
  0
BLOCK
  5
20
330
1F
100
AcDbEntity
  8
0
100
AcDbBlockBegin
  2
*MODEL_SPACE
 70
     0
 10
0.0
 20
0.0
 30
0.0
  3
*MODEL_SPACE
  1

  0
ENDBLK
  5
21
330
1F
100
AcDbEntity
  8
0
100
AcDbBlockEnd
  0
BLOCK
  5
1C
330
1B
100
AcDbEntity
 67
     1
  8
0
100
AcDbBlockBegin
  2
*PAPER_SPACE
  1

  0
ENDBLK
  5
1D
330
1B
100
AcDbEntity
 67
     1
  8
0
100
AcDbBlockEnd
  0
ENDSEC
  0
SECTION
  2
ENTITIES
  0
LWPOLYLINE
  5
100
100
AcDbEntity
  8
Layer_1
 62
7
100
AcDbPolyline
 90
2
 70
0
 10
10.060202
 20
44.335780
 30
0.0
 10
20.322649
 20
54.650140
 30
0.0
  0
LWPOLYLINE
  5
101
100
AcDbEntity
  8
Layer_1
 62
7
100
AcDbPolyline
 90
2
 70
0
 10
10.060202
 20
64.955840
 30
0.0
 10
20.322470
 20
54.626170
 30
0.0
  0
LWPOLYLINE
  5
102
100
AcDbEntity
  8
Layer_1
 62
7
100
AcDbPolyline
 90
2
 70
0
 10
10.060043
 20
54.640590
 30
0.0
 10
55.741953
 20
54.644590
 30
0.0
  0
SPLINE
  5
103
100
AcDbEntity
  8
Layer_1
 62
7
100
AcDbSpline
 70
0
 71
3
 72
10
 73
6
 74
4
 40
0.000000
 40
0.000000
 40
0.000000
 40
0.000000
 40
0.433873
 40
0.901035
 40
1.471005
 40
1.471005
 40
1.471005
 40
1.471005
 10
55.463793
 20
34.246830
 30
0.0
 10
55.392939
 20
34.377772
 30
0.0
 10
55.245795
 20
34.649702
 30
0.0
 10
54.713806
 20
34.804454
 30
0.0
 10
54.400739
 20
34.633771
 30
0.0
 10
54.228689
 20
34.539970
 30
0.0
 11
55.463793
 21
34.246830
 31
0.0
 11
55.209793
 21
34.598583
 31
0.0
 11
54.763568
 21
34.736871
 31
0.0
 11
54.228689
 21
34.539970
 31
0.0
  0
SPLINE
  5
104
100
AcDbEntity
  8
Layer_1
 62
7
100
AcDbSpline
 70
0
 71
3
 72
67
 73
63
 74
61
 40
0.000000
 40
0.000000
 40
0.000000
 40
0.000000
 40
0.843740
 40
1.697468
 40
2.555255
 40
3.906075
 40
5.244897
 40
6.605359
 40
8.469931
 40
10.309170
 40
12.186469
 40
14.576625
 40
16.928029
 40
19.325164
 40
22.233101
 40
25.092784
 40
28.014721
 40
31.453719
 40
34.830916
 40
38.275002
 40
42.231308
 40
46.117976
 40
50.089828
 40
54.580614
 40
58.987347
 40
63.481465
 40
68.488029
 40
73.404036
 40
78.427767
 40
83.971614
 40
89.409460
 40
94.954927
 40
101.012679
 40
106.959143
 40
113.035698
 40
119.633276
 40
126.103052
 40
132.700565
 40
139.810007
 40
146.787544
 40
153.917449
 40
161.569155
 40
169.071338
 40
176.721294
 40
184.882750
 40
192.891735
 40
201.075300
 40
209.781386
 40
218.316282
 40
227.018939
 40
236.232615
 40
245.273304
 40
254.510739
 40
264.271375
 40
273.839188
 40
283.594728
 40
293.860760
 40
303.933310
 40
314.224772
 40
316.343719
 40
318.442447
 40
320.560840
 40
320.560840
 40
320.560840
 40
320.560840
 10
54.228689
 20
34.539970
 30
0.0
 10
54.048704
 20
34.304974
 30
0.0
 10
53.686605
 20
33.832199
 30
0.0
 10
53.929569
 20
32.924964
 30
0.0
 10
54.570302
 20
32.109700
 30
0.0
 10
55.804612
 20
31.732021
 30
0.0
 10
57.145562
 20
32.159459
 30
0.0
 10
58.278848
 20
33.256053
 30
0.0
 10
58.684780
 20
35.018520
 30
0.0
 10
58.027471
 20
36.844287
 30
0.0
 10
56.479075
 20
38.285341
 30
0.0
 10
54.172429
 20
38.723781
 30
0.0
 10
51.855715
 20
37.837961
 30
0.0
 10
50.096929
 20
35.846576
 30
0.0
 10
49.623135
 20
32.997464
 30
0.0
 10
50.747599
 20
30.195296
 30
0.0
 10
53.193214
 20
28.127049
 30
0.0
 10
56.591512
 20
27.620005
 30
0.0
 10
59.888164
 20
28.973116
 30
0.0
 10
62.277447
 20
31.860439
 30
0.0
 10
62.820137
 20
35.802052
 30
0.0
 10
61.225129
 20
39.583694
 30
0.0
 10
57.881100
 20
42.281183
 30
0.0
 10
53.388268
 20
42.857426
 30
0.0
 10
49.109774
 20
41.035190
 30
0.0
 10
46.088933
 20
37.251080
 30
0.0
 10
45.476978
 20
32.215318
 30
0.0
 10
47.543645
 20
27.452965
 30
0.0
 10
51.786672
 20
24.125590
 30
0.0
 10
57.375092
 20
23.479901
 30
0.0
 10
62.636271
 20
25.771983
 30
0.0
 10
66.289105
 20
30.453297
 30
0.0
 10
66.970481
 20
36.583925
 30
0.0
 10
64.431660
 20
42.327603
 30
0.0
 10
59.289323
 20
46.285173
 30
0.0
 10
52.604800
 20
47.000395
 30
0.0
 10
46.360485
 20
44.238123
 30
0.0
 10
42.075445
 20
38.659359
 30
0.0
 10
41.324578
 20
31.433498
 30
0.0
 10
44.335794
 20
24.708146
 30
0.0
 10
50.377638
 20
20.120224
 30
0.0
 10
58.158547
 20
19.335409
 30
0.0
 10
65.386269
 20
22.568061
 30
0.0
 10
70.303636
 20
29.044428
 30
0.0
 10
71.124040
 20
37.365739
 30
0.0
 10
67.640279
 20
45.072981
 30
0.0
 10
60.698810
 20
50.291345
 30
0.0
 10
51.821344
 20
51.145799
 30
0.0
 10
43.610042
 20
47.442643
 30
0.0
 10
38.060258
 20
40.068582
 30
0.0
 10
37.170290
 20
30.651675
 30
0.0
 10
41.126700
 20
21.962400
 30
0.0
 10
48.967862
 20
16.113534
 30
0.0
 10
58.942081
 20
15.189423
 30
0.0
 10
68.136782
 20
19.363177
 30
0.0
 10
74.320190
 20
27.634930
 30
0.0
 10
75.275154
 20
38.147854
 30
0.0
 10
70.863167
 20
47.818004
 30
0.0
 10
64.512526
 20
52.493703
 30
0.0
 10
59.914770
 20
53.999234
 30
0.0
 10
57.848260
 20
54.465905
 30
0.0
 10
56.446235
 20
54.584843
 30
0.0
 10
55.741953
 20
54.644590
 30
0.0
 11
54.228689
 21
34.539970
 31
0.0
 11
53.818075
 21
33.802886
 31
0.0
 11
53.977792
 21
32.964231
 31
0.0
 11
54.513357
 21
32.294180
 31
0.0
 11
55.797352
 21
31.874571
 31
0.0
 11
57.083432
 21
32.246649
 31
0.0
 11
58.057160
 21
33.196760
 31
0.0
 11
58.501021
 21
35.007732
 31
0.0
 11
57.908364
 21
36.748868
 31
0.0
 11
56.530709
 21
38.024140
 31
0.0
 11
54.187801
 21
38.497032
 31
0.0
 11
51.980959
 21
37.685275
 31
0.0
 11
50.400227
 21
35.883180
 31
0.0
 11
49.895137
 21
33.019445
 31
0.0
 11
50.931666
 21
30.354225
 31
0.0
 11
53.168462
 21
28.474210
 31
0.0
 11
56.565076
 21
27.935951
 31
0.0
 11
59.700116
 21
29.191729
 31
0.0
 11
61.885623
 21
31.853550
 31
0.0
 11
62.458107
 21
35.768217
 31
0.0
 11
60.975611
 21
39.361043
 31
0.0
 11
57.875614
 21
41.844110
 31
0.0
 11
53.426062
 21
42.451276
 31
0.0
 11
49.360839
 21
40.750320
 31
0.0
 11
46.571763
 21
37.226380
 31
0.0
 11
45.929657
 21
32.261163
 31
0.0
 11
47.858835
 21
27.739504
 31
0.0
 11
51.823556
 21
24.654240
 31
0.0
 11
57.325840
 21
23.976666
 31
0.0
 11
62.322066
 21
26.123267
 31
0.0
 11
65.714086
 21
30.510340
 31
0.0
 11
66.426869
 21
36.526012
 31
0.0
 11
64.050683
 21
41.977081
 31
0.0
 11
59.220510
 21
45.664080
 31
0.0
 11
52.665555
 21
46.412817
 31
0.0
 11
46.737906
 21
43.820333
 31
0.0
 11
42.743300
 21
38.569590
 31
0.0
 11
41.959268
 21
31.503513
 31
0.0
 11
44.782633
 21
25.122711
 31
0.0
 11
50.478661
 21
20.834260
 31
0.0
 11
58.086266
 21
20.013916
 31
0.0
 11
64.945586
 21
23.052414
 31
0.0
 11
69.542549
 21
29.167130
 31
0.0
 11
70.398182
 21
37.283611
 31
0.0
 11
67.127533
 21
44.594336
 31
0.0
 11
60.565413
 21
49.484050
 31
0.0
 11
51.905167
 21
50.376289
 31
0.0
 11
44.114017
 21
46.891691
 31
0.0
 11
38.914838
 21
39.912810
 31
0.0
 11
37.987376
 21
30.745933
 31
0.0
 11
41.705382
 21
22.505151
 31
0.0
 11
49.133757
 21
17.014300
 31
0.0
 11
58.846641
 21
16.049986
 31
0.0
 11
67.569727
 21
19.980738
 31
0.0
 11
73.371012
 21
27.823930
 31
0.0
 11
74.370462
 21
38.041195
 31
0.0
 11
70.205055
 21
47.212109
 31
0.0
 11
61.910309
 21
53.304020
 31
0.0
 11
59.898502
 21
53.969277
 31
0.0
 11
57.848084
 21
54.416986
 31
0.0
 11
55.741953
 21
54.644590
 31
0.0
  0
SPLINE
  5
105
100
AcDbEntity
  8
Layer_1
 62
7
100
AcDbSpline
 70
0
 71
3
 72
13
 73
9
 74
7
 40
0.000000
 40
0.000000
 40
0.000000
 40
0.000000
 40
0.429827
 40
0.920966
 40
1.534375
 40
2.267538
 40
3.168213
 40
4.213754
 40
4.213754
 40
4.213754
 40
4.213754
 10
55.449296
 20
34.289950
 30
0.0
 10
55.548519
 20
34.169152
 30
0.0
 10
55.761119
 20
33.910326
 30
0.0
 10
56.347201
 20
34.126083
 30
0.0
 10
56.607891
 20
34.748019
 30
0.0
 10
56.297167
 20
35.492630
 30
0.0
 10
55.563248
 20
36.072659
 30
0.0
 10
54.907172
 20
36.147945
 30
0.0
 10
54.554716
 20
36.188390
 30
0.0
 11
55.449296
 21
34.289950
 31
0.0
 11
55.777282
 21
34.012143
 31
0.0
 11
56.248061
 21
34.152090
 31
0.0
 11
56.512628
 21
34.705510
 31
0.0
 11
56.275701
 21
35.399336
 31
0.0
 11
55.576590
 21
35.967191
 31
0.0
 11
54.554716
 21
36.188390
 31
0.0
  0
SPLINE
  5
106
100
AcDbEntity
  8
Layer_1
 62
7
100
AcDbSpline
 70
0
 71
3
 72
70
 73
66
 74
64
 40
0.000000
 40
0.000000
 40
0.000000
 40
0.000000
 40
1.398202
 40
2.757683
 40
4.136807
 40
6.054290
 40
7.945223
 40
9.873404
 40
12.326374
 40
14.740360
 40
17.203748
 40
20.194305
 40
23.134168
 40
26.135006
 40
29.664318
 40
33.131559
 40
36.671065
 40
40.739834
 40
44.735340
 40
48.814248
 40
53.422935
 40
57.947277
 40
62.566077
 40
67.714981
 40
72.768545
 40
77.927544
 40
83.616918
 40
89.199989
 40
94.899428
 40
101.129430
 40
107.242204
 40
113.482257
 40
120.253011
 40
126.895647
 40
133.676440
 40
140.988049
 40
148.160665
 40
155.482302
 40
163.334851
 40
171.037541
 40
178.900108
 40
187.293648
 40
195.526495
 40
203.930058
 40
212.864651
 40
221.627711
 40
230.572317
 40
240.048004
 40
249.341334
 40
258.827037
 40
268.843849
 40
278.667489
 40
288.694319
 40
291.430555
 40
294.108548
 40
296.750567
 40
299.372777
 40
301.986212
 40
304.598057
 40
307.213105
 40
309.835286
 40
312.469180
 40
313.793180
 40
315.122898
 40
316.459746
 40
316.459746
 40
316.459746
 40
316.459746
 10
54.554716
 20
36.188390
 30
0.0
 10
54.087673
 20
36.076272
 30
0.0
 10
53.166521
 20
35.855141
 30
0.0
 10
52.311947
 20
34.646330
 30
0.0
 10
52.066546
 20
33.067969
 30
0.0
 10
52.822831
 20
31.372874
 30
0.0
 10
54.490212
 20
30.280598
 30
0.0
 10
56.651013
 20
30.052702
 30
0.0
 10
58.813896
 20
31.118288
 30
0.0
 10
60.164026
 20
33.278324
 30
0.0
 10
60.371917
 20
36.000436
 30
0.0
 10
58.997447
 20
38.631558
 30
0.0
 10
56.343067
 20
40.238443
 30
0.0
 10
53.058658
 20
40.427152
 30
0.0
 10
49.958180
 20
38.743159
 30
0.0
 10
48.094399
 20
35.593410
 30
0.0
 10
47.924700
 20
31.746187
 30
0.0
 10
49.918503
 20
28.175748
 30
0.0
 10
53.564242
 20
26.054972
 30
0.0
 10
57.974594
 20
25.904201
 30
0.0
 10
62.015366
 20
28.207981
 30
0.0
 10
64.393216
 20
32.350111
 30
0.0
 10
64.525091
 20
37.323801
 30
0.0
 10
61.911231
 20
41.835140
 30
0.0
 10
57.272459
 20
44.470129
 30
0.0
 10
51.735284
 20
44.583129
 30
0.0
 10
46.753205
 20
41.659114
 30
0.0
 10
43.861028
 20
36.523498
 30
0.0
 10
43.766880
 20
30.422725
 30
0.0
 10
47.001120
 20
24.969802
 30
0.0
 10
52.633708
 20
21.820392
 30
0.0
 10
59.298155
 20
21.745118
 30
0.0
 10
65.222015
 20
25.289605
 30
0.0
 10
68.628681
 20
31.419271
 30
0.0
 10
68.685111
 20
38.647455
 30
0.0
 10
64.830329
 20
45.042311
 30
0.0
 10
58.203509
 20
48.706261
 30
0.0
 10
50.411536
 20
48.743845
 30
0.0
 10
43.545630
 20
44.578747
 30
0.0
 10
39.624374
 20
37.454706
 30
0.0
 10
39.605645
 20
29.098908
 30
0.0
 10
44.081070
 20
21.761909
 30
0.0
 10
51.702384
 20
17.583336
 30
0.0
 10
60.622045
 20
17.583437
 30
0.0
 10
68.430162
 20
22.369224
 30
0.0
 10
72.866075
 20
30.487850
 30
0.0
 10
72.847106
 20
39.971378
 30
0.0
 10
67.750945
 20
48.250713
 30
0.0
 10
59.135097
 20
52.943757
 30
0.0
 10
49.087173
 20
52.906808
 30
0.0
 10
40.338577
 20
47.496871
 30
0.0
 10
35.381082
 20
38.396294
 30
0.0
 10
35.442875
 20
30.477823
 30
0.0
 10
37.195853
 20
25.626967
 30
0.0
 10
38.452577
 20
23.243164
 30
0.0
 10
40.002341
 20
21.086973
 30
0.0
 10
41.809402
 20
19.171363
 30
0.0
 10
43.840558
 20
17.511753
 30
0.0
 10
46.062519
 20
16.122971
 30
0.0
 10
48.442602
 20
15.020123
 30
0.0
 10
50.947897
 20
14.219076
 30
0.0
 10
53.110527
 20
13.815593
 30
0.0
 10
54.867032
 20
13.661195
 30
0.0
 10
56.198175
 20
13.624238
 30
0.0
 10
57.085991
 20
13.673282
 30
0.0
 10
57.531086
 20
13.697870
 30
0.0
 11
54.554716
 21
36.188390
 31
0.0
 11
53.243941
 21
35.701730
 31
0.0
 11
52.419848
 21
34.620500
 31
0.0
 11
52.209442
 21
33.257520
 31
0.0
 11
52.966561
 21
31.495842
 31
0.0
 11
54.529806
 21
30.431938
 31
0.0
 11
56.447973
 21
30.235680
 31
0.0
 11
58.660497
 21
31.294832
 31
0.0
 11
59.966439
 21
33.325064
 31
0.0
 11
60.146396
 21
35.781870
 31
0.0
 11
58.787891
 21
38.446058
 31
0.0
 11
56.288998
 21
39.994712
 31
0.0
 11
53.292544
 21
40.156860
 31
0.0
 11
50.176126
 21
38.500362
 31
0.0
 11
48.384401
 21
35.531948
 31
0.0
 11
48.240971
 21
31.995350
 31
0.0
 11
50.194691
 21
28.426336
 31
0.0
 11
53.633126
 21
26.391334
 31
0.0
 11
57.710145
 21
26.267200
 31
0.0
 11
61.732015
 21
28.517658
 31
0.0
 11
64.010426
 21
32.426432
 31
0.0
 11
64.114868
 21
37.044050
 31
0.0
 11
61.568003
 21
41.518947
 31
0.0
 11
57.188683
 21
44.040863
 31
0.0
 11
52.030376
 21
44.125340
 31
0.0
 11
47.102293
 21
41.282283
 31
0.0
 11
44.336804
 21
36.432257
 31
0.0
 11
44.272491
 21
30.733180
 31
0.0
 11
47.411584
 21
25.351822
 31
0.0
 11
52.732419
 21
22.342715
 31
0.0
 11
58.972316
 21
22.298730
 31
0.0
 11
64.807031
 21
25.733729
 31
0.0
 11
68.059796
 21
31.525458
 31
0.0
 11
68.083348
 21
38.306210
 31
0.0
 11
64.352530
 21
44.594343
 31
0.0
 11
58.089841
 21
48.090794
 31
0.0
 11
50.768205
 21
48.093820
 31
0.0
 11
44.026597
 21
44.067253
 31
0.0
 11
40.286439
 21
37.333557
 31
0.0
 11
40.304019
 21
29.471010
 31
0.0
 11
44.626269
 21
22.275896
 31
0.0
 11
51.831018
 21
18.292008
 31
0.0
 11
60.234494
 21
18.330240
 31
0.0
 11
67.883152
 21
22.948138
 31
0.0
 11
72.110780
 21
30.623969
 31
0.0
 11
72.051822
 21
39.568380
 31
0.0
 11
67.138332
 21
47.670618
 31
0.0
 11
58.991391
 21
52.142009
 31
0.0
 11
49.506023
 21
52.062300
 31
0.0
 11
40.950198
 21
46.853234
 31
0.0
 11
36.235047
 21
38.235156
 31
0.0
 11
36.335546
 21
28.208830
 31
0.0
 11
37.261189
 21
25.633918
 31
0.0
 11
38.510946
 21
23.265426
 31
0.0
 11
40.051635
 21
21.119140
 31
0.0
 11
41.850077
 21
19.210844
 31
0.0
 11
43.873089
 21
17.556316
 31
0.0
 11
46.087491
 21
16.171340
 31
0.0
 11
48.460101
 21
15.071705
 31
0.0
 11
50.957740
 21
14.273185
 31
0.0
 11
53.547227
 21
13.791570
 31
0.0
 11
54.866044
 21
13.674533
 31
0.0
 11
56.195379
 21
13.642640
 31
0.0
 11
57.531086
 21
13.697870
 31
0.0
  0
SPLINE
  5
107
100
AcDbEntity
  8
Layer_1
 62
7
100
AcDbSpline
 70
0
 71
3
 72
13
 73
9
 74
7
 40
0.000000
 40
0.000000
 40
0.000000
 40
0.000000
 40
6.493576
 40
13.035689
 40
19.628355
 40
22.504213
 40
25.388549
 40
28.278734
 40
28.278734
 40
28.278734
 40
28.278734
 10
57.531196
 20
13.697727
 30
0.0
 10
59.688558
 20
14.038188
 30
0.0
 10
64.019407
 20
14.721654
 30
0.0
 10
69.685402
 20
18.310595
 30
0.0
 10
73.236812
 20
22.403896
 30
0.0
 10
75.109739
 20
26.083516
 30
0.0
 10
76.096654
 20
28.806388
 30
0.0
 10
76.436007
 20
30.704116
 30
0.0
 10
76.605855
 20
31.653941
 30
0.0
 11
57.531196
 21
13.697727
 31
0.0
 11
63.862357
 21
15.140961
 31
0.0
 11
69.452987
 21
18.538622
 31
0.0
 11
73.739035
 21
23.547917
 31
0.0
 11
75.054568
 21
26.105246
 31
0.0
 11
76.016284
 21
28.824528
 31
0.0
 11
76.605855
 21
31.653941
 31
0.0
  0
SPLINE
  5
108
100
AcDbEntity
  8
Layer_1
 62
7
100
AcDbSpline
 70
0
 71
3
 72
22
 73
18
 74
16
 40
0.000000
 40
0.000000
 40
0.000000
 40
0.000000
 40
1.581580
 40
3.166946
 40
6.642267
 40
13.907900
 40
21.913300
 40
25.686623
 40
26.345805
 40
27.743588
 40
29.631270
 40
35.119683
 40
42.738088
 40
46.588274
 40
47.061078
 40
48.187378
 40
50.285618
 40
50.285618
 40
50.285618
 40
50.285618
 10
94.526548
 20
8.535920
 30
0.0
 10
95.064124
 20
8.477328
 30
0.0
 10
96.140563
 20
8.360004
 30
0.0
 10
98.134443
 20
9.815112
 30
0.0
 10
97.783967
 20
14.363323
 30
0.0
 10
98.070834
 20
20.352839
 30
0.0
 10
97.771426
 20
26.758551
 30
0.0
 10
98.190472
 20
30.937729
 30
0.0
 10
97.824134
 20
32.841056
 30
0.0
 10
97.144038
 20
34.092800
 30
0.0
 10
94.076866
 20
34.755079
 30
0.0
 10
89.186406
 20
34.313410
 30
0.0
 10
83.489442
 20
34.367297
 30
0.0
 10
79.517214
 20
34.675951
 30
0.0
 10
77.698823
 20
34.426895
 30
0.0
 10
76.706239
 20
33.491802
 30
0.0
 10
76.645425
 20
32.378443
 30
0.0
 10
76.605853
 20
31.653970
 30
0.0
 11
94.526548
 21
8.535920
 31
0.0
 11
96.107906
 21
8.562435
 31
0.0
 11
97.403910
 21
9.475539
 31
0.0
 11
97.940917
 21
12.909120
 31
0.0
 11
97.952268
 21
20.174744
 31
0.0
 11
97.973738
 21
28.180116
 31
0.0
 11
97.985337
 21
31.953420
 31
0.0
 11
97.847396
 21
32.598008
 31
0.0
 11
97.123142
 21
33.793522
 31
0.0
 11
95.346928
 21
34.432590
 31
0.0
 11
89.858546
 21
34.451149
 31
0.0
 11
82.240262
 21
34.493997
 31
0.0
 11
78.390150
 21
34.517890
 31
0.0
 11
77.926009
 21
34.427797
 31
0.0
 11
77.065358
 21
33.701277
 31
0.0
 11
76.605853
 21
31.653970
 31
0.0
  0
LWPOLYLINE
  5
109
100
AcDbEntity
  8
Layer_1
 62
7
100
AcDbPolyline
 90
2
 70
0
 10
10.088854
 20
8.589280
 30
0.0
 10
94.526548
 20
8.535880
 30
0.0
  0
ENDSEC
  0
SECTION
  2
OBJECTS
  0
DICTIONARY
  5
C
330
0
100
AcDbDictionary
  3
ACAD_GROUP
350
D
  3
ACAD_MLINESTYLE
350
17
  0
DICTIONARY
  5
D
330
C
100
AcDbDictionary
  0
DICTIONARY
  5
1A
330
C
100
AcDbDictionary
  0
DICTIONARY
  5
17
330
C
100
AcDbDictionary
  3
STANDARD
350
18
  0
DICTIONARY
  5
19
330
C
100
AcDbDictionary
  0
ENDSEC
  0
EOF
