  0
SECTION
  2
HEADER
  9
$ACADVER
  1
AC1014
  9
$HANDSEED
  5
FFFF
  9
$MEASUREMENT
 70
     1
  0
ENDSEC
  0
SECTION
  2
TABLES
  0
TABLE
  2
VPORT
  5
8
330
0
100
AcDbSymbolTable
 70
     4
  0
VPORT
  5
2E
330
8
100
AcDbSymbolTableRecord
100
AcDbViewportTableRecord
  2
*ACTIVE
 70
     0
 10
0.0
 20
0.0
 11
1.0
 21
1.0
 12
210.0
 22
148.5
 13
0.0
 23
0.0
 14
10.0
 24
10.0
 15
10.0
 25
10.0
 16
0.0
 26
0.0
 36
1.0
 17
0.0
 27
0.0
 37
0.0
 40
341.0
 41
1.24
 42
50.0
 43
0.0
 44
0.0
 50
0.0
 51
0.0
 71
     0
 72
   100
 73
     1
 74
     3
 75
     0
 76
     0
 77
     0
 78
     0
  0
ENDTAB
  0
TABLE
  2
LTYPE
  5
5
330
0
100
AcDbSymbolTable
 70
     1
  0
LTYPE
  5
14
330
5
100
AcDbSymbolTableRecord
100
AcDbLinetypeTableRecord
  2
BYBLOCK
 70
     0
  3

 72
    65
 73
     0
 40
0.0
  0
LTYPE
  5
15
330
5
100
AcDbSymbolTableRecord
100
AcDbLinetypeTableRecord
  2
BYLAYER
 70
     0
  3

 72
    65
 73
     0
 40
0.0
  0
LTYPE
  5
16
330
5
100
AcDbSymbolTableRecord
100
AcDbLinetypeTableRecord
  2
CONTINUOUS
 70
     0
  3
Solid line
 72
    65
 73
     0
 40
0.0
  0
ENDTAB
  0
TABLE
  2
LAYER
  5
2
100
AcDbSymbolTable
 70
2
  0
LAYER
  5
50
100
AcDbSymbolTableRecord
100
AcDbLayerTableRecord
  2
0
 70
0
  6
CONTINUOUS
  0
LAYER
  5
51
100
AcDbSymbolTableRecord
100
AcDbLayerTableRecord
  2
Layer_1
 70
0
  6
CONTINUOUS
  0
ENDTAB
  0
TABLE
  2
STYLE
  5
3
330
0
100
AcDbSymbolTable
 70
     1
  0
STYLE
  5
11
330
3
100
AcDbSymbolTableRecord
100
AcDbTextStyleTableRecord
  2
STANDARD
 70
     0
 40
0.0
 41
1.0
 50
0.0
 71
     0
 42
2.5
  3
txt
  4

  0
ENDTAB
  0
TABLE
  2
VIEW
  5
6
330
0
100
AcDbSymbolTable
 70
     0
  0
ENDTAB
  0
TABLE
  2
UCS
  5
7
330
0
100
AcDbSymbolTable
 70
     0
  0
ENDTAB
  0
TABLE
  2
APPID
  5
9
330
0
100
AcDbSymbolTable
 70
     2
  0
APPID
  5
12
330
9
100
AcDbSymbolTableRecord
100
AcDbRegAppTableRecord
  2
ACAD
 70
     0
  0
ENDTAB
  0
TABLE
  2
DIMSTYLE
  5
A
330
0
100
AcDbSymbolTable
 70
     1
  0
DIMSTYLE
105
27
330
A
100
AcDbSymbolTableRecord
100
AcDbDimStyleTableRecord
  2
ISO-25
 70
     0
  3

  4

  5

  6

  7

 40
1.0
 41
2.5
 42
0.625
 43
3.75
 44
1.25
 45
0.0
 46
0.0
 47
0.0
 48
0.0
140
2.5
141
2.5
142
0.0
143
0.03937007874016
144
1.0
145
0.0
146
1.0
147
0.625
 71
     0
 72
     0
 73
     0
 74
     0
 75
     0
 76
     0
 77
     1
 78
     8
170
     0
171
     3
172
     1
173
     0
174
     0
175
     0
176
     0
177
     0
178
     0
270
     2
271
     2
272
     2
273
     2
274
     3
340
11
275
     0
280
     0
281
     0
282
     0
283
     0
284
     8
285
     0
286
     0
287
     3
288
     0
  0
ENDTAB
  0
TABLE
  2
BLOCK_RECORD
  5
1
330
0
100
AcDbSymbolTable
 70
     1
  0
BLOCK_RECORD
  5
1F
330
1
100
AcDbSymbolTableRecord
100
AcDbBlockTableRecord
  2
*MODEL_SPACE
  0
BLOCK_RECORD
  5
1B
330
1
100
AcDbSymbolTableRecord
100
AcDbBlockTableRecord
  2
*PAPER_SPACE
  0
ENDTAB
  0
ENDSEC
  0
SECTION
  2
BLOCKS
  0
BLOCK
  5
20
330
1F
100
AcDbEntity
  8
0
100
AcDbBlockBegin
  2
*MODEL_SPACE
 70
     0
 10
0.0
 20
0.0
 30
0.0
  3
*MODEL_SPACE
  1

  0
ENDBLK
  5
21
330
1F
100
AcDbEntity
  8
0
100
AcDbBlockEnd
  0
BLOCK
  5
1C
330
1B
100
AcDbEntity
 67
     1
  8
0
100
AcDbBlockBegin
  2
*PAPER_SPACE
  1

  0
ENDBLK
  5
1D
330
1B
100
AcDbEntity
 67
     1
  8
0
100
AcDbBlockEnd
  0
ENDSEC
  0
SECTION
  2
ENTITIES
  0
LWPOLYLINE
  5
100
100
AcDbEntity
  8
Layer_1
 62
7
100
AcDbPolyline
 90
2
 70
0
 10
2.952732
 20
36.173640
 30
0.0
 10
13.215179
 20
46.488000
 30
0.0
  0
SPLINE
  5
101
100
AcDbEntity
  8
Layer_1
 62
7
100
AcDbSpline
 70
8
 71
3
 72
8
 73
4
 74
0
 40
0
 40
0
 40
0
 40
0
 40
1
 40
1
 40
1
 40
1
 10
78.045434
 20
9.751990
 30
0.0
 10
73.613790
 20
4.440000
 30
0.0
 10
67.494256
 20
1.557370
 30
0.0
 10
60.911422
 20
1.799630
 30
0.0
  0
LWPOLYLINE
  5
102
100
AcDbEntity
  8
Layer_1
 62
7
100
AcDbPolyline
 90
2
 70
0
 10
2.952732
 20
56.793700
 30
0.0
 10
13.215000
 20
46.464030
 30
0.0
  0
LWPOLYLINE
  5
103
100
AcDbEntity
  8
Layer_1
 62
7
100
AcDbPolyline
 90
2
 70
0
 10
2.952561
 20
46.478450
 30
0.0
 10
57.029485
 20
46.482450
 30
0.0
  0
SPLINE
  5
104
100
AcDbEntity
  8
Layer_1
 62
7
100
AcDbSpline
 70
8
 71
3
 72
8
 73
4
 74
0
 40
0
 40
0
 40
0
 40
0
 40
1
 40
1
 40
1
 40
1
 10
73.990951
 20
12.448350
 30
0.0
 10
75.541105
 20
14.088790
 30
0.0
 10
77.012355
 20
14.510780
 30
0.0
 10
78.010043
 20
13.828690
 30
0.0
  0
SPLINE
  5
105
100
AcDbEntity
  8
Layer_1
 62
7
100
AcDbSpline
 70
8
 71
3
 72
8
 73
4
 74
0
 40
0
 40
0
 40
0
 40
0
 40
1
 40
1
 40
1
 40
1
 10
78.010043
 20
13.828690
 30
0.0
 10
79.007734
 20
13.146600
 30
0.0
 10
79.391184
 20
11.369990
 30
0.0
 10
78.045433
 20
9.751680
 30
0.0
  0
SPLINE
  5
106
100
AcDbEntity
  8
Layer_1
 62
7
100
AcDbSpline
 70
8
 71
3
 72
8
 73
4
 74
0
 40
0
 40
0
 40
0
 40
0
 40
1
 40
1
 40
1
 40
1
 10
58.120446
 20
26.157630
 30
0.0
 10
58.294809
 20
25.680640
 30
0.0
 10
59.160338
 20
25.887200
 30
0.0
 10
59.151787
 20
26.647220
 30
0.0
  0
SPLINE
  5
107
100
AcDbEntity
  8
Layer_1
 62
7
100
AcDbSpline
 70
8
 71
3
 72
8
 73
4
 74
0
 40
0
 40
0
 40
0
 40
0
 40
1
 40
1
 40
1
 40
1
 10
59.151787
 20
26.647220
 30
0.0
 10
59.144087
 20
27.331630
 30
0.0
 10
58.226203
 20
28.094060
 30
0.0
 10
57.094072
 20
27.988180
 30
0.0
  0
SPLINE
  5
108
100
AcDbEntity
  8
Layer_1
 62
7
100
AcDbSpline
 70
8
 71
3
 72
8
 73
4
 74
0
 40
0
 40
0
 40
0
 40
0
 40
1
 40
1
 40
1
 40
1
 10
57.094072
 20
27.988180
 30
0.0
 10
55.592070
 20
27.796570
 30
0.0
 10
54.724331
 20
26.285340
 30
0.0
 10
54.961562
 20
24.899050
 30
0.0
  0
SPLINE
  5
109
100
AcDbEntity
  8
Layer_1
 62
7
100
AcDbSpline
 70
8
 71
3
 72
8
 73
4
 74
0
 40
0
 40
0
 40
0
 40
0
 40
1
 40
1
 40
1
 40
1
 10
54.961562
 20
24.899050
 30
0.0
 10
55.309712
 20
22.864610
 30
0.0
 10
57.483250
 20
21.753190
 30
0.0
 10
59.402853
 20
22.183980
 30
0.0
  0
SPLINE
  5
10a
100
AcDbEntity
  8
Layer_1
 62
7
100
AcDbSpline
 70
8
 71
3
 72
8
 73
4
 74
0
 40
0
 40
0
 40
0
 40
0
 40
1
 40
1
 40
1
 40
1
 10
59.402853
 20
22.183980
 30
0.0
 10
61.961382
 20
22.758150
 30
0.0
 10
63.331219
 20
25.527250
 30
0.0
 10
62.700500
 20
27.977430
 30
0.0
  0
SPLINE
  5
10b
100
AcDbEntity
  8
Layer_1
 62
7
100
AcDbSpline
 70
8
 71
3
 72
8
 73
4
 74
0
 40
0
 40
0
 40
0
 40
0
 40
1
 40
1
 40
1
 40
1
 10
62.700500
 20
27.977430
 30
0.0
 10
61.906809
 20
31.060720
 30
0.0
 10
58.534411
 20
32.691500
 30
0.0
 10
55.554885
 20
31.857640
 30
0.0
  0
SPLINE
  5
10c
100
AcDbEntity
  8
Layer_1
 62
7
100
AcDbSpline
 70
8
 71
3
 72
8
 73
4
 74
0
 40
0
 40
0
 40
0
 40
0
 40
1
 40
1
 40
1
 40
1
 10
55.554885
 20
31.857640
 30
0.0
 10
51.946283
 20
30.847730
 30
0.0
 10
50.053250
 20
26.868060
 30
0.0
 10
51.092100
 20
23.359860
 30
0.0
  0
SPLINE
  5
10d
100
AcDbEntity
  8
Layer_1
 62
7
100
AcDbSpline
 70
8
 71
3
 72
8
 73
4
 74
0
 40
0
 40
0
 40
0
 40
0
 40
1
 40
1
 40
1
 40
1
 10
51.092100
 20
23.359860
 30
0.0
 10
52.316345
 20
19.225580
 30
0.0
 10
56.905594
 20
17.069520
 30
0.0
 10
60.942040
 20
18.314510
 30
0.0
  0
SPLINE
  5
10e
100
AcDbEntity
  8
Layer_1
 62
7
100
AcDbSpline
 70
8
 71
3
 72
8
 73
4
 74
0
 40
0
 40
0
 40
0
 40
0
 40
1
 40
1
 40
1
 40
1
 10
60.942040
 20
18.314510
 30
0.0
 10
65.602286
 20
19.751900
 30
0.0
 10
68.021872
 20
24.952190
 30
0.0
 10
66.569963
 20
29.516620
 30
0.0
  0
SPLINE
  5
10f
100
AcDbEntity
  8
Layer_1
 62
7
100
AcDbSpline
 70
8
 71
3
 72
8
 73
4
 74
0
 40
0
 40
0
 40
0
 40
0
 40
1
 40
1
 40
1
 40
1
 10
66.569963
 20
29.516620
 30
0.0
 10
64.920220
 20
34.703000
 30
0.0
 10
59.107903
 20
37.386480
 30
0.0
 10
54.015701
 20
35.727110
 30
0.0
  0
SPLINE
  5
110
100
AcDbEntity
  8
Layer_1
 62
7
100
AcDbSpline
 70
8
 71
3
 72
8
 73
4
 74
0
 40
0
 40
0
 40
0
 40
0
 40
1
 40
1
 40
1
 40
1
 10
54.015701
 20
35.727110
 30
0.0
 10
48.303016
 20
33.865560
 30
0.0
 10
45.355420
 20
27.440510
 30
0.0
 10
47.222627
 20
21.820680
 30
0.0
  0
SPLINE
  5
111
100
AcDbEntity
  8
Layer_1
 62
7
100
AcDbSpline
 70
8
 71
3
 72
8
 73
4
 74
0
 40
0
 40
0
 40
0
 40
0
 40
1
 40
1
 40
1
 40
1
 10
47.222627
 20
21.820680
 30
0.0
 10
49.295592
 20
15.581600
 30
0.0
 10
56.333869
 20
12.369680
 30
0.0
 10
62.481227
 20
14.445040
 30
0.0
  0
SPLINE
  5
112
100
AcDbEntity
  8
Layer_1
 62
7
100
AcDbSpline
 70
8
 71
3
 72
8
 73
4
 74
0
 40
0
 40
0
 40
0
 40
0
 40
1
 40
1
 40
1
 40
1
 10
62.481227
 20
14.445040
 30
0.0
 10
69.246795
 20
16.729110
 30
0.0
 10
72.723166
 20
24.381010
 30
0.0
 10
70.439436
 20
31.055800
 30
0.0
  0
SPLINE
  5
113
100
AcDbEntity
  8
Layer_1
 62
7
100
AcDbSpline
 70
8
 71
3
 72
8
 73
4
 74
0
 40
0
 40
0
 40
0
 40
0
 40
1
 40
1
 40
1
 40
1
 10
70.439436
 20
31.055800
 30
0.0
 10
67.944494
 20
38.347920
 30
0.0
 10
59.678673
 20
42.088860
 30
0.0
 10
52.476514
 20
39.596580
 30
0.0
  0
SPLINE
  5
114
100
AcDbEntity
  8
Layer_1
 62
7
100
AcDbSpline
 70
8
 71
3
 72
8
 73
4
 74
0
 40
0
 40
0
 40
0
 40
0
 40
1
 40
1
 40
1
 40
1
 10
52.476514
 20
39.596580
 30
0.0
 10
44.657780
 20
36.890940
 30
0.0
 10
40.652197
 20
28.010980
 30
0.0
 10
43.353164
 20
20.281490
 30
0.0
  0
SPLINE
  5
115
100
AcDbEntity
  8
Layer_1
 62
7
100
AcDbSpline
 70
8
 71
3
 72
8
 73
4
 74
0
 40
0
 40
0
 40
0
 40
0
 40
1
 40
1
 40
1
 40
1
 10
43.353164
 20
20.281490
 30
0.0
 10
46.269346
 20
11.936110
 30
0.0
 10
55.763660
 20
7.665800
 30
0.0
 10
64.020422
 20
10.575560
 30
0.0
  0
SPLINE
  5
116
100
AcDbEntity
  8
Layer_1
 62
7
100
AcDbSpline
 70
8
 71
3
 72
8
 73
4
 74
0
 40
0
 40
0
 40
0
 40
0
 40
1
 40
1
 40
1
 40
1
 10
64.020422
 20
10.575560
 30
0.0
 10
72.892481
 20
13.702190
 30
0.0
 10
77.427582
 20
23.810990
 30
0.0
 10
74.308901
 20
32.594990
 30
0.0
  0
SPLINE
  5
117
100
AcDbEntity
  8
Layer_1
 62
7
100
AcDbSpline
 70
8
 71
3
 72
8
 73
4
 74
0
 40
0
 40
0
 40
0
 40
0
 40
1
 40
1
 40
1
 40
1
 10
74.308901
 20
32.594990
 30
0.0
 10
70.971955
 20
41.993770
 30
0.0
 10
60.248530
 20
46.793710
 30
0.0
 10
50.937316
 20
43.466050
 30
0.0
  0
SPLINE
  5
118
100
AcDbEntity
  8
Layer_1
 62
7
100
AcDbSpline
 70
8
 71
3
 72
8
 73
4
 74
0
 40
0
 40
0
 40
0
 40
0
 40
1
 40
1
 40
1
 40
1
 10
50.937316
 20
43.466050
 30
0.0
 10
41.011805
 20
39.918840
 30
0.0
 10
35.946995
 20
28.580690
 30
0.0
 10
39.483699
 20
18.742300
 30
0.0
  0
SPLINE
  5
119
100
AcDbEntity
  8
Layer_1
 62
7
100
AcDbSpline
 70
8
 71
3
 72
8
 73
4
 74
0
 40
0
 40
0
 40
0
 40
0
 40
1
 40
1
 40
1
 40
1
 10
39.483699
 20
18.742300
 30
0.0
 10
43.241084
 20
8.290020
 30
0.0
 10
55.229133
 20
3.007070
 30
0.0
 10
65.594687
 20
6.752880
 30
0.0
  0
SPLINE
  5
11a
100
AcDbEntity
  8
Layer_1
 62
7
100
AcDbSpline
 70
8
 71
3
 72
8
 73
4
 74
0
 40
0
 40
0
 40
0
 40
0
 40
1
 40
1
 40
1
 40
1
 10
65.594687
 20
6.752880
 30
0.0
 10
68.890748
 20
7.943980
 30
0.0
 10
71.671164
 20
9.822630
 30
0.0
 10
73.990951
 20
12.448660
 30
0.0
  0
SPLINE
  5
11b
100
AcDbEntity
  8
Layer_1
 62
7
100
AcDbSpline
 70
8
 71
3
 72
8
 73
4
 74
0
 40
0
 40
0
 40
0
 40
0
 40
1
 40
1
 40
1
 40
1
 10
58.137951
 20
26.115640
 30
0.0
 10
57.985390
 20
26.523800
 30
0.0
 10
57.399962
 20
26.763360
 30
0.0
 10
56.885234
 20
26.320850
 30
0.0
  0
SPLINE
  5
11c
100
AcDbEntity
  8
Layer_1
 62
7
100
AcDbSpline
 70
8
 71
3
 72
8
 73
4
 74
0
 40
0
 40
0
 40
0
 40
0
 40
1
 40
1
 40
1
 40
1
 10
56.885234
 20
26.320850
 30
0.0
 10
56.168618
 20
25.672400
 30
0.0
 10
56.635726
 20
24.548720
 30
0.0
 10
57.327739
 20
24.100760
 30
0.0
  0
SPLINE
  5
11d
100
AcDbEntity
  8
Layer_1
 62
7
100
AcDbSpline
 70
8
 71
3
 72
8
 73
4
 74
0
 40
0
 40
0
 40
0
 40
0
 40
1
 40
1
 40
1
 40
1
 10
57.327739
 20
24.100760
 30
0.0
 10
58.565536
 20
23.299480
 30
0.0
 10
60.170470
 20
24.035960
 30
0.0
 10
60.798980
 20
25.251270
 30
0.0
  0
SPLINE
  5
11e
100
AcDbEntity
  8
Layer_1
 62
7
100
AcDbSpline
 70
8
 71
3
 72
8
 73
4
 74
0
 40
0
 40
0
 40
0
 40
0
 40
1
 40
1
 40
1
 40
1
 10
60.798980
 20
25.251270
 30
0.0
 10
61.721336
 20
27.034720
 30
0.0
 10
60.681907
 20
29.169840
 30
0.0
 10
58.935535
 20
29.958850
 30
0.0
  0
SPLINE
  5
11f
100
AcDbEntity
  8
Layer_1
 62
7
100
AcDbSpline
 70
8
 71
3
 72
8
 73
4
 74
0
 40
0
 40
0
 40
0
 40
0
 40
1
 40
1
 40
1
 40
1
 10
58.935535
 20
29.958850
 30
0.0
 10
56.607892
 20
31.010460
 30
0.0
 10
53.917815
 20
29.662060
 30
0.0
 10
52.971496
 20
27.390430
 30
0.0
  0
SPLINE
  5
120
100
AcDbEntity
  8
Layer_1
 62
7
100
AcDbSpline
 70
8
 71
3
 72
8
 73
4
 74
0
 40
0
 40
0
 40
0
 40
0
 40
1
 40
1
 40
1
 40
1
 10
52.971496
 20
27.390430
 30
0.0
 10
51.780654
 20
24.531800
 30
0.0
 10
53.448328
 20
21.291760
 30
0.0
 10
56.255880
 20
20.195380
 30
0.0
  0
SPLINE
  5
121
100
AcDbEntity
  8
Layer_1
 62
7
100
AcDbSpline
 70
8
 71
3
 72
8
 73
4
 74
0
 40
0
 40
0
 40
0
 40
0
 40
1
 40
1
 40
1
 40
1
 10
56.255880
 20
20.195380
 30
0.0
 10
59.656189
 20
18.867510
 30
0.0
 10
63.463413
 20
20.849670
 30
0.0
 10
64.712717
 20
24.181700
 30
0.0
  0
SPLINE
  5
122
100
AcDbEntity
  8
Layer_1
 62
7
100
AcDbSpline
 70
8
 71
3
 72
8
 73
4
 74
0
 40
0
 40
0
 40
0
 40
0
 40
1
 40
1
 40
1
 40
1
 10
64.712717
 20
24.181700
 30
0.0
 10
66.184976
 20
28.108380
 30
0.0
 10
63.878521
 20
32.468490
 30
0.0
 10
60.007404
 20
33.864230
 30
0.0
  0
SPLINE
  5
123
100
AcDbEntity
  8
Layer_1
 62
7
100
AcDbSpline
 70
8
 71
3
 72
8
 73
4
 74
0
 40
0
 40
0
 40
0
 40
0
 40
1
 40
1
 40
1
 40
1
 10
60.007404
 20
33.864230
 30
0.0
 10
55.538047
 20
35.475670
 30
0.0
 10
50.605147
 20
32.853920
 30
0.0
 10
49.057758
 20
28.460000
 30
0.0
  0
SPLINE
  5
124
100
AcDbEntity
  8
Layer_1
 62
7
100
AcDbSpline
 70
8
 71
3
 72
8
 73
4
 74
0
 40
0
 40
0
 40
0
 40
0
 40
1
 40
1
 40
1
 40
1
 10
49.057758
 20
28.460000
 30
0.0
 10
47.299512
 20
23.467360
 30
0.0
 10
50.248338
 20
17.981890
 30
0.0
 10
55.184011
 20
16.289990
 30
0.0
  0
SPLINE
  5
125
100
AcDbEntity
  8
Layer_1
 62
7
100
AcDbSpline
 70
8
 71
3
 72
8
 73
4
 74
0
 40
0
 40
0
 40
0
 40
0
 40
1
 40
1
 40
1
 40
1
 10
55.184011
 20
16.289990
 30
0.0
 10
60.721089
 20
14.391930
 30
0.0
 10
66.783204
 20
17.655630
 30
0.0
 10
68.626455
 20
23.112120
 30
0.0
  0
SPLINE
  5
126
100
AcDbEntity
  8
Layer_1
 62
7
100
AcDbSpline
 70
8
 71
3
 72
8
 73
4
 74
0
 40
0
 40
0
 40
0
 40
0
 40
1
 40
1
 40
1
 40
1
 10
68.626455
 20
23.112120
 30
0.0
 10
70.672830
 20
29.169850
 30
0.0
 10
67.079979
 20
35.783160
 30
0.0
 10
61.079263
 20
37.769620
 30
0.0
  0
SPLINE
  5
127
100
AcDbEntity
  8
Layer_1
 62
7
100
AcDbSpline
 70
8
 71
3
 72
8
 73
4
 74
0
 40
0
 40
0
 40
0
 40
0
 40
1
 40
1
 40
1
 40
1
 10
61.079263
 20
37.769620
 30
0.0
 10
54.475083
 20
39.955830
 30
0.0
 10
47.281938
 20
36.048990
 30
0.0
 10
45.144020
 20
29.529580
 30
0.0
  0
SPLINE
  5
128
100
AcDbEntity
  8
Layer_1
 62
7
100
AcDbSpline
 70
8
 71
3
 72
8
 73
4
 74
0
 40
0
 40
0
 40
0
 40
0
 40
1
 40
1
 40
1
 40
1
 10
45.144020
 20
29.529580
 30
0.0
 10
42.808371
 20
22.407220
 30
0.0
 10
47.046105
 20
14.664690
 30
0.0
 10
54.112152
 20
12.384600
 30
0.0
  0
SPLINE
  5
129
100
AcDbEntity
  8
Layer_1
 62
7
100
AcDbSpline
 70
8
 71
3
 72
8
 73
4
 74
0
 40
0
 40
0
 40
0
 40
0
 40
1
 40
1
 40
1
 40
1
 10
54.112152
 20
12.384600
 30
0.0
 10
61.783097
 20
9.909330
 30
0.0
 10
70.108342
 20
14.459990
 30
0.0
 10
72.540193
 20
22.042540
 30
0.0
  0
SPLINE
  5
12a
100
AcDbEntity
  8
Layer_1
 62
7
100
AcDbSpline
 70
8
 71
3
 72
8
 73
4
 74
0
 40
0
 40
0
 40
0
 40
0
 40
1
 40
1
 40
1
 40
1
 10
72.540193
 20
22.042540
 30
0.0
 10
75.165826
 20
30.229270
 30
0.0
 10
70.282662
 20
39.101860
 30
0.0
 10
62.151130
 20
41.675000
 30
0.0
  0
SPLINE
  5
12b
100
AcDbEntity
  8
Layer_1
 62
7
100
AcDbSpline
 70
8
 71
3
 72
8
 73
4
 74
0
 40
0
 40
0
 40
0
 40
0
 40
1
 40
1
 40
1
 40
1
 10
62.151130
 20
41.675000
 30
0.0
 10
53.413633
 20
44.439890
 30
0.0
 10
43.955610
 20
39.244980
 30
0.0
 10
41.230283
 20
30.599160
 30
0.0
  0
SPLINE
  5
12c
100
AcDbEntity
  8
Layer_1
 62
7
100
AcDbSpline
 70
8
 71
3
 72
8
 73
4
 74
0
 40
0
 40
0
 40
0
 40
0
 40
1
 40
1
 40
1
 40
1
 10
41.230283
 20
30.599160
 30
0.0
 10
38.314204
 20
21.348230
 30
0.0
 10
43.843159
 20
11.345020
 30
0.0
 10
53.040285
 20
8.479220
 30
0.0
  0
SPLINE
  5
12d
100
AcDbEntity
  8
Layer_1
 62
7
100
AcDbSpline
 70
8
 71
3
 72
8
 73
4
 74
0
 40
0
 40
0
 40
0
 40
0
 40
1
 40
1
 40
1
 40
1
 10
53.040285
 20
8.479220
 30
0.0
 10
62.844196
 20
5.424340
 30
0.0
 10
73.435461
 20
11.263780
 30
0.0
 10
76.453931
 20
20.972970
 30
0.0
  0
SPLINE
  5
12e
100
AcDbEntity
  8
Layer_1
 62
7
100
AcDbSpline
 70
8
 71
3
 72
8
 73
4
 74
0
 40
0
 40
0
 40
0
 40
0
 40
1
 40
1
 40
1
 40
1
 10
76.453931
 20
20.972970
 30
0.0
 10
79.660766
 20
31.287990
 30
0.0
 10
73.485801
 20
42.422180
 30
0.0
 10
63.222989
 20
45.580390
 30
0.0
  0
SPLINE
  5
12f
100
AcDbEntity
  8
Layer_1
 62
7
100
AcDbSpline
 70
8
 71
3
 72
8
 73
4
 74
0
 40
0
 40
0
 40
0
 40
0
 40
1
 40
1
 40
1
 40
1
 10
63.222989
 20
45.580390
 30
0.0
 10
61.175188
 20
46.210570
 30
0.0
 10
59.117971
 20
46.516790
 30
0.0
 10
56.975383
 20
46.482140
 30
0.0
  0
LWPOLYLINE
  5
130
100
AcDbEntity
  8
Layer_1
 62
7
100
AcDbPolyline
 90
2
 70
0
 10
0.002001
 20
1.802310
 30
0.0
 10
60.911422
 20
1.799310
 30
0.0
  0
ENDSEC
  0
SECTION
  2
OBJECTS
  0
DICTIONARY
  5
C
330
0
100
AcDbDictionary
  3
ACAD_GROUP
350
D
  3
ACAD_MLINESTYLE
350
17
  0
DICTIONARY
  5
D
330
C
100
AcDbDictionary
  0
DICTIONARY
  5
1A
330
C
100
AcDbDictionary
  0
DICTIONARY
  5
17
330
C
100
AcDbDictionary
  3
STANDARD
350
18
  0
DICTIONARY
  5
19
330
C
100
AcDbDictionary
  0
ENDSEC
  0
EOF
