<?xml version="1.0" encoding="UTF-8" standalone="no"?>
<!-- Created with Inkscape (http://www.inkscape.org/) -->

<svg
   xmlns:dc="http://purl.org/dc/elements/1.1/"
   xmlns:cc="http://creativecommons.org/ns#"
   xmlns:rdf="http://www.w3.org/1999/02/22-rdf-syntax-ns#"
   xmlns:svg="http://www.w3.org/2000/svg"
   xmlns="http://www.w3.org/2000/svg"
   xmlns:sodipodi="http://sodipodi.sourceforge.net/DTD/sodipodi-0.dtd"
   xmlns:inkscape="http://www.inkscape.org/namespaces/inkscape"
   width="80mm"
   height="60mm"
   viewBox="0 0 80 60"
   version="1.1"
   id="svg1468"
   inkscape:version="0.92.4 (5da689c313, 2019-01-14)"
   sodipodi:docname="Detection.svg">
  <defs
     id="defs1462" />
  <sodipodi:namedview
     id="base"
     pagecolor="#ffffff"
     bordercolor="#666666"
     borderopacity="1.0"
     inkscape:pageopacity="0.0"
     inkscape:pageshadow="2"
     inkscape:zoom="1.4"
     inkscape:cx="135.33932"
     inkscape:cy="146.15091"
     inkscape:document-units="mm"
     inkscape:current-layer="layer1"
     showgrid="false"
     inkscape:window-width="1366"
     inkscape:window-height="705"
     inkscape:window-x="-8"
     inkscape:window-y="-8"
     inkscape:window-maximized="1" />
  <metadata
     id="metadata1465">
    <rdf:RDF>
      <cc:Work
         rdf:about="">
        <dc:format>image/svg+xml</dc:format>
        <dc:type
           rdf:resource="http://purl.org/dc/dcmitype/StillImage" />
        <dc:title></dc:title>
      </cc:Work>
    </rdf:RDF>
  </metadata>
  <g
     inkscape:label="Layer 1"
     inkscape:groupmode="layer"
     id="layer1"
     transform="translate(0,-237)">
    <path
       sodipodi:type="spiral"
       style="fill:none;fill-rule:evenodd;stroke:#000000;stroke-width:0.035;stroke-miterlimit:4;stroke-dasharray:none"
       id="path828"
       sodipodi:cx="74.34803"
       sodipodi:cy="290.65036"
       sodipodi:expansion="1.66"
       sodipodi:revolution="13.5"
       sodipodi:radius="2.7212398"
       sodipodi:argument="-63.506207"
       sodipodi:t0="0"
       d="m 74.34803,290.65036 c 0.0014,-0.001 0.0023,0.002 0.0023,0.003 -4.4e-4,0.005 -0.0074,0.006 -0.0112,0.004 -0.0095,-0.004 -0.0099,-0.0169 -0.0051,-0.0247 0.0091,-0.0145 0.02957,-0.0145 0.04227,-0.005 0.02035,0.0151 0.01961,0.0451 0.0045,0.0635 -0.02213,0.0269 -0.06318,0.0253 -0.08811,0.003 -0.0342,-0.0301 -0.03154,-0.0837 -0.0018,-0.11582 0.03902,-0.0422 0.106438,-0.0383 0.146486,1.6e-4 0.0508,0.0488 0.04554,0.13135 -0.0025,0.17996 -0.05936,0.0601 -0.158325,0.0533 -0.216127,-0.005 -0.06993,-0.0707 -0.06148,-0.18728 0.0082,-0.25488 0.08289,-0.0804 0.218148,-0.0701 0.296149,0.0116 0.09143,0.0958 0.07923,0.25087 -0.01524,0.33984 -0.109387,0.10303 -0.285392,0.0888 -0.385895,-0.0192 -0.115171,-0.1237 -0.09871,-0.32167 0.02343,-0.43425 0.138703,-0.12785 0.359657,-0.10908 0.484849,0.0279 0.141045,0.15437 0.119846,0.39931 -0.03274,0.53764 -0.170701,0.15475 -0.440614,0.13101 -0.592587,-0.0378 -0.168966,-0.18768 -0.142571,-0.48352 0.04309,-0.64964 0.205273,-0.18367 0.527988,-0.15451 0.708752,0.0486 0.198861,0.22349 0.166833,0.57401 -0.05444,0.7699 -0.242321,0.21453 -0.621543,0.17952 -0.833041,-0.0605 -0.230663,-0.26175 -0.19258,-0.67057 0.06675,-0.89815 0.281767,-0.24726 0.721077,-0.20599 0.965188,0.0733 0.264317,0.30236 0.219772,0.77303 -0.07998,1.03413 -0.323533,0.28182 -0.826407,0.2339 -1.104959,-0.0869 -0.299768,-0.34527 -0.248368,-0.8812 0.09411,-1.17764 0.367559,-0.31815 0.937376,-0.26318 1.252145,0.10149 0.336974,0.3904 0.278336,0.99493 -0.109092,1.32846 -0.413786,0.35622 -1.05384,0.29383 -1.406559,-0.1169 -0.375891,-0.43771 -0.309643,-1.11409 0.124918,-1.48642 0.462159,-0.39598 1.175665,-0.32579 1.56803,0.13314 0.416482,0.48713 0.342259,1.23855 -0.141562,1.65136 -0.512633,0.43739 -1.302735,0.35905 -1.736402,-0.15018 -0.458712,-0.53865 -0.376161,-1.36821 0.159003,-1.82314 0.565162,-0.48043 1.434939,-0.39358 1.911533,0.16802 0.502548,0.59219 0.411321,1.50294 -0.177224,2.00159 -0.619706,0.52506 -1.572177,0.42937 -2.093291,-0.18662 -0.547961,-0.64772 -0.447717,-1.64265 0.196208,-2.18661 0.676228,-0.57125 1.714356,-0.46638 2.281553,0.20598 0.594923,0.70522 0.485329,1.78727 -0.215939,2.37808 -0.734692,0.61898 -1.861388,0.50459 -2.476206,-0.22608 -0.643409,-0.76464 -0.524136,-1.93669 0.236404,-2.57589 0.795066,-0.66822 2.013191,-0.54398 2.677143,0.24691 0.693393,0.82595 0.564119,2.09085 -0.25759,2.77993 -0.857318,0.71894 -2.16969,0.58455 -2.884264,-0.26845 -0.744853,-0.88914 -0.605262,-2.24968 0.279483,-2.99011 0.921422,-0.77113 2.330815,-0.62626 3.097477,0.29069 0.797768,0.95416 0.647547,2.41309 -0.302073,3.20634 -0.987349,0.82476 -2.496496,0.66911 -3.316692,-0.31363 -0.852117,-1.02098 -0.690959,-2.58102 0.325349,-3.42852 1.055073,-0.87982 2.666671,-0.71308 3.541826,0.33724 0.907881,1.0896 0.735483,2.75342 -0.349301,3.65659 -1.12457,0.93629 -2.841278,0.75816 -3.772799,-0.36153" />
  </g>
</svg>
