<?xml version="1.0" encoding="UTF-8" standalone="no"?>
<!-- Created with Inkscape (http://www.inkscape.org/) -->

<svg
   xmlns:dc="http://purl.org/dc/elements/1.1/"
   xmlns:cc="http://creativecommons.org/ns#"
   xmlns:rdf="http://www.w3.org/1999/02/22-rdf-syntax-ns#"
   xmlns:svg="http://www.w3.org/2000/svg"
   xmlns="http://www.w3.org/2000/svg"
   xmlns:sodipodi="http://sodipodi.sourceforge.net/DTD/sodipodi-0.dtd"
   xmlns:inkscape="http://www.inkscape.org/namespaces/inkscape"
   width="80mm"
   height="60mm"
   viewBox="0 0 80 60"
   version="1.1"
   id="svg1468"
   inkscape:version="0.92.4 (5da689c313, 2019-01-14)"
   sodipodi:docname="Detection_2.svg">
  <defs
     id="defs1462" />
  <sodipodi:namedview
     id="base"
     pagecolor="#ffffff"
     bordercolor="#666666"
     borderopacity="1.0"
     inkscape:pageopacity="0.0"
     inkscape:pageshadow="2"
     inkscape:zoom="31.678384"
     inkscape:cx="281.59169"
     inkscape:cy="21.955987"
     inkscape:document-units="mm"
     inkscape:current-layer="layer1"
     showgrid="false"
     inkscape:window-width="1366"
     inkscape:window-height="705"
     inkscape:window-x="-8"
     inkscape:window-y="-8"
     inkscape:window-maximized="1" />
  <metadata
     id="metadata1465">
    <rdf:RDF>
      <cc:Work
         rdf:about="">
        <dc:format>image/svg+xml</dc:format>
        <dc:type
           rdf:resource="http://purl.org/dc/dcmitype/StillImage" />
        <dc:title />
      </cc:Work>
    </rdf:RDF>
  </metadata>
  <g
     inkscape:label="Layer 1"
     inkscape:groupmode="layer"
     id="layer1"
     transform="translate(0,-237)">
    <path
       sodipodi:type="spiral"
       style="fill:none;fill-rule:evenodd;stroke:#000000;stroke-width:0.035;stroke-miterlimit:4;stroke-dasharray:none"
       id="path816"
       sodipodi:cx="74.619545"
       sodipodi:cy="290.57425"
       sodipodi:expansion="1.66"
       sodipodi:revolution="57.5"
       sodipodi:radius="2.7504909"
       sodipodi:argument="-83.338196"
       sodipodi:t0="0"
       d="m 74.619545,290.57425 c -1.4e-5,-1.6e-4 2.76e-4,-7e-5 3.29e-4,-3e-5 3.77e-4,3e-4 7.6e-5,8.7e-4 -2.39e-4,0.001 -7.97e-4,5.1e-4 -0.0018,-10e-5 -0.0021,-8.6e-4 -6.44e-4,-0.001 3.99e-4,-0.003 0.0018,-0.003 0.0022,-7.8e-4 0.0044,8e-4 0.005,0.003 9.22e-4,0.003 -0.0013,0.006 -0.0042,0.007 -0.004,0.001 -0.0079,-0.002 -0.0089,-0.006 -0.0012,-0.005 0.0025,-0.01 0.0074,-0.0111 0.0063,-0.001 0.01227,0.003 0.01352,0.009 0.0016,0.008 -0.004,0.0147 -0.01133,0.0161 -0.0089,0.002 -0.01732,-0.005 -0.01892,-0.0135 -0.0019,-0.0104 0.0057,-0.0201 0.01587,-0.0219 0.01189,-0.002 0.02304,0.007 0.02501,0.0183 0.0023,0.0135 -0.0077,0.0261 -0.02099,0.0283 -0.01521,0.002 -0.0294,-0.009 -0.03176,-0.0238 -0.0027,-0.017 0.0099,-0.0328 0.02666,-0.0354 0.01885,-0.003 0.03636,0.0111 0.03913,0.0297 0.0031,0.0208 -0.01236,0.0401 -0.03286,0.043 -0.02279,0.003 -0.04389,-0.0137 -0.0471,-0.0362 -0.0035,-0.0249 0.015,-0.0479 0.03956,-0.0513 0.02702,-0.004 0.05199,0.0164 0.05565,0.0431 0.004,0.0292 -0.01784,0.0562 -0.04675,0.0601 -0.03153,0.004 -0.06061,-0.0193 -0.06475,-0.0505 -0.0045,-0.0339 0.02087,-0.0651 0.05441,-0.0695 0.03631,-0.005 0.06976,0.0224 0.0744,0.0584 0.005,0.0388 -0.02408,0.0745 -0.06252,0.0794 -0.04136,0.005 -0.07941,-0.0258 -0.08457,-0.0667 -0.0055,-0.044 0.02748,-0.0844 0.07107,-0.0898 0.04667,-0.006 0.08956,0.0292 0.09525,0.0755 0.0061,0.0494 -0.03105,0.0948 -0.08006,0.10078 -0.05223,0.006 -0.100182,-0.0329 -0.106433,-0.0847 -0.0066,-0.0551 0.03479,-0.10567 0.08946,-0.11221 0.05803,-0.007 0.111274,0.0367 0.118102,0.0943 0.0072,0.061 -0.0387,0.11699 -0.09927,0.12412 -0.06408,0.008 -0.122825,-0.0407 -0.130249,-0.10434 -0.0078,-0.0672 0.04277,-0.12876 0.109489,-0.13649 0.07036,-0.008 0.134825,0.0449 0.142864,0.11474 0.0085,0.0736 -0.047,0.14099 -0.120099,0.14935 -0.07687,0.009 -0.147265,-0.0492 -0.155939,-0.12555 -0.0091,-0.0802 0.05139,-0.15365 0.131096,-0.16265 0.08361,-0.009 0.160139,0.0536 0.169465,0.13674 0.0098,0.0871 -0.05593,0.16673 -0.142472,0.17639 -0.09057,0.0101 -0.173439,-0.0583 -0.183435,-0.1483 -0.01045,-0.0941 0.06063,-0.18024 0.154222,-0.19058 0.09775,-0.0108 0.187156,0.063 0.19784,0.16023 0.01115,0.10142 -0.06547,0.19417 -0.166338,0.20521 -0.105145,0.0115 -0.201286,-0.0679 -0.212676,-0.17254 -0.01186,-0.10892 0.07046,-0.2085 0.178817,-0.22025 0.112754,-0.0122 0.215821,0.073 0.227934,0.18519 0.01259,0.11664 -0.07559,0.22324 -0.191651,0.23572 -0.120575,0.013 -0.230758,-0.0782 -0.24361,-0.1982 -0.01334,-0.12456 0.08087,-0.23837 0.204836,-0.2516 0.128602,-0.0137 0.246089,0.0836 0.259698,0.21156 0.01411,0.13269 -0.08629,0.2539 -0.218368,0.26789 -0.136833,0.0145 -0.261809,-0.089 -0.276192,-0.22526 -0.01489,-0.14102 0.09184,-0.26981 0.232241,-0.28459 0.145267,-0.0153 0.277915,0.0947 0.293089,0.23931 0.01569,0.14955 -0.09754,0.28611 -0.246454,0.30168 -0.153899,0.0161 -0.2944,-0.10043 -0.31038,-0.25368 -0.01651,-0.15829 0.103366,-0.30279 0.260998,-0.31918 0.162729,-0.0169 0.311262,0.10633 0.328065,0.2684 0.01734,0.16721 -0.109329,0.31983 -0.275873,0.33705 -0.171753,0.0178 -0.328494,-0.11236 -0.346136,-0.28343 -0.01818,-0.17634 0.115423,-0.33725 0.291074,-0.35532 0.180969,-0.0186 0.346093,0.11852 0.36459,0.2988 0.01905,0.18565 -0.121648,0.35503 -0.306597,0.37396 -0.190376,0.0195 -0.364056,-0.12481 -0.383424,-0.31448 -0.01993,-0.19515 0.128003,-0.37317 0.322439,-0.39298 0.199972,-0.0204 0.382378,0.13122 0.402633,0.33047 0.02082,0.20485 -0.134485,0.39168 -0.338597,0.41238 -0.209754,0.0213 -0.401056,-0.13777 -0.422212,-0.34679 -0.02173,-0.21472 0.141093,-0.41053 0.355066,-0.43214 0.219722,-0.0222 0.420087,0.14444 0.442161,0.36342 0.02266,0.22477 -0.147828,0.42973 -0.371846,0.45227 -0.229873,0.0231 -0.439468,-0.15124 -0.462474,-0.38035 -0.0236,-0.23502 0.154687,-0.44929 0.388933,-0.47277 0.240204,-0.0241 0.459193,0.15816 0.483147,0.39759 0.02456,0.24544 -0.161669,0.46919 -0.406323,0.49362 -0.250715,0.025 -0.479262,-0.16521 -0.504178,-0.41513 -0.02553,-0.25604 0.168772,-0.48943 0.424013,-0.51483 0.261406,-0.026 0.499671,0.17237 0.525565,0.43297 0.02651,0.26682 -0.175997,0.51 -0.442003,0.53639 -0.272272,0.027 -0.520417,-0.17965 -0.547303,-0.45111 -0.02751,-0.27777 0.183342,-0.53091 0.460289,-0.5583 0.283314,-0.028 0.541497,0.18706 0.56939,0.46954 0.02853,0.2889 -0.190805,0.55216 -0.478868,0.58056 -0.294529,0.029 -0.562909,-0.19458 -0.591823,-0.48826 -0.02956,-0.3002 0.198386,-0.57374 0.497738,-0.60317 0.305917,-0.0301 0.584649,0.20222 0.614599,0.50728 0.0306,0.31168 -0.206084,0.59564 -0.516897,0.62612 -0.317476,0.0311 -0.606715,-0.20998 -0.637716,-0.52659 -0.03166,-0.32332 0.213899,-0.61787 0.536343,-0.6494 0.329205,-0.0322 0.629106,0.21785 0.66117,0.54617 0.03273,0.33514 -0.221827,0.64043 -0.556072,0.67303 -0.341103,0.0333 -0.651818,-0.22584 -0.684961,-0.56605 -0.03382,-0.34711 0.229871,-0.66329 0.576085,-0.69698 0.353167,-0.0344 0.674849,0.23394 0.709084,0.5862 0.03492,0.35926 -0.238028,0.68648 -0.596377,0.72127 -0.365398,0.0355 -0.698197,-0.24215 -0.733539,-0.60663 -0.03603,-0.37157 0.246298,-0.70999 0.616948,-0.74589 0.377794,-0.0366 0.72186,0.25048 0.758322,0.62734 0.03716,0.38405 -0.25468,0.73381 -0.637795,0.77084 -0.390354,0.0377 -0.745835,-0.25892 -0.783432,-0.64833 -0.0383,-0.39669 0.263173,-0.75794 0.658918,-0.7961 0.403076,-0.0389 0.77012,0.26746 0.808865,0.66958 0.03946,0.40949 -0.271777,0.78237 -0.680312,0.8217 -0.415961,0.04 -0.794715,-0.27612 -0.834621,-0.69111 -0.04062,-0.42247 0.28049,-0.80713 0.701978,-0.84762 0.429005,-0.0412 0.819614,0.28489 0.860695,0.71291 0.04181,0.43559 -0.289311,0.83218 -0.723912,0.87385 -0.442209,0.0424 -0.844819,-0.29376 -0.887089,-0.73498 -0.043,-0.44887 0.298242,-0.85753 0.746114,-0.9004 0.455573,-0.0436 0.870328,0.30275 0.913799,0.75731 0.04421,0.46232 -0.307279,0.8832 -0.768582,0.92728 -0.469094,0.0448 -0.896136,-0.31184 -0.940822,-0.77992 -0.04543,-0.47591 0.316424,-0.90915 0.791314,-0.95445 0.482771,-0.046 0.922243,0.32104 0.968158,0.80278 0.04667,0.48967 -0.325675,0.93541 -0.814309,0.98194 -0.496605,0.0473 -0.948648,-0.33034 -0.995804,-0.8259 -0.04792,-0.50358 0.335031,-0.96197 0.837565,-1.00975 0.510593,-0.0485 0.975347,0.33975 1.023758,0.84929 0.04918,0.51765 -0.344493,0.98881 -0.861081,1.03785 -0.524735,0.0498 -1.002341,-0.34926 -1.052019,-0.87293 -0.05045,-0.53187 0.354059,-1.01595 0.884855,-1.06627 0.539031,-0.0511 1.029627,0.35889 1.080585,0.89684 0.05174,0.54624 -0.363729,1.04338 -0.908884,1.09498 -0.553479,0.0524 -1.057204,-0.3686 -1.109456,-0.92099 -0.05304,-0.56076 0.373502,-1.0711 0.93317,-1.12401 0.568079,-0.0537 1.08507,0.37843 1.138628,0.94541 0.05436,0.57544 -0.383379,1.09911 -0.95771,1.15333 -0.582829,0.055 -1.113223,-0.38836 -1.1681,-0.97008 -0.05568,-0.59026 0.393357,-1.1274 0.982503,-1.18294 0.597728,-0.0564 1.141661,0.39838 1.19787,0.99499 0.05702,0.60523 -0.403437,1.15599 -1.007546,1.21287 -0.612778,0.0577 -1.170386,-0.40852 -1.227938,-1.02016 -0.05837,-0.62036 0.413618,-1.18486 1.032839,-1.24309 0.627976,-0.0591 1.199392,0.41875 1.258302,1.04558 0.05974,0.63563 -0.4239,1.214 -1.058382,1.2736 -0.643321,0.0604 -1.22868,-0.42908 -1.288959,-1.07125 -0.06111,-0.65105 0.434281,-1.24343 1.084171,-1.3044 0.658814,-0.0618 1.258249,0.43951 1.31991,1.09716 0.0625,0.66662 -0.444763,1.27314 -1.110208,1.33549 -0.674452,0.0632 -1.288096,-0.45004 -1.35115,-1.12331 -0.0639,-0.68233 0.455343,-1.30313 1.136488,-1.36688 0.690236,-0.0646 1.318221,0.46067 1.382682,1.14972 0.06532,0.69818 -0.466023,1.33339 -1.163013,1.39855 -0.706165,0.066 -1.348623,-0.4714 -1.414502,-1.17636 -0.06674,-0.71419 0.4768,-1.36393 1.18978,-1.43052 0.722238,-0.0675 1.3793,0.48222 1.44661,1.20325 0.06818,0.73033 -0.487675,1.39474 -1.21679,1.46277 -0.738454,0.0689 -1.410249,-0.49315 -1.479002,-1.23038 -0.06963,-0.74662 0.498647,-1.42583 1.244039,-1.49531 0.754814,-0.0704 1.441472,0.50417 1.51168,1.25776 0.07109,0.76304 -0.509717,1.45718 -1.271529,1.52812 -0.771315,0.0718 -1.472965,-0.51529 -1.54464,-1.28536 -0.07256,-0.77962 0.520882,-1.48881 1.299256,-1.56123 0.787958,-0.0733 1.504729,0.5265 1.577883,1.31321 0.07405,0.79633 -0.532144,1.52071 -1.32722,1.59461 -0.804743,0.0748 -1.536762,-0.53781 -1.611408,-1.34129 -0.07555,-0.81319 0.543502,-1.55288 1.355422,-1.62827 0.821667,-0.0763 1.569062,0.54921 1.645211,1.36961 0.07706,0.83018 -0.554954,1.58531 -1.383858,1.66221 -0.838731,0.0778 -1.601629,-0.56071 -1.679293,-1.39816 -0.07858,-0.84732 0.566501,-1.61801 1.412529,-1.69644 0.855934,-0.0793 1.634461,0.57231 1.713651,1.42695 0.08011,0.86459 -0.578142,1.65098 -1.441432,1.73094 -0.873276,0.0809 -1.667558,-0.584 -1.748287,-1.45597 -0.08166,-0.882 0.589878,-1.68421 1.470568,-1.76571 0.890757,-0.0824 1.700918,0.59578 1.783197,1.48522 0.08321,0.89955 -0.601706,1.7177 -1.499935,1.80076 -0.908374,0.084 -1.73454,-0.60766 -1.818381,-1.51471 -0.08478,-0.91723 0.613629,-1.75145 1.529533,-1.83607 0.926128,-0.0856 1.768424,0.61962 1.853838,1.54441 0.08636,0.93506 -0.625644,1.78547 -1.559361,1.87167 -0.944018,0.0872 -1.802567,-0.63168 -1.889566,-1.57436 -0.08795,-0.95301 0.637751,-1.81973 1.589417,-1.90753 0.962045,-0.0888 1.836969,0.64384 1.925565,1.60453 0.08956,0.97111 -0.649951,1.85427 -1.6197,1.94367 -0.980207,0.0904 -1.87163,-0.65609 -1.961834,-1.63493 -0.09117,-0.98934 0.662242,-1.88906 1.65021,-1.98007 0.998504,-0.092 1.906548,0.66842 1.998371,1.66555 0.0928,1.0077 -0.674624,1.9241 -1.680946,2.01674 -1.016934,0.0936 -1.941722,-0.68085 -2.035176,-1.6964 -0.09443,-1.0262 0.687098,-1.9594 1.711908,-2.05368 1.035499,-0.0953 1.97715,0.69337 2.072247,1.72747 0.09608,1.04484 -0.699662,1.99497 -1.743093,2.09089 -1.054197,0.0969 -2.012834,-0.70598 -2.109585,-1.75877 -0.09774,-1.0636 0.712317,-2.03077 1.774503,-2.12835 1.073027,-0.0986 2.04877,0.71867 2.147186,1.79029 0.09942,1.08249 -0.725062,2.06683 -1.806134,2.16608 -1.091991,0.10026 -2.08496,-0.73147 -2.185052,-1.82203 -0.101097,-1.10152 0.737896,-2.10315 1.837988,-2.20408 1.111086,-0.10195 2.1214,0.74434 2.223179,1.85399 0.102791,1.12069 -0.75082,2.13972 -1.870062,2.24234 -1.130312,0.10365 -2.158091,-0.75731 -2.261569,-1.88618 -0.104496,-1.13997 0.763833,-2.17653 1.902357,-2.28086 1.149669,-0.10535 2.195032,0.77037 2.30022,1.91859 0.106212,1.15939 -0.776935,2.21359 -1.934872,2.31964 -1.169156,0.10707 -2.232221,-0.78352 -2.33913,-1.95121 -0.107939,-1.17895 0.790125,-2.25091 1.967604,-2.35868 1.188775,-0.10881 2.269659,0.79675 2.3783,1.98405 0.109677,1.19863 -0.803402,2.28847 -2.000555,2.39798 -1.208521,0.11055 -2.307344,-0.81007 -2.417727,-2.01711 -0.111427,-1.21844 0.816768,-2.32628 2.033723,-2.43754 1.228397,-0.1123 2.345275,0.82349 2.457412,2.05039 0.113187,1.23838 -0.830221,2.36433 -2.067107,2.47735 -1.248403,0.11407 -2.383452,-0.83698 -2.497354,-2.08388 -0.114958,-1.25845 0.843762,-2.40263 2.100707,-2.51742 1.268537,-0.11585 2.421873,0.85056 2.537552,2.11759 0.116739,1.27865 -0.85739,2.44117 -2.134523,2.55774 -1.288798,0.11764 -2.460539,-0.86423 -2.578004,-2.15151 -0.118532,-1.29897 0.871105,-2.47996 2.168553,-2.59832 1.309186,-0.11944 2.499447,0.87799 2.618709,2.18565 0.120337,1.31942 -0.884905,2.51899 -2.202796,2.63915 -1.329701,0.12124 -2.538597,-0.89184 -2.659668,-2.22 -0.122151,-1.34 0.898792,-2.55826 2.237252,-2.68024 1.350344,-0.12306 2.57799,0.90577 2.70088,2.25456 0.123976,1.36071 -0.912765,2.59778 -2.271921,2.72158 -1.371112,0.12489 -2.617622,-0.91978 -2.742342,-2.28933 -0.125813,-1.38155 0.926822,-2.63753 2.306801,-2.76317 1.392006,-0.12673 2.657495,0.93388 2.784056,2.32432 0.127659,1.4025 -0.940966,2.67752 -2.341893,2.80501 -1.413026,0.12858 -2.697607,-0.94807 -2.826019,-2.35952 -0.129517,-1.42358 0.955194,-2.71775 2.377194,-2.8471 1.434171,-0.13044 2.737958,0.96235 2.868232,2.39493 0.131385,1.44479 -0.969508,2.75822 -2.412705,2.88943 -1.455441,0.13232 -2.778547,-0.9767 -2.910694,-2.43054 -0.133263,-1.46612 0.983906,-2.79893 2.448425,-2.93202 1.476835,-0.1342 2.819373,0.99114 2.953403,2.46637 0.135153,1.48758 -0.998387,2.83987 -2.484353,2.97485" />
  </g>
</svg>
