<?xml version="1.0" encoding="UTF-8" standalone="no"?>
<!-- Created with Inkscape (http://www.inkscape.org/) -->

<svg
   xmlns:dc="http://purl.org/dc/elements/1.1/"
   xmlns:cc="http://creativecommons.org/ns#"
   xmlns:rdf="http://www.w3.org/1999/02/22-rdf-syntax-ns#"
   xmlns:svg="http://www.w3.org/2000/svg"
   xmlns="http://www.w3.org/2000/svg"
   xmlns:sodipodi="http://sodipodi.sourceforge.net/DTD/sodipodi-0.dtd"
   xmlns:inkscape="http://www.inkscape.org/namespaces/inkscape"
   width="80mm"
   height="60mm"
   viewBox="0 0 80 60"
   version="1.1"
   id="svg1064"
   inkscape:version="0.92.4 (5da689c313, 2019-01-14)"
   sodipodi:docname="Main.svg">
  <defs
     id="defs1058" />
  <sodipodi:namedview
     id="base"
     pagecolor="#ffffff"
     bordercolor="#666666"
     borderopacity="1.0"
     inkscape:pageopacity="0.0"
     inkscape:pageshadow="2"
     inkscape:zoom="5.6568542"
     inkscape:cx="-1.2389704"
     inkscape:cy="6.6783872"
     inkscape:document-units="mm"
     inkscape:current-layer="layer1"
     showgrid="false"
     inkscape:window-width="1366"
     inkscape:window-height="705"
     inkscape:window-x="-8"
     inkscape:window-y="-8"
     inkscape:window-maximized="1" />
  <metadata
     id="metadata1061">
    <rdf:RDF>
      <cc:Work
         rdf:about="">
        <dc:format>image/svg+xml</dc:format>
        <dc:type
           rdf:resource="http://purl.org/dc/dcmitype/StillImage" />
        <dc:title />
      </cc:Work>
    </rdf:RDF>
  </metadata>
  <g
     inkscape:label="Layer 1"
     inkscape:groupmode="layer"
     id="layer1"
     transform="translate(0,-237)">
    <path
       id="path830"
       style="fill:none;stroke:#000000;stroke-width:0.035;stroke-linecap:butt;stroke-linejoin:miter;stroke-miterlimit:4;stroke-dasharray:none;stroke-opacity:1"
       d="m 78.045739,287.24849 c -4.431642,5.31199 -10.551176,8.19462 -17.134011,7.95236 m -57.9588604,-44.67882 54.0769234,-0.004 m -57.02748328,44.68013 60.90942128,0.003 m 13.079529,-10.64903 c 1.550153,-1.64044 3.021403,-2.06243 4.019091,-1.38034 0.997691,0.68209 1.381141,2.4587 0.03539,4.07701 M 58.120752,270.84285 c 0.174364,0.47699 1.039892,0.27043 1.031341,-0.48959 -0.0077,-0.68441 -0.925584,-1.44684 -2.057715,-1.34096 -1.502002,0.19161 -2.36974,1.70284 -2.13251,3.08913 0.34815,2.03444 2.521688,3.14586 4.441291,2.71507 2.558529,-0.57417 3.928366,-3.34327 3.297647,-5.79345 -0.793691,-3.08329 -4.166089,-4.71407 -7.145615,-3.88021 -3.608602,1.00991 -5.501635,4.98958 -4.462785,8.49778 1.224245,4.13428 5.813494,6.29034 9.84994,5.04535 4.660246,-1.43739 7.079832,-6.63768 5.627923,-11.20211 -1.649743,-5.18638 -7.46206,-7.86986 -12.554262,-6.21049 -5.712685,1.86155 -8.660281,8.2866 -6.793074,13.90643 2.072965,6.23908 9.111242,9.451 15.2586,7.37564 6.765568,-2.28407 10.241939,-9.93597 7.958209,-16.61076 -2.494942,-7.29212 -10.760763,-11.03306 -17.962922,-8.54078 -7.818734,2.70564 -11.824317,11.5856 -9.12335,19.31509 2.916182,8.34538 12.410496,12.61569 20.667258,9.70592 8.872059,-3.12662 13.40716,-13.23542 10.288479,-22.01942 -3.336946,-9.39878 -14.060371,-14.19872 -23.371585,-10.87106 -9.92551,3.54721 -14.990321,14.88536 -11.453617,24.72375 3.757385,10.45228 15.745434,15.73523 26.110989,11.98942 3.29606,-1.1911 6.076476,-3.06975 8.396264,-5.69578 M 58.138257,270.88484 c -0.152561,-0.40816 -0.737989,-0.64772 -1.252717,-0.20521 -0.716616,0.64845 -0.249507,1.77213 0.442505,2.22009 1.237797,0.80128 2.842731,0.0648 3.471241,-1.15051 0.922356,-1.78345 -0.117073,-3.91857 -1.863445,-4.70758 -2.327643,-1.05161 -5.01772,0.29679 -5.964039,2.56842 -1.190842,2.85863 0.476832,6.09867 3.284384,7.19505 3.400309,1.32787 7.207533,-0.65429 8.456837,-3.98632 1.472259,-3.92668 -0.834196,-8.28679 -4.705312,-9.68253 -4.469358,-1.61144 -9.402258,1.01031 -10.949647,5.40423 -1.758246,4.99264 1.19058,10.47811 6.126253,12.17001 5.537078,1.89806 11.599193,-1.36565 13.442444,-6.82213 2.046375,-6.05773 -1.546476,-12.67104 -7.547192,-14.6575 -6.60418,-2.18621 -13.797325,1.72063 -15.935243,8.24004 -2.335649,7.12236 1.902085,14.86489 8.968132,17.14498 7.670945,2.47527 15.99619,-2.07539 18.428041,-9.65794 2.625633,-8.18673 -2.257531,-17.05932 -10.389063,-19.63246 -8.737497,-2.76489 -18.19552,2.43002 -20.920847,11.07584 -2.916079,9.25093 2.612876,19.25414 11.810002,22.11994 9.803911,3.05488 20.395176,-2.78456 23.413646,-12.49375 3.206835,-10.31502 -2.96813,-21.44921 -13.230942,-24.60742 -2.047801,-0.63018 -4.105019,-0.9364 -6.247607,-0.90175"
       inkscape:connector-curvature="0"
       sodipodi:nodetypes="ccccccccccscccscsssccsssscscssccccccccsscsccsccsssccc" />
    <g
       id="g886">
      <path
         sodipodi:nodetypes="cc"
         inkscape:connector-curvature="0"
         id="path837"
         d="m 2.953,240.20632 10.268648,10.33173"
         style="fill:none;stroke:#000000;stroke-width:0.05;stroke-linecap:butt;stroke-linejoin:miter;stroke-miterlimit:4;stroke-dasharray:none;stroke-opacity:1" />
      <path
         sodipodi:nodetypes="cc"
         inkscape:connector-curvature="0"
         id="path837-77"
         d="M 2.953,260.82638 13.215447,250.51635"
         style="fill:none;stroke:#000000;stroke-width:0.05;stroke-linecap:butt;stroke-linejoin:miter;stroke-miterlimit:4;stroke-dasharray:none;stroke-opacity:1" />
    </g>
    <path
       sodipodi:type="spiral"
       style="fill:none;fill-rule:evenodd;stroke:#000000;stroke-width:0.035;stroke-miterlimit:4;stroke-dasharray:none"
       id="path912"
       sodipodi:cx="2.9879467"
       sodipodi:cy="240.20631"
       sodipodi:expansion="1.66"
       sodipodi:revolution="15.5"
       sodipodi:radius="1.1951238"
       sodipodi:argument="-30.171389"
       sodipodi:t0="0"
       d="m 2.9879467,240.20631 c 1.977e-4,5.9e-4 -9.641e-4,5.2e-4 -0.0012,4.1e-4 -0.00167,-7.7e-4 -0.00107,-0.003 -8.29e-5,-0.004 0.00249,-0.003 0.00673,-0.001 0.0087,0.001 0.00369,0.005 0.00123,0.0114 -0.00337,0.0145 -0.00738,0.005 -0.017134,0.001 -0.021378,-0.006 -0.0062,-0.0105 -7.812e-4,-0.0237 0.00939,-0.0293 0.013962,-0.008 0.031223,-3.9e-4 0.038231,0.0132 0.0092,0.0178 -1.087e-4,0.0395 -0.017501,0.0481 -0.022063,0.0109 -0.048539,-7e-4 -0.058772,-0.0223 -0.012644,-0.0266 0.00137,-0.0583 0.027448,-0.0703 0.03155,-0.0145 0.068794,0.002 0.082683,0.0331 0.016516,0.0368 -0.00296,0.08 -0.039074,0.0958 -0.042328,0.0186 -0.091782,-0.004 -0.1097341,-0.0455 -0.020789,-0.0482 0.00486,-0.10425 0.052262,-0.12438 0.054321,-0.0231 0.1173413,0.006 0.1397465,0.0594 0.025443,0.0608 -0.00704,0.13105 -0.066923,0.15582 -0.067471,0.0279 -0.1453457,-0.008 -0.172576,-0.0748 -0.030464,-0.0745 0.00948,-0.16024 0.082984,-0.19001 0.081726,-0.0331 0.175689,0.0108 0.208103,0.0915 0.035838,0.0893 -0.01217,0.19171 -0.1003841,0.22684 -0.097045,0.0387 -0.2082815,-0.0136 -0.2462256,-0.10957 -0.041554,-0.10509 0.015105,-0.2254 0.1190729,-0.26623 0.1133898,-0.0445 0.2430457,0.0167 0.2868555,0.12889 0.0476,0.12193 -0.01827,0.26122 -0.1390059,0.30808 -0.1307294,0.0507 -0.2799135,-0.0199 -0.3299154,-0.14942 -0.053969,-0.13977 0.021658,-0.29912 0.1601445,-0.35234 0.1490349,-0.0573 0.3188248,0.0234 0.3753364,0.17116 0.060651,0.15854 -0.025263,0.33903 -0.1824541,0.39891 -0.1682807,0.0641 -0.3597257,-0.0272 -0.423057,-0.19404 -0.06764,-0.17825 0.029077,-0.38091 0.205904,-0.44776 0.1884437,-0.0713 0.4025673,0.0311 0.4730213,0.21805 0.074928,0.19886 -0.033095,0.4247 -0.2304663,0.49882 -0.209503,0.0787 -0.4473053,-0.0352 -0.5251785,-0.24315 -0.082511,-0.22036 0.037312,-0.47037 0.2561156,-0.55207 0.2314393,-0.0864 0.4938992,0.0395 0.5794821,0.26934 0.09038,0.24273 -0.041724,0.51788 -0.2828287,0.60743 -0.2542349,0.0944 -0.5423116,-0.044 -0.6358892,-0.29658 -0.098532,-0.26595 0.046325,-0.56719 0.3105842,-0.66487 0.2778734,-0.10271 0.5925078,0.0487 0.6943601,0.32485 0.1069616,0.29 -0.051113,0.61826 -0.3393622,0.72436 -0.3023397,0.11128 -0.644456,-0.0536 -0.754858,-0.35413 -0.1156639,-0.31488 0.056083,-0.67108 0.3691444,-0.78586 0.3276196,-0.12011 0.698126,0.0586 0.8173485,0.38441 0.1246346,0.34056 -0.061232,0.7256 -0.3999138,0.84933 -0.3536996,0.12922 -0.7534899,-0.0639 -0.8817992,-0.41566 -0.1338697,-0.36704 0.066557,-0.7818 0.4316542,-0.91475 0.3805675,-0.13859 0.8105212,0.0693 0.9481799,0.44788 0.1433653,0.39429 -0.072056,0.83965 -0.4643505,0.98208 -0.4082115,0.14821 -0.8691953,-0.0749 -1.0164623,-0.48105 -0.1531178,-0.42232 0.077725,-0.89914 0.4979886,-1.05131 0.4366207,-0.15809 0.9294889,0.0806 1.0866193,0.51516 0.1631238,0.45111 -0.083561,0.96024 -0.532555,1.12239 -0.4657843,0.16822 -0.9913798,-0.0865 -1.1586255,-0.55018 -0.1733799,-0.48065 0.089563,-1.02292 0.5680372,-1.19531 0.4956926,-0.1786 1.0548469,0.0926 1.2324567,0.58611 0.1838831,0.51093 -0.095728,1.08717 -0.6044231,1.27005 -0.526336,0.18923 -1.1198704,-0.0989 -1.30809,-0.62295 -0.1946305,-0.54193 0.102054,-1.15296 0.6417013,-1.34657 0.5577057,-0.2001 1.1864314,0.10527 1.3855035,0.66067 0.2056191,0.57366 -0.1085387,1.22028 -0.6798608,1.42487 -0.5897932,0.2112 -1.2545117,-0.11184 -1.4646765,-0.69927 -0.2168463,-0.6061 0.1151804,-1.28911 0.7188915,-1.50491"
       transform="rotate(152.1588,2.9737496,240.18871)" />
    <path
       sodipodi:type="spiral"
       style="fill:none;fill-rule:evenodd;stroke:#000000;stroke-width:0.035;stroke-miterlimit:4;stroke-dasharray:none"
       id="path912-4"
       sodipodi:cx="2.9879467"
       sodipodi:cy="240.20631"
       sodipodi:expansion="1.66"
       sodipodi:revolution="15.5"
       sodipodi:radius="1.1951238"
       sodipodi:argument="-30.171389"
       sodipodi:t0="0"
       d="m 2.9879467,240.20631 c 1.977e-4,5.9e-4 -9.641e-4,5.2e-4 -0.0012,4.1e-4 -0.00167,-7.7e-4 -0.00107,-0.003 -8.29e-5,-0.004 0.00249,-0.003 0.00673,-0.001 0.0087,0.001 0.00369,0.005 0.00123,0.0114 -0.00337,0.0145 -0.00738,0.005 -0.017134,0.001 -0.021378,-0.006 -0.0062,-0.0105 -7.812e-4,-0.0237 0.00939,-0.0293 0.013962,-0.008 0.031223,-3.9e-4 0.038231,0.0132 0.0092,0.0178 -1.087e-4,0.0395 -0.017501,0.0481 -0.022063,0.0109 -0.048539,-7e-4 -0.058772,-0.0223 -0.012644,-0.0266 0.00137,-0.0583 0.027448,-0.0703 0.03155,-0.0145 0.068794,0.002 0.082683,0.0331 0.016516,0.0368 -0.00296,0.08 -0.039074,0.0958 -0.042328,0.0186 -0.091782,-0.004 -0.1097341,-0.0455 -0.020789,-0.0482 0.00486,-0.10425 0.052262,-0.12438 0.054321,-0.0231 0.1173413,0.006 0.1397465,0.0594 0.025443,0.0608 -0.00704,0.13105 -0.066923,0.15582 -0.067471,0.0279 -0.1453457,-0.008 -0.172576,-0.0748 -0.030464,-0.0745 0.00948,-0.16024 0.082984,-0.19001 0.081726,-0.0331 0.175689,0.0108 0.208103,0.0915 0.035838,0.0893 -0.01217,0.19171 -0.1003841,0.22684 -0.097045,0.0387 -0.2082815,-0.0136 -0.2462256,-0.10957 -0.041554,-0.10509 0.015105,-0.2254 0.1190729,-0.26623 0.1133898,-0.0445 0.2430457,0.0167 0.2868555,0.12889 0.0476,0.12193 -0.01827,0.26122 -0.1390059,0.30808 -0.1307294,0.0507 -0.2799135,-0.0199 -0.3299154,-0.14942 -0.053969,-0.13977 0.021658,-0.29912 0.1601445,-0.35234 0.1490349,-0.0573 0.3188248,0.0234 0.3753364,0.17116 0.060651,0.15854 -0.025263,0.33903 -0.1824541,0.39891 -0.1682807,0.0641 -0.3597257,-0.0272 -0.423057,-0.19404 -0.06764,-0.17825 0.029077,-0.38091 0.205904,-0.44776 0.1884437,-0.0713 0.4025673,0.0311 0.4730213,0.21805 0.074928,0.19886 -0.033095,0.4247 -0.2304663,0.49882 -0.209503,0.0787 -0.4473053,-0.0352 -0.5251785,-0.24315 -0.082511,-0.22036 0.037312,-0.47037 0.2561156,-0.55207 0.2314393,-0.0864 0.4938992,0.0395 0.5794821,0.26934 0.09038,0.24273 -0.041724,0.51788 -0.2828287,0.60743 -0.2542349,0.0944 -0.5423116,-0.044 -0.6358892,-0.29658 -0.098532,-0.26595 0.046325,-0.56719 0.3105842,-0.66487 0.2778734,-0.10271 0.5925078,0.0487 0.6943601,0.32485 0.1069616,0.29 -0.051113,0.61826 -0.3393622,0.72436 -0.3023397,0.11128 -0.644456,-0.0536 -0.754858,-0.35413 -0.1156639,-0.31488 0.056083,-0.67108 0.3691444,-0.78586 0.3276196,-0.12011 0.698126,0.0586 0.8173485,0.38441 0.1246346,0.34056 -0.061232,0.7256 -0.3999138,0.84933 -0.3536996,0.12922 -0.7534899,-0.0639 -0.8817992,-0.41566 -0.1338697,-0.36704 0.066557,-0.7818 0.4316542,-0.91475 0.3805675,-0.13859 0.8105212,0.0693 0.9481799,0.44788 0.1433653,0.39429 -0.072056,0.83965 -0.4643505,0.98208 -0.4082115,0.14821 -0.8691953,-0.0749 -1.0164623,-0.48105 -0.1531178,-0.42232 0.077725,-0.89914 0.4979886,-1.05131 0.4366207,-0.15809 0.9294889,0.0806 1.0866193,0.51516 0.1631238,0.45111 -0.083561,0.96024 -0.532555,1.12239 -0.4657843,0.16822 -0.9913798,-0.0865 -1.1586255,-0.55018 -0.1733799,-0.48065 0.089563,-1.02292 0.5680372,-1.19531 0.4956926,-0.1786 1.0548469,0.0926 1.2324567,0.58611 0.1838831,0.51093 -0.095728,1.08717 -0.6044231,1.27005 -0.526336,0.18923 -1.1198704,-0.0989 -1.30809,-0.62295 -0.1946305,-0.54193 0.102054,-1.15296 0.6417013,-1.34657 0.5577057,-0.2001 1.1864314,0.10527 1.3855035,0.66067 0.2056191,0.57366 -0.1085387,1.22028 -0.6798608,1.42487 -0.5897932,0.2112 -1.2545117,-0.11184 -1.4646765,-0.69927 -0.2168463,-0.6061 0.1151804,-1.28911 0.7188915,-1.50491"
       transform="rotate(152.1588,1.6919982,245.35982)" />
    <path
       sodipodi:type="spiral"
       style="fill:none;fill-rule:evenodd;stroke:#000000;stroke-width:0.035;stroke-miterlimit:4;stroke-dasharray:none"
       id="path912-7"
       sodipodi:cx="2.9879467"
       sodipodi:cy="240.20631"
       sodipodi:expansion="1.66"
       sodipodi:revolution="15.5"
       sodipodi:radius="1.1951238"
       sodipodi:argument="-30.171389"
       sodipodi:t0="0"
       d="m 2.9879467,240.20631 c 1.977e-4,5.9e-4 -9.641e-4,5.2e-4 -0.0012,4.1e-4 -0.00167,-7.7e-4 -0.00107,-0.003 -8.29e-5,-0.004 0.00249,-0.003 0.00673,-0.001 0.0087,0.001 0.00369,0.005 0.00123,0.0114 -0.00337,0.0145 -0.00738,0.005 -0.017134,0.001 -0.021378,-0.006 -0.0062,-0.0105 -7.812e-4,-0.0237 0.00939,-0.0293 0.013962,-0.008 0.031223,-3.9e-4 0.038231,0.0132 0.0092,0.0178 -1.087e-4,0.0395 -0.017501,0.0481 -0.022063,0.0109 -0.048539,-7e-4 -0.058772,-0.0223 -0.012644,-0.0266 0.00137,-0.0583 0.027448,-0.0703 0.03155,-0.0145 0.068794,0.002 0.082683,0.0331 0.016516,0.0368 -0.00296,0.08 -0.039074,0.0958 -0.042328,0.0186 -0.091782,-0.004 -0.1097341,-0.0455 -0.020789,-0.0482 0.00486,-0.10425 0.052262,-0.12438 0.054321,-0.0231 0.1173413,0.006 0.1397465,0.0594 0.025443,0.0608 -0.00704,0.13105 -0.066923,0.15582 -0.067471,0.0279 -0.1453457,-0.008 -0.172576,-0.0748 -0.030464,-0.0745 0.00948,-0.16024 0.082984,-0.19001 0.081726,-0.0331 0.175689,0.0108 0.208103,0.0915 0.035838,0.0893 -0.01217,0.19171 -0.1003841,0.22684 -0.097045,0.0387 -0.2082815,-0.0136 -0.2462256,-0.10957 -0.041554,-0.10509 0.015105,-0.2254 0.1190729,-0.26623 0.1133898,-0.0445 0.2430457,0.0167 0.2868555,0.12889 0.0476,0.12193 -0.01827,0.26122 -0.1390059,0.30808 -0.1307294,0.0507 -0.2799135,-0.0199 -0.3299154,-0.14942 -0.053969,-0.13977 0.021658,-0.29912 0.1601445,-0.35234 0.1490349,-0.0573 0.3188248,0.0234 0.3753364,0.17116 0.060651,0.15854 -0.025263,0.33903 -0.1824541,0.39891 -0.1682807,0.0641 -0.3597257,-0.0272 -0.423057,-0.19404 -0.06764,-0.17825 0.029077,-0.38091 0.205904,-0.44776 0.1884437,-0.0713 0.4025673,0.0311 0.4730213,0.21805 0.074928,0.19886 -0.033095,0.4247 -0.2304663,0.49882 -0.209503,0.0787 -0.4473053,-0.0352 -0.5251785,-0.24315 -0.082511,-0.22036 0.037312,-0.47037 0.2561156,-0.55207 0.2314393,-0.0864 0.4938992,0.0395 0.5794821,0.26934 0.09038,0.24273 -0.041724,0.51788 -0.2828287,0.60743 -0.2542349,0.0944 -0.5423116,-0.044 -0.6358892,-0.29658 -0.098532,-0.26595 0.046325,-0.56719 0.3105842,-0.66487 0.2778734,-0.10271 0.5925078,0.0487 0.6943601,0.32485 0.1069616,0.29 -0.051113,0.61826 -0.3393622,0.72436 -0.3023397,0.11128 -0.644456,-0.0536 -0.754858,-0.35413 -0.1156639,-0.31488 0.056083,-0.67108 0.3691444,-0.78586 0.3276196,-0.12011 0.698126,0.0586 0.8173485,0.38441 0.1246346,0.34056 -0.061232,0.7256 -0.3999138,0.84933 -0.3536996,0.12922 -0.7534899,-0.0639 -0.8817992,-0.41566 -0.1338697,-0.36704 0.066557,-0.7818 0.4316542,-0.91475 0.3805675,-0.13859 0.8105212,0.0693 0.9481799,0.44788 0.1433653,0.39429 -0.072056,0.83965 -0.4643505,0.98208 -0.4082115,0.14821 -0.8691953,-0.0749 -1.0164623,-0.48105 -0.1531178,-0.42232 0.077725,-0.89914 0.4979886,-1.05131 0.4366207,-0.15809 0.9294889,0.0806 1.0866193,0.51516 0.1631238,0.45111 -0.083561,0.96024 -0.532555,1.12239 -0.4657843,0.16822 -0.9913798,-0.0865 -1.1586255,-0.55018 -0.1733799,-0.48065 0.089563,-1.02292 0.5680372,-1.19531 0.4956926,-0.1786 1.0548469,0.0926 1.2324567,0.58611 0.1838831,0.51093 -0.095728,1.08717 -0.6044231,1.27005 -0.526336,0.18923 -1.1198704,-0.0989 -1.30809,-0.62295 -0.1946305,-0.54193 0.102054,-1.15296 0.6417013,-1.34657 0.5577057,-0.2001 1.1864314,0.10527 1.3855035,0.66067 0.2056191,0.57366 -0.1085387,1.22028 -0.6798608,1.42487 -0.5897932,0.2112 -1.2545117,-0.11184 -1.4646765,-0.69927 -0.2168463,-0.6061 0.1151804,-1.28911 0.7188915,-1.50491"
       transform="rotate(152.1588,0.41506395,250.51202)" />
    <path
       sodipodi:type="spiral"
       style="fill:none;fill-rule:evenodd;stroke:#000000;stroke-width:0.035;stroke-miterlimit:4;stroke-dasharray:none"
       id="path828"
       sodipodi:cx="74.347916"
       sodipodi:cy="290.65002"
       sodipodi:expansion="1.66"
       sodipodi:revolution="13.5"
       sodipodi:radius="2.7212398"
       sodipodi:argument="-63.506207"
       sodipodi:t0="0"
       d="m 74.347916,290.65002 c 0.0014,-0.001 0.0023,0.002 0.0023,0.003 -4.39e-4,0.005 -0.0074,0.006 -0.0112,0.004 -0.0095,-0.004 -0.0099,-0.0169 -0.0051,-0.0247 0.0091,-0.0145 0.02957,-0.0145 0.04227,-0.005 0.02035,0.0151 0.01961,0.0451 0.0045,0.0635 -0.02213,0.0269 -0.06318,0.0253 -0.0881,0.003 -0.0342,-0.0301 -0.03154,-0.0837 -0.0018,-0.11582 0.03902,-0.0422 0.106437,-0.0383 0.146485,1.6e-4 0.0508,0.0488 0.04554,0.13136 -0.0025,0.17996 -0.05936,0.0601 -0.158324,0.0533 -0.216126,-0.005 -0.06993,-0.0707 -0.06148,-0.18728 0.0082,-0.25489 0.08289,-0.0804 0.218148,-0.0701 0.296149,0.0116 0.09143,0.0958 0.07923,0.25087 -0.01524,0.33984 -0.109388,0.10303 -0.285393,0.0888 -0.385896,-0.0192 -0.11517,-0.1237 -0.09871,-0.32167 0.02343,-0.43425 0.138703,-0.12784 0.359658,-0.10907 0.48485,0.0279 0.141044,0.15437 0.119845,0.39932 -0.03274,0.53764 -0.170702,0.15476 -0.440614,0.13102 -0.592587,-0.0378 -0.168966,-0.18767 -0.142571,-0.48351 0.04309,-0.64964 0.205272,-0.18367 0.527987,-0.15451 0.708752,0.0487 0.198861,0.22349 0.166832,0.574 -0.05444,0.76989 -0.242322,0.21453 -0.621543,0.17953 -0.833041,-0.0605 -0.230663,-0.26175 -0.19258,-0.67058 0.06675,-0.89815 0.281766,-0.24726 0.721076,-0.206 0.965188,0.0732 0.264316,0.30237 0.219771,0.77303 -0.07998,1.03414 -0.323534,0.28182 -0.826408,0.23389 -1.104959,-0.0869 -0.299769,-0.34527 -0.248368,-0.88119 0.0941,-1.17764 0.36756,-0.31815 0.937377,-0.26318 1.252146,0.1015 0.336973,0.3904 0.278335,0.99493 -0.109093,1.32846 -0.413785,0.35622 -1.053839,0.29382 -1.406559,-0.1169 -0.375891,-0.43771 -0.309642,-1.11409 0.124919,-1.48643 0.462159,-0.39598 1.175665,-0.32579 1.56803,0.13314 0.416482,0.48714 0.342259,1.23855 -0.141562,1.65136 -0.512633,0.4374 -1.302735,0.35906 -1.736403,-0.15018 -0.458711,-0.53864 -0.37616,-1.3682 0.159004,-1.82313 0.565162,-0.48043 1.434939,-0.39359 1.911533,0.16802 0.502548,0.59218 0.41132,1.50293 -0.177224,2.00159 -0.619707,0.52506 -1.572178,0.42936 -2.093291,-0.18662 -0.547961,-0.64773 -0.447717,-1.64266 0.196208,-2.18662 0.676228,-0.57125 1.714355,-0.46637 2.281553,0.20598 0.594923,0.70522 0.485328,1.78727 -0.21594,2.37809 -0.734692,0.61898 -1.861387,0.50458 -2.476206,-0.22608 -0.643408,-0.76464 -0.524135,-1.9367 0.236405,-2.5759 0.795066,-0.66821 2.013191,-0.54398 2.677143,0.24691 0.693393,0.82596 0.564119,2.09086 -0.25759,2.77994 -0.857319,0.71894 -2.169691,0.58454 -2.884265,-0.26845 -0.744853,-0.88914 -0.605261,-2.24968 0.279484,-2.99012 0.921422,-0.77113 2.330815,-0.62626 3.097477,0.29069 0.797768,0.95416 0.647547,2.41309 -0.302074,3.20634 -0.987348,0.82477 -2.496496,0.66912 -3.316691,-0.31362 -0.852118,-1.02099 -0.69096,-2.58103 0.325349,-3.42853 1.055072,-0.87982 2.66667,-0.71308 3.541825,0.33725 0.907882,1.0896 0.735483,2.75342 -0.3493,3.65658 -1.124571,0.93629 -2.841279,0.75816 -3.772799,-0.36152" />
  </g>
</svg>
