<?xml version="1.0" encoding="UTF-8" standalone="no"?>
<!-- Created with Inkscape (http://www.inkscape.org/) -->

<svg
   xmlns:dc="http://purl.org/dc/elements/1.1/"
   xmlns:cc="http://creativecommons.org/ns#"
   xmlns:rdf="http://www.w3.org/1999/02/22-rdf-syntax-ns#"
   xmlns:svg="http://www.w3.org/2000/svg"
   xmlns="http://www.w3.org/2000/svg"
   xmlns:sodipodi="http://sodipodi.sourceforge.net/DTD/sodipodi-0.dtd"
   xmlns:inkscape="http://www.inkscape.org/namespaces/inkscape"
   width="80mm"
   height="60mm"
   viewBox="0 0 80 60"
   version="1.1"
   id="svg1468"
   inkscape:version="0.92.4 (5da689c313, 2019-01-14)"
   sodipodi:docname="Top_left inlet.svg">
  <defs
     id="defs1462" />
  <sodipodi:namedview
     id="base"
     pagecolor="#ffffff"
     bordercolor="#666666"
     borderopacity="1.0"
     inkscape:pageopacity="0.0"
     inkscape:pageshadow="2"
     inkscape:zoom="3.959798"
     inkscape:cx="66.870624"
     inkscape:cy="129.22576"
     inkscape:document-units="mm"
     inkscape:current-layer="layer1"
     showgrid="false"
     inkscape:window-width="1366"
     inkscape:window-height="705"
     inkscape:window-x="-8"
     inkscape:window-y="-8"
     inkscape:window-maximized="1" />
  <metadata
     id="metadata1465">
    <rdf:RDF>
      <cc:Work
         rdf:about="">
        <dc:format>image/svg+xml</dc:format>
        <dc:type
           rdf:resource="http://purl.org/dc/dcmitype/StillImage" />
        <dc:title></dc:title>
      </cc:Work>
    </rdf:RDF>
  </metadata>
  <g
     inkscape:label="Layer 1"
     inkscape:groupmode="layer"
     id="layer1"
     transform="translate(0,-237)">
    <path
       id="path2028-2-0"
       style="fill:none;fill-rule:evenodd;stroke:#000000;stroke-width:0.03499999;stroke-miterlimit:4;stroke-dasharray:none"
       d="m 2.9526828,295.2201 c -0.018164,-0.0127 0.00801,-0.0306 0.020947,-0.03 0.034962,0.002 0.04809,0.0435 0.039416,0.0718 -0.015581,0.0509 -0.077285,0.0674 -0.1226593,0.0484 -0.067269,-0.0277 -0.087866,-0.11159 -0.057967,-0.17396 0.039817,-0.0832 0.1455613,-0.10787 0.2244622,-0.0667 0.099319,0.0518 0.1286242,0.18053 0.076546,0.27601 -0.063033,0.11566 -0.2143335,0.14867 -0.3262454,0.0853 -0.1318165,-0.0753 -0.1696188,-0.24961 -0.095123,-0.37803 0.085956,-0.14835 0.2831515,-0.18973 0.4282209,-0.10301 0.1646713,0.098 0.2107159,0.31876 0.1136996,0.48005 -0.1088417,0.18096 -0.351992,0.23094 -0.5299334,0.12184 -0.1973517,-0.121 -0.2518587,-0.38795 -0.13227,-0.58208 0.1316484,-0.21365 0.4217252,-0.27076 0.6318194,-0.13988 0.2301272,0.14384 0.2930472,0.45712 0.1508557,0.68411 -0.1543776,0.24638 -0.4904813,0.31219 -0.7336293,0.15831 -0.2628939,-0.16667 -0.3342607,-0.52634 -0.1694335,-0.78614 0.1771134,-0.27914 0.5592533,-0.35363 0.8354621,-0.17664 0.2956255,0.18959 0.3754562,0.59556 0.1880082,0.88817 -0.1998404,0.31188 -0.6280359,0.39507 -0.9373134,0.19489 -0.3284332,-0.21236 -0.4166712,-0.66483 -0.2065816,-0.99022 0.2225606,-0.34461 0.6968247,-0.43652 1.0391266,-0.21322 0.2079234,0.13539 0.3401461,0.36817 0.3532106,0.61555 M 2.9524148,260.82606 c -0.021808,0.004 -0.015536,-0.0275 -0.00606,-0.036 0.026042,-0.0234 0.064838,-0.002 0.07841,0.0241 0.024644,0.0471 -0.00845,0.1022 -0.054233,0.12022 -0.067728,0.0264 -0.1408134,-0.0188 -0.1628384,-0.0843 -0.029184,-0.0875 0.029159,-0.17882 0.1143609,-0.20436 0.1073437,-0.032 0.2181237,0.0395 0.2473084,0.14451 0.035515,0.12684 -0.049957,0.25603 -0.1746137,0.28847 -0.1469206,0.0382 -0.2957115,-0.0602 -0.3317664,-0.20467 -0.041857,-0.16625 0.070675,-0.33343 0.2348503,-0.3726 0.1863777,-0.0445 0.3733061,0.0815 0.4162255,0.26483 0.048177,0.20562 -0.091302,0.41097 -0.295087,0.45675 -0.2258315,0.0509 -0.4510253,-0.10254 -0.5006652,-0.32502 -0.054601,-0.24495 0.1135202,-0.48813 0.3553063,-0.54087 0.2652507,-0.0574 0.5287927,0.12336 0.5851325,0.38521 0.061133,0.28425 -0.133928,0.56576 -0.415543,0.625 -0.3046794,0.0637 -0.606614,-0.14421 -0.6695919,-0.4454 -0.067661,-0.32359 0.1543338,-0.64344 0.4757671,-0.70912 0.3441013,-0.0703 0.684408,0.16511 0.7540443,0.50557 0.074188,0.36292 -0.1747343,0.7211 -0.5359981,0.79326 -0.3835104,0.0768 -0.7622155,-0.18604 -0.8385003,-0.56578 -0.080713,-0.40221 0.1951507,-0.79876 0.5962139,-0.87736 0.2434643,-0.0478 0.5005082,0.0273 0.6823917,0.19502 m -0.5552849,-9.74227 c -0.018164,-0.0127 0.00801,-0.0306 0.020947,-0.03 0.034962,0.002 0.04809,0.0435 0.039416,0.0718 -0.015581,0.0509 -0.077285,0.0674 -0.1226593,0.0484 -0.067269,-0.0277 -0.087866,-0.11159 -0.057967,-0.17396 0.039817,-0.0832 0.1455613,-0.10787 0.2244622,-0.0667 0.099319,0.0518 0.1286242,0.18053 0.076546,0.27601 -0.063033,0.11566 -0.2143335,0.14867 -0.3262453,0.0853 -0.1318165,-0.0753 -0.1696188,-0.24961 -0.095123,-0.37803 0.085956,-0.14835 0.2831515,-0.18973 0.4282209,-0.10301 0.1646713,0.098 0.2107159,0.31876 0.1136996,0.48005 -0.1088417,0.18096 -0.351992,0.23094 -0.5299334,0.12184 -0.1973517,-0.121 -0.2518587,-0.38795 -0.13227,-0.58208 0.1316483,-0.21365 0.4217251,-0.27076 0.6318194,-0.13988 0.2301272,0.14384 0.2930472,0.45712 0.1508557,0.68411 -0.1543776,0.24638 -0.4904814,0.31219 -0.7336294,0.15831 -0.2628938,-0.16667 -0.3342606,-0.52634 -0.1694334,-0.78614 0.1771134,-0.27914 0.5592533,-0.35363 0.8354621,-0.17664 0.2956255,0.18959 0.3754562,0.59556 0.1880082,0.88817 -0.1998404,0.31188 -0.6280359,0.39507 -0.9373135,0.19489 -0.3284331,-0.21236 -0.4166711,-0.66483 -0.2065815,-0.99022 0.2225606,-0.34461 0.6968246,-0.43652 1.0391266,-0.21322 0.2079234,0.13539 0.3401461,0.36817 0.3532106,0.61555 M 2.9524148,240.206 c -0.00368,-0.0218 0.02741,-0.0157 0.036075,-0.006 0.023395,0.0259 0.00264,0.0648 -0.023779,0.0785 -0.047237,0.0245 -0.1022111,-0.008 -0.120422,-0.0537 -0.026723,-0.0676 0.018153,-0.14087 0.083616,-0.16319 0.087258,-0.0298 0.178929,0.0284 0.2048169,0.11351 0.032546,0.10723 -0.03883,0.21824 -0.1434535,0.24791 -0.126721,0.036 -0.2562361,-0.0489 -0.289188,-0.17342 -0.038829,-0.14676 0.059443,-0.29588 0.2032885,-0.33261 0.1660932,-0.0425 0.3337287,0.0693 0.3735639,0.23331 0.045294,0.18619 -0.080036,0.37364 -0.2631229,0.41731 -0.2054044,0.049 -0.411343,-0.0896 -0.4579422,-0.29319 -0.051836,-0.22561 0.1006165,-0.45145 0.3229576,-0.50201 0.2447078,-0.0556 0.4885924,0.11151 0.5423181,0.35307 0.058422,0.26502 -0.1211773,0.5293 -0.3827925,0.58672 -0.2840043,0.0623 -0.5663179,-0.13159 -0.6266939,-0.41296 -0.065034,-0.30441 0.1417403,-0.60719 0.4426272,-0.67142 0.3233006,-0.069 0.6440593,0.15167 0.7110746,0.47283 0.071662,0.34381 -0.1623129,0.68508 -0.5024643,0.75613 -0.3625927,0.0757 -0.7218113,-0.17176 -0.7954505,-0.53272 -0.078304,-0.38319 0.1828783,-0.76298 0.5622991,-0.84083 0.4018754,-0.0824 0.7995709,0.19185 0.8798288,0.59259 0.048899,0.24326 -0.024687,0.50064 -0.1921656,0.68319" />
  </g>
</svg>
