<?xml version="1.0" encoding="UTF-8" standalone="no"?>
<!-- Created with Inkscape (http://www.inkscape.org/) -->

<svg
   xmlns:dc="http://purl.org/dc/elements/1.1/"
   xmlns:cc="http://creativecommons.org/ns#"
   xmlns:rdf="http://www.w3.org/1999/02/22-rdf-syntax-ns#"
   xmlns:svg="http://www.w3.org/2000/svg"
   xmlns="http://www.w3.org/2000/svg"
   xmlns:sodipodi="http://sodipodi.sourceforge.net/DTD/sodipodi-0.dtd"
   xmlns:inkscape="http://www.inkscape.org/namespaces/inkscape"
   width="40mm"
   height="40mm"
   viewBox="0 0 40 40"
   version="1.1"
   id="svg2035"
   inkscape:version="0.92.4 (5da689c313, 2019-01-14)"
   sodipodi:docname="Bottom_Detection.svg">
  <defs
     id="defs2029" />
  <sodipodi:namedview
     id="base"
     pagecolor="#ffffff"
     bordercolor="#666666"
     borderopacity="1.0"
     inkscape:pageopacity="0.0"
     inkscape:pageshadow="2"
     inkscape:zoom="22.627417"
     inkscape:cx="69.260959"
     inkscape:cy="21.935988"
     inkscape:document-units="mm"
     inkscape:current-layer="layer1"
     showgrid="false"
     inkscape:window-width="1366"
     inkscape:window-height="705"
     inkscape:window-x="-8"
     inkscape:window-y="-8"
     inkscape:window-maximized="1" />
  <metadata
     id="metadata2032">
    <rdf:RDF>
      <cc:Work
         rdf:about="">
        <dc:format>image/svg+xml</dc:format>
        <dc:type
           rdf:resource="http://purl.org/dc/dcmitype/StillImage" />
        <dc:title></dc:title>
      </cc:Work>
    </rdf:RDF>
  </metadata>
  <g
     inkscape:label="Layer 1"
     inkscape:groupmode="layer"
     id="layer1"
     transform="translate(0,-257)">
    <path
       id="path2598"
       style="fill:none;fill-rule:evenodd;stroke:#000000;stroke-width:0.025;stroke-miterlimit:4;stroke-dasharray:none"
       d="m 19.992495,292.97946 c -0.0068,-0.0137 0.01508,-0.0159 0.02273,-0.0113 0.02071,0.0125 0.01465,0.0424 -1.75e-4,0.0567 -0.02652,0.0256 -0.06946,0.0152 -0.09073,-0.0116 -0.03122,-0.0394 -0.01599,-0.0969 0.02308,-0.12473 0.05207,-0.037 0.124578,-0.0168 0.158736,0.0345 0.04298,0.0646 0.01765,0.15229 -0.04598,0.19274 -0.07706,0.049 -0.180042,0.0185 -0.22674,-0.0574 -0.05503,-0.0895 -0.01941,-0.20782 0.06888,-0.26074 0.101936,-0.0611 0.235621,-0.0203 0.294745,0.0803 0.06718,0.11435 0.02121,0.26343 -0.09179,0.32874 -0.126761,0.0733 -0.29125,0.0221 -0.362749,-0.10323 -0.07938,-0.13917 -0.02303,-0.31908 0.114689,-0.39675 0.151565,-0.0855 0.346907,-0.024 0.430754,0.12614 0.0916,0.16396 0.02486,0.37474 -0.137592,0.46475 -0.176354,0.0977 -0.402581,0.0258 -0.498758,-0.14904 -0.10384,-0.18875 -0.02669,-0.43042 0.160494,-0.53276 0.201137,-0.10997 0.458266,-0.0276 0.566763,0.17194 0.11609,0.21353 0.02854,0.48611 -0.183397,0.60077 -0.225914,0.12222 -0.513958,0.0295 -0.634767,-0.19485 -0.128347,-0.2383 -0.03038,-0.54181 0.2063,-0.66877 0.250688,-0.13448 0.569655,-0.0313 0.702771,0.21775 0.140609,0.26308 0.03223,0.59751 -0.229202,0.73678 -0.27546,0.14674 -0.625357,0.0331 -0.770776,-0.24066 -0.152875,-0.28784 -0.03408,-0.65321 0.252105,-0.80478 0.300229,-0.15901 0.681061,-0.035 0.83878,0.26356 0.165144,0.31261 0.03593,0.70891 -0.275007,0.87278 -0.324997,0.17128 -0.736768,0.0369 -0.906785,-0.28646 -0.177415,-0.33738 -0.03778,-0.76462 0.29791,-0.94078 0.106178,-0.0557 0.244691,-0.0879 0.36456,-0.0856 m -0.0338,3.19245 v 0 l -0.01505,-2.47042 0.0021,0.66766 z m 0.03028,-3.18211 -0.02176,-2.39356 z" />
    <g
       id="g3689" />
  </g>
  <g
     id="g2229" />
</svg>
