<?xml version="1.0" encoding="UTF-8" standalone="no"?>
<!-- Created with Inkscape (http://www.inkscape.org/) -->

<svg
   xmlns:dc="http://purl.org/dc/elements/1.1/"
   xmlns:cc="http://creativecommons.org/ns#"
   xmlns:rdf="http://www.w3.org/1999/02/22-rdf-syntax-ns#"
   xmlns:svg="http://www.w3.org/2000/svg"
   xmlns="http://www.w3.org/2000/svg"
   xmlns:sodipodi="http://sodipodi.sourceforge.net/DTD/sodipodi-0.dtd"
   xmlns:inkscape="http://www.inkscape.org/namespaces/inkscape"
   width="40mm"
   height="40mm"
   viewBox="0 0 40 40"
   version="1.1"
   id="svg8"
   inkscape:version="0.92.4 (5da689c313, 2019-01-14)"
   sodipodi:docname="spiral.svg">
  <defs
     id="defs2" />
  <sodipodi:namedview
     id="base"
     pagecolor="#ffffff"
     bordercolor="#666666"
     borderopacity="1.0"
     inkscape:pageopacity="0.0"
     inkscape:pageshadow="2"
     inkscape:zoom="4"
     inkscape:cx="108.69322"
     inkscape:cy="81.398979"
     inkscape:document-units="mm"
     inkscape:current-layer="layer1"
     showgrid="false"
     inkscape:window-width="1366"
     inkscape:window-height="705"
     inkscape:window-x="-8"
     inkscape:window-y="-8"
     inkscape:window-maximized="1" />
  <metadata
     id="metadata5">
    <rdf:RDF>
      <cc:Work
         rdf:about="">
        <dc:format>image/svg+xml</dc:format>
        <dc:type
           rdf:resource="http://purl.org/dc/dcmitype/StillImage" />
        <dc:title></dc:title>
      </cc:Work>
    </rdf:RDF>
  </metadata>
  <g
     inkscape:label="Layer 1"
     inkscape:groupmode="layer"
     id="layer1"
     transform="translate(0,-257)">
    <path
       id="path874"
       style="fill:none;fill-opacity:1;stroke:#000000;stroke-width:0.034;stroke-linecap:butt;stroke-linejoin:miter;stroke-miterlimit:4;stroke-dasharray:none;stroke-opacity:1"
       d="m 19.268255,275.06478 c -0.116791,0.22883 -0.383363,0.60355 -0.779474,0.45938 -0.772543,-0.36375 -0.652501,-1.39157 -0.168458,-1.92273 0.856565,-0.93996 2.401232,-0.72398 3.235491,0.11509 1.215231,1.22214 0.86489,3.18749 -0.417821,4.23463 -1.700014,1.3878 -4.291477,0.93981 -5.643607,-0.66206 -1.693825,-2.00662 -1.092255,-4.98594 0.99188,-6.51884 2.514595,-1.84953 6.175144,-1.16215 8.029951,1.20142 2.1787,2.77631 1.323094,6.77646 -1.55996,8.78635 -3.319079,2.31386 -8.050504,1.38625 -10.40158,-1.73628 -2.6646653,-3.53899 -1.554906,-8.55947 2.12406,-11.04178 4.117813,-2.7784 9.918511,-1.61077 12.762114,2.26795 3.150349,4.29714 1.786895,10.33598 -2.685254,13.28775 -4.912494,3.24241 -11.780175,1.83527 -15.1136778,-2.79717 -3.6353756,-5.05193 -2.0187597,-12.10688 3.2441228,-15.52595 2.365375,-1.53669 5.26975,-2.23578 8.114645,-1.98151 m -1.732433,11.83375 c 0.199985,-0.3886 0.669123,-0.40597 0.896237,-0.18067 0.596856,0.59204 0.118299,1.52088 -0.525724,1.86453 -1.139697,0.60816 -2.514998,-0.0943 -3.000787,-1.15363 -0.707611,-1.54321 0.321018,-3.28024 1.899474,-3.85164 2.091941,-0.75725 4.368801,0.50177 5.070036,2.44666 0.878412,2.43636 -0.747154,5.04683 -3.251868,5.81661 -3.022039,0.92876 -6.218782,-0.90103 -7.12154,-3.72546 -1.06041,-3.31762 1.167197,-6.80707 4.59269,-7.76776 3.943549,-1.106 8.061521,1.29598 9.160806,4.99524 1.245915,4.19264 -1.583653,8.56053 -5.925475,9.70884 -4.859707,1.28526 -9.897533,-1.68814 -11.1907876,-6.25842 -1.4327635,-5.06331 1.9976286,-10.30796 7.2521666,-11.64197 5.771894,-1.46534 11.727584,2.07825 13.213211,7.51641 1.620162,5.93062 -2.409718,12.05005 -8.573891,13.56851 -2.770451,0.68246 -5.749613,0.40225 -8.333616,-0.7563" />
    <rect
       style="opacity:1;fill:#000000;fill-opacity:1;stroke:none;stroke-width:0.034;stroke-miterlimit:4;stroke-dasharray:none;stroke-dashoffset:0;stroke-opacity:1"
       id="rect903"
       width="1.0056012"
       height="1.6370349"
       x="25.677919"
       y="263.46436" />
  </g>
</svg>
