<?xml version="1.0" encoding="UTF-8" standalone="no"?>
<!-- Created with Inkscape (http://www.inkscape.org/) -->

<svg
   xmlns:dc="http://purl.org/dc/elements/1.1/"
   xmlns:cc="http://creativecommons.org/ns#"
   xmlns:rdf="http://www.w3.org/1999/02/22-rdf-syntax-ns#"
   xmlns:svg="http://www.w3.org/2000/svg"
   xmlns="http://www.w3.org/2000/svg"
   xmlns:sodipodi="http://sodipodi.sourceforge.net/DTD/sodipodi-0.dtd"
   xmlns:inkscape="http://www.inkscape.org/namespaces/inkscape"
   width="40mm"
   height="40mm"
   viewBox="0 0 40 40"
   version="1.1"
   id="svg937"
   inkscape:version="0.92.4 (5da689c313, 2019-01-14)"
   sodipodi:docname="initial_2.svg">
  <defs
     id="defs931" />
  <sodipodi:namedview
     id="base"
     pagecolor="#ffffff"
     bordercolor="#666666"
     borderopacity="1.0"
     inkscape:pageopacity="0.0"
     inkscape:pageshadow="2"
     inkscape:zoom="11.313709"
     inkscape:cx="70.814895"
     inkscape:cy="17.691056"
     inkscape:document-units="mm"
     inkscape:current-layer="layer1"
     showgrid="false"
     inkscape:window-width="1366"
     inkscape:window-height="705"
     inkscape:window-x="-8"
     inkscape:window-y="-8"
     inkscape:window-maximized="1" />
  <metadata
     id="metadata934">
    <rdf:RDF>
      <cc:Work
         rdf:about="">
        <dc:format>image/svg+xml</dc:format>
        <dc:type
           rdf:resource="http://purl.org/dc/dcmitype/StillImage" />
        <dc:title />
      </cc:Work>
    </rdf:RDF>
  </metadata>
  <g
     inkscape:label="Layer 1"
     inkscape:groupmode="layer"
     id="layer1"
     transform="translate(0,-257)">
    <path
       id="path874"
       style="fill:none;fill-opacity:1;stroke:#000000;stroke-width:0.034;stroke-linecap:butt;stroke-linejoin:miter;stroke-miterlimit:4;stroke-dasharray:none;stroke-opacity:1"
       d="m 19.603013,277.27879 c -0.139174,0.24637 -0.383363,0.60355 -0.779475,0.45938 -0.722933,-0.24799 -0.6525,-1.39157 -0.168458,-1.92273 0.856566,-0.93996 2.401233,-0.72398 3.235492,0.11509 1.215231,1.22214 0.86489,3.18749 -0.417821,4.23463 -1.700015,1.3878 -4.291478,0.93981 -5.643607,-0.66206 -1.693826,-2.00662 -1.092255,-4.98594 0.991879,-6.51884 2.514596,-1.84953 6.175145,-1.16215 8.029952,1.20142 2.1787,2.77631 1.323094,6.77646 -1.55996,8.78635 -3.31908,2.31386 -8.050505,1.38625 -10.401581,-1.73628 -2.664665,-3.53899 -1.554905,-8.55947 2.124061,-11.04178 4.117813,-2.7784 9.918511,-1.61077 12.762114,2.26795 3.150349,4.29714 1.786895,10.33598 -2.685254,13.28775 -4.912495,3.24241 -11.780175,1.83527 -15.1136787,-2.79717 -3.6353752,-5.05193 -2.0187593,-12.10688 3.2441227,-15.52595 1.182688,-0.76835 2.500126,-1.32729 3.877503,-1.66237 0.138774,-0.0313 0.275998,-0.0606 0.411938,-0.088 0.135939,-0.0274 0.270594,-0.0527 0.404229,-0.0761 0.133635,-0.0234 0.266249,-0.0448 0.39811,-0.0643 0.13186,-0.0194 0.262965,-0.0369 0.39358,-0.0523 0.130615,-0.0154 0.260741,-0.0289 0.390642,-0.0404 0.1299,-0.0115 0.259576,-0.0209 0.389292,-0.0284 0.129716,-0.007 0.259471,-0.0129 0.389533,-0.0163 0.130061,-0.003 0.05335,-5.1e-4 0.184291,6.4e-4 m -0.456905,11.88016 c 0.199985,-0.3886 0.669123,-0.40597 0.896236,-0.18067 0.53981,0.58177 0.1183,1.52088 -0.525723,1.86453 -1.139697,0.60816 -2.514998,-0.0943 -3.000787,-1.15363 -0.707612,-1.54321 0.321017,-3.28024 1.899474,-3.85164 2.091941,-0.75725 4.368801,0.50177 5.070036,2.44666 0.878411,2.43636 -0.747154,5.04683 -3.251869,5.81661 -3.022039,0.92876 -6.218782,-0.90103 -7.12154,-3.72546 -1.060409,-3.31762 1.167197,-6.80707 4.592691,-7.76776 3.943549,-1.106 8.061521,1.29598 9.160806,4.99524 1.245915,4.19264 -1.583653,8.56053 -5.925475,9.70884 -4.859708,1.28526 -9.897534,-1.68814 -11.190788,-6.25842 -1.4327636,-5.06331 1.997628,-10.30796 7.252166,-11.64197 5.771895,-1.46534 11.727585,2.07825 13.213212,7.51641 1.620162,5.93062 -2.409718,12.05006 -8.573891,13.56851 -0.692612,0.17062 -1.362448,0.26508 -2.071714,0.31668"
       inkscape:connector-curvature="0"
       sodipodi:nodetypes="cccccccsscccsscccscssccccccccccccccscssc" />
    <g
       id="g1414">
      <rect
         y="264.06815"
         x="20.025917"
         height="1.3308742"
         width="0.034000002"
         id="rect1497"
         style="opacity:1;fill:#000000;fill-opacity:1;stroke:none;stroke-width:0.01278919;stroke-miterlimit:4;stroke-dasharray:none;stroke-dashoffset:0;stroke-opacity:1" />
      <circle
         r="0.26199999"
         cy="261.72159"
         cx="20.021576"
         id="path1499"
         style="opacity:1;fill:#000000;fill-opacity:1;stroke:none;stroke-width:0.01580463;stroke-miterlimit:4;stroke-dasharray:none;stroke-dashoffset:0;stroke-opacity:1" />
      <rect
         transform="scale(-1)"
         y="-264.13885"
         x="-20.060019"
         height="2.39446"
         width="0.034000002"
         id="rect1518-9"
         style="opacity:1;fill:#000000;fill-opacity:1;stroke:none;stroke-width:1.08149254;stroke-miterlimit:4;stroke-dasharray:none;stroke-dashoffset:0;stroke-opacity:1" />
      <rect
         transform="rotate(137.40037)"
         y="-206.25267"
         x="162.39647"
         height="2.3350003"
         width="0.034000002"
         id="rect1518-2"
         style="opacity:1;fill:#000000;fill-opacity:1;stroke:none;stroke-width:1.06798029;stroke-miterlimit:4;stroke-dasharray:none;stroke-dashoffset:0;stroke-opacity:1" />
      <rect
         transform="matrix(-0.73610147,-0.6768712,-0.6768712,0.73610147,0,0)"
         y="176.7804"
         x="-191.94241"
         height="2.3350003"
         width="0.034000002"
         id="rect1518-2-6"
         style="opacity:1;fill:#000000;fill-opacity:1;stroke:none;stroke-width:1.06798029;stroke-miterlimit:4;stroke-dasharray:none;stroke-dashoffset:0;stroke-opacity:1" />
      <circle
         r="0.46212009"
         cy="259.65958"
         cx="18.279308"
         id="path1499-5"
         style="opacity:1;fill:#000000;fill-opacity:1;stroke:none;stroke-width:0.02787647;stroke-miterlimit:4;stroke-dasharray:none;stroke-dashoffset:0;stroke-opacity:1" />
      <circle
         r="0.46212009"
         cy="259.6593"
         cx="21.860216"
         id="path1499-5-9"
         style="opacity:1;fill:#000000;fill-opacity:1;stroke:none;stroke-width:0.02787647;stroke-miterlimit:4;stroke-dasharray:none;stroke-dashoffset:0;stroke-opacity:1" />
    </g>
    <g
       id="g2014">
      <rect
         transform="scale(-1)"
         y="-291.48044"
         x="-20.059847"
         height="2.5473397"
         width="0.034000002"
         id="rect1518-9-1"
         style="opacity:1;fill:#000000;fill-opacity:1;stroke:none;stroke-width:1.11548352;stroke-miterlimit:4;stroke-dasharray:none;stroke-dashoffset:0;stroke-opacity:1" />
      <circle
         r="0.75"
         cy="292.1214"
         cx="20.038933"
         id="path1499-4"
         style="opacity:1;fill:#000000;fill-opacity:1;stroke:none;stroke-width:0.04524225;stroke-miterlimit:4;stroke-dasharray:none;stroke-dashoffset:0;stroke-opacity:1" />
      <circle
         r="0.46212009"
         cy="294.98767"
         cx="20.049341"
         id="path1499-4-9"
         style="opacity:1;fill:#000000;fill-opacity:1;stroke:none;stroke-width:0.02787647;stroke-miterlimit:4;stroke-dasharray:none;stroke-dashoffset:0;stroke-opacity:1" />
      <rect
         transform="scale(-1)"
         y="-294.6687"
         x="-20.059187"
         height="2.0016365"
         width="0.034000002"
         id="rect1518-9-1-1"
         style="opacity:1;fill:#000000;fill-opacity:1;stroke:none;stroke-width:0.98880887;stroke-miterlimit:4;stroke-dasharray:none;stroke-dashoffset:0;stroke-opacity:1" />
    </g>
  </g>
</svg>
